{"glyphs":{"0":{"ha":977,"x_min":14,"x_max":800,"o":"m 149 176 l 14 176 l 14 312 l 149 312 l 149 176 m 149 339 l 14 339 l 14 475 l 149 475 l 149 339 m 149 502 l 14 502 l 14 637 l 149 637 l 149 502 m 149 665 l 14 665 l 14 800 l 149 800 l 149 665 m 149 827 l 14 827 l 14 963 l 149 963 l 149 827 m 312 14 l 176 14 l 176 149 l 312 149 l 312 14 m 312 339 l 176 339 l 176 475 l 312 475 l 312 339 m 312 990 l 176 990 l 176 1126 l 312 1126 l 312 990 m 475 14 l 339 14 l 339 149 l 475 149 l 475 14 m 475 502 l 339 502 l 339 637 l 475 637 l 475 502 m 475 990 l 339 990 l 339 1126 l 475 1126 l 475 990 m 637 14 l 502 14 l 502 149 l 637 149 l 637 14 m 637 665 l 502 665 l 502 800 l 637 800 l 637 665 m 637 990 l 502 990 l 502 1126 l 637 1126 l 637 990 m 800 176 l 665 176 l 665 312 l 800 312 l 800 176 m 800 339 l 665 339 l 665 475 l 800 475 l 800 339 m 800 502 l 665 502 l 665 637 l 800 637 l 800 502 m 800 665 l 665 665 l 665 800 l 800 800 l 800 665 m 800 827 l 665 827 l 665 963 l 800 963 l 800 827 z "},"1":{"ha":977,"x_min":176,"x_max":637,"o":"m 312 14 l 176 14 l 176 149 l 312 149 l 312 14 m 312 827 l 176 827 l 176 963 l 312 963 l 312 827 m 475 14 l 339 14 l 339 149 l 475 149 l 475 14 m 475 176 l 339 176 l 339 312 l 475 312 l 475 176 m 475 339 l 339 339 l 339 475 l 475 475 l 475 339 m 475 502 l 339 502 l 339 637 l 475 637 l 475 502 m 475 665 l 339 665 l 339 800 l 475 800 l 475 665 m 475 827 l 339 827 l 339 963 l 475 963 l 475 827 m 475 990 l 339 990 l 339 1126 l 475 1126 l 475 990 m 637 14 l 502 14 l 502 149 l 637 149 l 637 14 z "},"2":{"ha":977,"x_min":14,"x_max":800,"o":"m 149 14 l 14 14 l 14 149 l 149 149 l 149 14 m 149 827 l 14 827 l 14 963 l 149 963 l 149 827 m 312 14 l 176 14 l 176 149 l 312 149 l 312 14 m 312 176 l 176 176 l 176 312 l 312 312 l 312 176 m 312 990 l 176 990 l 176 1126 l 312 1126 l 312 990 m 475 14 l 339 14 l 339 149 l 475 149 l 475 14 m 475 339 l 339 339 l 339 475 l 475 475 l 475 339 m 475 990 l 339 990 l 339 1126 l 475 1126 l 475 990 m 637 14 l 502 14 l 502 149 l 637 149 l 637 14 m 637 502 l 502 502 l 502 637 l 637 637 l 637 502 m 637 990 l 502 990 l 502 1126 l 637 1126 l 637 990 m 800 14 l 665 14 l 665 149 l 800 149 l 800 14 m 800 665 l 665 665 l 665 800 l 800 800 l 800 665 m 800 827 l 665 827 l 665 963 l 800 963 l 800 827 z "},"3":{"ha":977,"x_min":14,"x_max":800,"o":"m 149 176 l 14 176 l 14 312 l 149 312 l 149 176 m 149 990 l 14 990 l 14 1126 l 149 1126 l 149 990 m 312 14 l 176 14 l 176 149 l 312 149 l 312 14 m 312 990 l 176 990 l 176 1126 l 312 1126 l 312 990 m 475 14 l 339 14 l 339 149 l 475 149 l 475 14 m 475 665 l 339 665 l 339 800 l 475 800 l 475 665 m 475 990 l 339 990 l 339 1126 l 475 1126 l 475 990 m 637 14 l 502 14 l 502 149 l 637 149 l 637 14 m 637 502 l 502 502 l 502 637 l 637 637 l 637 502 m 637 827 l 502 827 l 502 963 l 637 963 l 637 827 m 637 990 l 502 990 l 502 1126 l 637 1126 l 637 990 m 800 176 l 665 176 l 665 312 l 800 312 l 800 176 m 800 339 l 665 339 l 665 475 l 800 475 l 800 339 m 800 990 l 665 990 l 665 1126 l 800 1126 l 800 990 z "},"4":{"ha":977,"x_min":14,"x_max":800,"o":"m 149 339 l 14 339 l 14 475 l 149 475 l 149 339 m 149 502 l 14 502 l 14 637 l 149 637 l 149 502 m 312 339 l 176 339 l 176 475 l 312 475 l 312 339 m 312 665 l 176 665 l 176 800 l 312 800 l 312 665 m 475 339 l 339 339 l 339 475 l 475 475 l 475 339 m 475 827 l 339 827 l 339 963 l 475 963 l 475 827 m 637 14 l 502 14 l 502 149 l 637 149 l 637 14 m 637 176 l 502 176 l 502 312 l 637 312 l 637 176 m 637 339 l 502 339 l 502 475 l 637 475 l 637 339 m 637 502 l 502 502 l 502 637 l 637 637 l 637 502 m 637 665 l 502 665 l 502 800 l 637 800 l 637 665 m 637 827 l 502 827 l 502 963 l 637 963 l 637 827 m 637 990 l 502 990 l 502 1126 l 637 1126 l 637 990 m 800 339 l 665 339 l 665 475 l 800 475 l 800 339 z "},"5":{"ha":977,"x_min":14,"x_max":800,"o":"m 149 176 l 14 176 l 14 312 l 149 312 l 149 176 m 149 665 l 14 665 l 14 800 l 149 800 l 149 665 m 149 827 l 14 827 l 14 963 l 149 963 l 149 827 m 149 990 l 14 990 l 14 1126 l 149 1126 l 149 990 m 312 14 l 176 14 l 176 149 l 312 149 l 312 14 m 312 665 l 176 665 l 176 800 l 312 800 l 312 665 m 312 990 l 176 990 l 176 1126 l 312 1126 l 312 990 m 475 14 l 339 14 l 339 149 l 475 149 l 475 14 m 475 665 l 339 665 l 339 800 l 475 800 l 475 665 m 475 990 l 339 990 l 339 1126 l 475 1126 l 475 990 m 637 14 l 502 14 l 502 149 l 637 149 l 637 14 m 637 665 l 502 665 l 502 800 l 637 800 l 637 665 m 637 990 l 502 990 l 502 1126 l 637 1126 l 637 990 m 800 176 l 665 176 l 665 312 l 800 312 l 800 176 m 800 339 l 665 339 l 665 475 l 800 475 l 800 339 m 800 502 l 665 502 l 665 637 l 800 637 l 800 502 m 800 990 l 665 990 l 665 1126 l 800 1126 l 800 990 z "},"6":{"ha":977,"x_min":14,"x_max":800,"o":"m 149 176 l 14 176 l 14 312 l 149 312 l 149 176 m 149 339 l 14 339 l 14 475 l 149 475 l 149 339 m 149 502 l 14 502 l 14 637 l 149 637 l 149 502 m 149 665 l 14 665 l 14 800 l 149 800 l 149 665 m 312 14 l 176 14 l 176 149 l 312 149 l 312 14 m 312 502 l 176 502 l 176 637 l 312 637 l 312 502 m 312 827 l 176 827 l 176 963 l 312 963 l 312 827 m 475 14 l 339 14 l 339 149 l 475 149 l 475 14 m 475 502 l 339 502 l 339 637 l 475 637 l 475 502 m 475 990 l 339 990 l 339 1126 l 475 1126 l 475 990 m 637 14 l 502 14 l 502 149 l 637 149 l 637 14 m 637 502 l 502 502 l 502 637 l 637 637 l 637 502 m 637 990 l 502 990 l 502 1126 l 637 1126 l 637 990 m 800 176 l 665 176 l 665 312 l 800 312 l 800 176 m 800 339 l 665 339 l 665 475 l 800 475 l 800 339 z "},"7":{"ha":977,"x_min":14,"x_max":800,"o":"m 149 990 l 14 990 l 14 1126 l 149 1126 l 149 990 m 312 14 l 176 14 l 176 149 l 312 149 l 312 14 m 312 176 l 176 176 l 176 312 l 312 312 l 312 176 m 312 339 l 176 339 l 176 475 l 312 475 l 312 339 m 312 990 l 176 990 l 176 1126 l 312 1126 l 312 990 m 475 502 l 339 502 l 339 637 l 475 637 l 475 502 m 475 990 l 339 990 l 339 1126 l 475 1126 l 475 990 m 637 665 l 502 665 l 502 800 l 637 800 l 637 665 m 637 990 l 502 990 l 502 1126 l 637 1126 l 637 990 m 800 827 l 665 827 l 665 963 l 800 963 l 800 827 m 800 990 l 665 990 l 665 1126 l 800 1126 l 800 990 z "},"8":{"ha":977,"x_min":14,"x_max":800,"o":"m 149 176 l 14 176 l 14 312 l 149 312 l 149 176 m 149 339 l 14 339 l 14 475 l 149 475 l 149 339 m 149 665 l 14 665 l 14 800 l 149 800 l 149 665 m 149 827 l 14 827 l 14 963 l 149 963 l 149 827 m 312 14 l 176 14 l 176 149 l 312 149 l 312 14 m 312 502 l 176 502 l 176 637 l 312 637 l 312 502 m 312 990 l 176 990 l 176 1126 l 312 1126 l 312 990 m 475 14 l 339 14 l 339 149 l 475 149 l 475 14 m 475 502 l 339 502 l 339 637 l 475 637 l 475 502 m 475 990 l 339 990 l 339 1126 l 475 1126 l 475 990 m 637 14 l 502 14 l 502 149 l 637 149 l 637 14 m 637 502 l 502 502 l 502 637 l 637 637 l 637 502 m 637 990 l 502 990 l 502 1126 l 637 1126 l 637 990 m 800 176 l 665 176 l 665 312 l 800 312 l 800 176 m 800 339 l 665 339 l 665 475 l 800 475 l 800 339 m 800 665 l 665 665 l 665 800 l 800 800 l 800 665 m 800 827 l 665 827 l 665 963 l 800 963 l 800 827 z "},"9":{"ha":977,"x_min":14,"x_max":800,"o":"m 149 665 l 14 665 l 14 800 l 149 800 l 149 665 m 149 827 l 14 827 l 14 963 l 149 963 l 149 827 m 312 14 l 176 14 l 176 149 l 312 149 l 312 14 m 312 502 l 176 502 l 176 637 l 312 637 l 312 502 m 312 990 l 176 990 l 176 1126 l 312 1126 l 312 990 m 475 14 l 339 14 l 339 149 l 475 149 l 475 14 m 475 502 l 339 502 l 339 637 l 475 637 l 475 502 m 475 990 l 339 990 l 339 1126 l 475 1126 l 475 990 m 637 176 l 502 176 l 502 312 l 637 312 l 637 176 m 637 502 l 502 502 l 502 637 l 637 637 l 637 502 m 637 990 l 502 990 l 502 1126 l 637 1126 l 637 990 m 800 339 l 665 339 l 665 475 l 800 475 l 800 339 m 800 502 l 665 502 l 665 637 l 800 637 l 800 502 m 800 665 l 665 665 l 665 800 l 800 800 l 800 665 m 800 827 l 665 827 l 665 963 l 800 963 l 800 827 z "},"\u0000":{"ha":977,"x_min":14,"x_max":800,"o":"m 149 14 l 14 14 l 14 149 l 149 149 l 149 14 m 149 176 l 14 176 l 14 312 l 149 312 l 149 176 m 149 339 l 14 339 l 14 475 l 149 475 l 149 339 m 149 502 l 14 502 l 14 637 l 149 637 l 149 502 m 149 665 l 14 665 l 14 800 l 149 800 l 149 665 m 149 827 l 14 827 l 14 963 l 149 963 l 149 827 m 149 990 l 14 990 l 14 1126 l 149 1126 l 149 990 m 312 14 l 176 14 l 176 149 l 312 149 l 312 14 m 312 176 l 176 176 l 176 312 l 312 312 l 312 176 m 312 339 l 176 339 l 176 475 l 312 475 l 312 339 m 312 502 l 176 502 l 176 637 l 312 637 l 312 502 m 312 665 l 176 665 l 176 800 l 312 800 l 312 665 m 312 827 l 176 827 l 176 963 l 312 963 l 312 827 m 312 990 l 176 990 l 176 1126 l 312 1126 l 312 990 m 475 14 l 339 14 l 339 149 l 475 149 l 475 14 m 475 176 l 339 176 l 339 312 l 475 312 l 475 176 m 475 339 l 339 339 l 339 475 l 475 475 l 475 339 m 475 502 l 339 502 l 339 637 l 475 637 l 475 502 m 475 665 l 339 665 l 339 800 l 475 800 l 475 665 m 475 827 l 339 827 l 339 963 l 475 963 l 475 827 m 475 990 l 339 990 l 339 1126 l 475 1126 l 475 990 m 637 14 l 502 14 l 502 149 l 637 149 l 637 14 m 637 176 l 502 176 l 502 312 l 637 312 l 637 176 m 637 339 l 502 339 l 502 475 l 637 475 l 637 339 m 637 502 l 502 502 l 502 637 l 637 637 l 637 502 m 637 665 l 502 665 l 502 800 l 637 800 l 637 665 m 637 827 l 502 827 l 502 963 l 637 963 l 637 827 m 637 990 l 502 990 l 502 1126 l 637 1126 l 637 990 m 800 14 l 665 14 l 665 149 l 800 149 l 800 14 m 800 176 l 665 176 l 665 312 l 800 312 l 800 176 m 800 339 l 665 339 l 665 475 l 800 475 l 800 339 m 800 502 l 665 502 l 665 637 l 800 637 l 800 502 m 800 665 l 665 665 l 665 800 l 800 800 l 800 665 m 800 827 l 665 827 l 665 963 l 800 963 l 800 827 m 800 990 l 665 990 l 665 1126 l 800 1126 l 800 990 z "},"\u001d":{"ha":977,"x_min":14,"x_max":800,"o":"m 149 14 l 14 14 l 14 149 l 149 149 l 149 14 m 149 176 l 14 176 l 14 312 l 149 312 l 149 176 m 149 339 l 14 339 l 14 475 l 149 475 l 149 339 m 149 502 l 14 502 l 14 637 l 149 637 l 149 502 m 149 665 l 14 665 l 14 800 l 149 800 l 149 665 m 149 827 l 14 827 l 14 963 l 149 963 l 149 827 m 149 990 l 14 990 l 14 1126 l 149 1126 l 149 990 m 312 14 l 176 14 l 176 149 l 312 149 l 312 14 m 312 176 l 176 176 l 176 312 l 312 312 l 312 176 m 312 339 l 176 339 l 176 475 l 312 475 l 312 339 m 312 502 l 176 502 l 176 637 l 312 637 l 312 502 m 312 665 l 176 665 l 176 800 l 312 800 l 312 665 m 312 827 l 176 827 l 176 963 l 312 963 l 312 827 m 312 990 l 176 990 l 176 1126 l 312 1126 l 312 990 m 475 14 l 339 14 l 339 149 l 475 149 l 475 14 m 475 176 l 339 176 l 339 312 l 475 312 l 475 176 m 475 339 l 339 339 l 339 475 l 475 475 l 475 339 m 475 502 l 339 502 l 339 637 l 475 637 l 475 502 m 475 665 l 339 665 l 339 800 l 475 800 l 475 665 m 475 827 l 339 827 l 339 963 l 475 963 l 475 827 m 475 990 l 339 990 l 339 1126 l 475 1126 l 475 990 m 637 14 l 502 14 l 502 149 l 637 149 l 637 14 m 637 176 l 502 176 l 502 312 l 637 312 l 637 176 m 637 339 l 502 339 l 502 475 l 637 475 l 637 339 m 637 502 l 502 502 l 502 637 l 637 637 l 637 502 m 637 665 l 502 665 l 502 800 l 637 800 l 637 665 m 637 827 l 502 827 l 502 963 l 637 963 l 637 827 m 637 990 l 502 990 l 502 1126 l 637 1126 l 637 990 m 800 14 l 665 14 l 665 149 l 800 149 l 800 14 m 800 176 l 665 176 l 665 312 l 800 312 l 800 176 m 800 339 l 665 339 l 665 475 l 800 475 l 800 339 m 800 502 l 665 502 l 665 637 l 800 637 l 800 502 m 800 665 l 665 665 l 665 800 l 800 800 l 800 665 m 800 827 l 665 827 l 665 963 l 800 963 l 800 827 m 800 990 l 665 990 l 665 1126 l 800 1126 l 800 990 z "}," ":{"ha":977,"x_min":0,"x_max":0,"o":""}," ":{"ha":977,"x_min":0,"x_max":0,"o":""},"�":{"ha":977,"x_min":14,"x_max":800,"o":"m 149 339 l 14 339 l 14 475 l 149 475 l 149 339 m 149 502 l 14 502 l 14 637 l 149 637 l 149 502 m 149 665 l 14 665 l 14 800 l 149 800 l 149 665 m 312 176 l 176 176 l 176 312 l 312 312 l 312 176 m 312 339 l 176 339 l 176 475 l 312 475 l 312 339 m 312 502 l 176 502 l 176 637 l 312 637 l 312 502 m 312 665 l 176 665 l 176 800 l 312 800 l 312 665 m 312 827 l 176 827 l 176 963 l 312 963 l 312 827 m 475 14 l 339 14 l 339 149 l 475 149 l 475 14 m 475 176 l 339 176 l 339 312 l 475 312 l 475 176 m 475 339 l 339 339 l 339 475 l 475 475 l 475 339 m 475 502 l 339 502 l 339 637 l 475 637 l 475 502 m 475 665 l 339 665 l 339 800 l 475 800 l 475 665 m 475 827 l 339 827 l 339 963 l 475 963 l 475 827 m 475 990 l 339 990 l 339 1126 l 475 1126 l 475 990 m 637 176 l 502 176 l 502 312 l 637 312 l 637 176 m 637 339 l 502 339 l 502 475 l 637 475 l 637 339 m 637 502 l 502 502 l 502 637 l 637 637 l 637 502 m 637 665 l 502 665 l 502 800 l 637 800 l 637 665 m 637 827 l 502 827 l 502 963 l 637 963 l 637 827 m 800 339 l 665 339 l 665 475 l 800 475 l 800 339 m 800 502 l 665 502 l 665 637 l 800 637 l 800 502 m 800 665 l 665 665 l 665 800 l 800 800 l 800 665 z "},"A":{"ha":977,"x_min":14,"x_max":800,"o":"m 149 14 l 14 14 l 14 149 l 149 149 l 149 14 m 149 176 l 14 176 l 14 312 l 149 312 l 149 176 m 149 339 l 14 339 l 14 475 l 149 475 l 149 339 m 149 502 l 14 502 l 14 637 l 149 637 l 149 502 m 149 665 l 14 665 l 14 800 l 149 800 l 149 665 m 312 339 l 176 339 l 176 475 l 312 475 l 312 339 m 312 827 l 176 827 l 176 963 l 312 963 l 312 827 m 475 339 l 339 339 l 339 475 l 475 475 l 475 339 m 475 990 l 339 990 l 339 1126 l 475 1126 l 475 990 m 637 339 l 502 339 l 502 475 l 637 475 l 637 339 m 637 827 l 502 827 l 502 963 l 637 963 l 637 827 m 800 14 l 665 14 l 665 149 l 800 149 l 800 14 m 800 176 l 665 176 l 665 312 l 800 312 l 800 176 m 800 339 l 665 339 l 665 475 l 800 475 l 800 339 m 800 502 l 665 502 l 665 637 l 800 637 l 800 502 m 800 665 l 665 665 l 665 800 l 800 800 l 800 665 z "},"a":{"ha":977,"x_min":14,"x_max":800,"o":"m 149 176 l 14 176 l 14 312 l 149 312 l 149 176 m 312 14 l 176 14 l 176 149 l 312 149 l 312 14 m 312 339 l 176 339 l 176 475 l 312 475 l 312 339 m 312 665 l 176 665 l 176 800 l 312 800 l 312 665 m 475 14 l 339 14 l 339 149 l 475 149 l 475 14 m 475 339 l 339 339 l 339 475 l 475 475 l 475 339 m 475 665 l 339 665 l 339 800 l 475 800 l 475 665 m 637 14 l 502 14 l 502 149 l 637 149 l 637 14 m 637 339 l 502 339 l 502 475 l 637 475 l 637 339 m 637 665 l 502 665 l 502 800 l 637 800 l 637 665 m 800 14 l 665 14 l 665 149 l 800 149 l 800 14 m 800 176 l 665 176 l 665 312 l 800 312 l 800 176 m 800 339 l 665 339 l 665 475 l 800 475 l 800 339 m 800 502 l 665 502 l 665 637 l 800 637 l 800 502 z "},"B":{"ha":977,"x_min":14,"x_max":800,"o":"m 149 14 l 14 14 l 14 149 l 149 149 l 149 14 m 149 990 l 14 990 l 14 1126 l 149 1126 l 149 990 m 312 14 l 176 14 l 176 149 l 312 149 l 312 14 m 312 176 l 176 176 l 176 312 l 312 312 l 312 176 m 312 339 l 176 339 l 176 475 l 312 475 l 312 339 m 312 502 l 176 502 l 176 637 l 312 637 l 312 502 m 312 665 l 176 665 l 176 800 l 312 800 l 312 665 m 312 827 l 176 827 l 176 963 l 312 963 l 312 827 m 312 990 l 176 990 l 176 1126 l 312 1126 l 312 990 m 475 14 l 339 14 l 339 149 l 475 149 l 475 14 m 475 502 l 339 502 l 339 637 l 475 637 l 475 502 m 475 990 l 339 990 l 339 1126 l 475 1126 l 475 990 m 637 14 l 502 14 l 502 149 l 637 149 l 637 14 m 637 502 l 502 502 l 502 637 l 637 637 l 637 502 m 637 990 l 502 990 l 502 1126 l 637 1126 l 637 990 m 800 176 l 665 176 l 665 312 l 800 312 l 800 176 m 800 339 l 665 339 l 665 475 l 800 475 l 800 339 m 800 665 l 665 665 l 665 800 l 800 800 l 800 665 m 800 827 l 665 827 l 665 963 l 800 963 l 800 827 z "},"b":{"ha":977,"x_min":14,"x_max":800,"o":"m 149 14 l 14 14 l 14 149 l 149 149 l 149 14 m 149 176 l 14 176 l 14 312 l 149 312 l 149 176 m 149 339 l 14 339 l 14 475 l 149 475 l 149 339 m 149 502 l 14 502 l 14 637 l 149 637 l 149 502 m 149 665 l 14 665 l 14 800 l 149 800 l 149 665 m 149 827 l 14 827 l 14 963 l 149 963 l 149 827 m 149 990 l 14 990 l 14 1126 l 149 1126 l 149 990 m 312 14 l 176 14 l 176 149 l 312 149 l 312 14 m 312 502 l 176 502 l 176 637 l 312 637 l 312 502 m 475 14 l 339 14 l 339 149 l 475 149 l 475 14 m 475 665 l 339 665 l 339 800 l 475 800 l 475 665 m 637 14 l 502 14 l 502 149 l 637 149 l 637 14 m 637 665 l 502 665 l 502 800 l 637 800 l 637 665 m 800 176 l 665 176 l 665 312 l 800 312 l 800 176 m 800 339 l 665 339 l 665 475 l 800 475 l 800 339 m 800 502 l 665 502 l 665 637 l 800 637 l 800 502 z "},"C":{"ha":977,"x_min":14,"x_max":800,"o":"m 149 176 l 14 176 l 14 312 l 149 312 l 149 176 m 149 339 l 14 339 l 14 475 l 149 475 l 149 339 m 149 502 l 14 502 l 14 637 l 149 637 l 149 502 m 149 665 l 14 665 l 14 800 l 149 800 l 149 665 m 149 827 l 14 827 l 14 963 l 149 963 l 149 827 m 312 14 l 176 14 l 176 149 l 312 149 l 312 14 m 312 990 l 176 990 l 176 1126 l 312 1126 l 312 990 m 475 14 l 339 14 l 339 149 l 475 149 l 475 14 m 475 990 l 339 990 l 339 1126 l 475 1126 l 475 990 m 637 14 l 502 14 l 502 149 l 637 149 l 637 14 m 637 990 l 502 990 l 502 1126 l 637 1126 l 637 990 m 800 176 l 665 176 l 665 312 l 800 312 l 800 176 m 800 827 l 665 827 l 665 963 l 800 963 l 800 827 z "},"c":{"ha":977,"x_min":14,"x_max":800,"o":"m 149 176 l 14 176 l 14 312 l 149 312 l 149 176 m 149 339 l 14 339 l 14 475 l 149 475 l 149 339 m 149 502 l 14 502 l 14 637 l 149 637 l 149 502 m 312 14 l 176 14 l 176 149 l 312 149 l 312 14 m 312 665 l 176 665 l 176 800 l 312 800 l 312 665 m 475 14 l 339 14 l 339 149 l 475 149 l 475 14 m 475 665 l 339 665 l 339 800 l 475 800 l 475 665 m 637 14 l 502 14 l 502 149 l 637 149 l 637 14 m 637 665 l 502 665 l 502 800 l 637 800 l 637 665 m 800 176 l 665 176 l 665 312 l 800 312 l 800 176 z "},"D":{"ha":977,"x_min":14,"x_max":800,"o":"m 149 14 l 14 14 l 14 149 l 149 149 l 149 14 m 149 990 l 14 990 l 14 1126 l 149 1126 l 149 990 m 312 14 l 176 14 l 176 149 l 312 149 l 312 14 m 312 176 l 176 176 l 176 312 l 312 312 l 312 176 m 312 339 l 176 339 l 176 475 l 312 475 l 312 339 m 312 502 l 176 502 l 176 637 l 312 637 l 312 502 m 312 665 l 176 665 l 176 800 l 312 800 l 312 665 m 312 827 l 176 827 l 176 963 l 312 963 l 312 827 m 312 990 l 176 990 l 176 1126 l 312 1126 l 312 990 m 475 14 l 339 14 l 339 149 l 475 149 l 475 14 m 475 990 l 339 990 l 339 1126 l 475 1126 l 475 990 m 637 14 l 502 14 l 502 149 l 637 149 l 637 14 m 637 990 l 502 990 l 502 1126 l 637 1126 l 637 990 m 800 176 l 665 176 l 665 312 l 800 312 l 800 176 m 800 339 l 665 339 l 665 475 l 800 475 l 800 339 m 800 502 l 665 502 l 665 637 l 800 637 l 800 502 m 800 665 l 665 665 l 665 800 l 800 800 l 800 665 m 800 827 l 665 827 l 665 963 l 800 963 l 800 827 z "},"d":{"ha":977,"x_min":14,"x_max":800,"o":"m 149 176 l 14 176 l 14 312 l 149 312 l 149 176 m 149 339 l 14 339 l 14 475 l 149 475 l 149 339 m 149 502 l 14 502 l 14 637 l 149 637 l 149 502 m 312 14 l 176 14 l 176 149 l 312 149 l 312 14 m 312 665 l 176 665 l 176 800 l 312 800 l 312 665 m 475 14 l 339 14 l 339 149 l 475 149 l 475 14 m 475 665 l 339 665 l 339 800 l 475 800 l 475 665 m 637 14 l 502 14 l 502 149 l 637 149 l 637 14 m 637 502 l 502 502 l 502 637 l 637 637 l 637 502 m 800 14 l 665 14 l 665 149 l 800 149 l 800 14 m 800 176 l 665 176 l 665 312 l 800 312 l 800 176 m 800 339 l 665 339 l 665 475 l 800 475 l 800 339 m 800 502 l 665 502 l 665 637 l 800 637 l 800 502 m 800 665 l 665 665 l 665 800 l 800 800 l 800 665 m 800 827 l 665 827 l 665 963 l 800 963 l 800 827 m 800 990 l 665 990 l 665 1126 l 800 1126 l 800 990 z "},"E":{"ha":977,"x_min":14,"x_max":800,"o":"m 149 14 l 14 14 l 14 149 l 149 149 l 149 14 m 149 176 l 14 176 l 14 312 l 149 312 l 149 176 m 149 339 l 14 339 l 14 475 l 149 475 l 149 339 m 149 502 l 14 502 l 14 637 l 149 637 l 149 502 m 149 665 l 14 665 l 14 800 l 149 800 l 149 665 m 149 827 l 14 827 l 14 963 l 149 963 l 149 827 m 149 990 l 14 990 l 14 1126 l 149 1126 l 149 990 m 312 14 l 176 14 l 176 149 l 312 149 l 312 14 m 312 502 l 176 502 l 176 637 l 312 637 l 312 502 m 312 990 l 176 990 l 176 1126 l 312 1126 l 312 990 m 475 14 l 339 14 l 339 149 l 475 149 l 475 14 m 475 502 l 339 502 l 339 637 l 475 637 l 475 502 m 475 990 l 339 990 l 339 1126 l 475 1126 l 475 990 m 637 14 l 502 14 l 502 149 l 637 149 l 637 14 m 637 502 l 502 502 l 502 637 l 637 637 l 637 502 m 637 990 l 502 990 l 502 1126 l 637 1126 l 637 990 m 800 14 l 665 14 l 665 149 l 800 149 l 800 14 m 800 990 l 665 990 l 665 1126 l 800 1126 l 800 990 z "},"e":{"ha":977,"x_min":14,"x_max":800,"o":"m 149 176 l 14 176 l 14 312 l 149 312 l 149 176 m 149 339 l 14 339 l 14 475 l 149 475 l 149 339 m 149 502 l 14 502 l 14 637 l 149 637 l 149 502 m 312 14 l 176 14 l 176 149 l 312 149 l 312 14 m 312 339 l 176 339 l 176 475 l 312 475 l 312 339 m 312 665 l 176 665 l 176 800 l 312 800 l 312 665 m 475 14 l 339 14 l 339 149 l 475 149 l 475 14 m 475 339 l 339 339 l 339 475 l 475 475 l 475 339 m 475 665 l 339 665 l 339 800 l 475 800 l 475 665 m 637 14 l 502 14 l 502 149 l 637 149 l 637 14 m 637 339 l 502 339 l 502 475 l 637 475 l 637 339 m 637 665 l 502 665 l 502 800 l 637 800 l 637 665 m 800 339 l 665 339 l 665 475 l 800 475 l 800 339 m 800 502 l 665 502 l 665 637 l 800 637 l 800 502 z "},"F":{"ha":977,"x_min":14,"x_max":800,"o":"m 149 14 l 14 14 l 14 149 l 149 149 l 149 14 m 149 176 l 14 176 l 14 312 l 149 312 l 149 176 m 149 339 l 14 339 l 14 475 l 149 475 l 149 339 m 149 502 l 14 502 l 14 637 l 149 637 l 149 502 m 149 665 l 14 665 l 14 800 l 149 800 l 149 665 m 149 827 l 14 827 l 14 963 l 149 963 l 149 827 m 149 990 l 14 990 l 14 1126 l 149 1126 l 149 990 m 312 502 l 176 502 l 176 637 l 312 637 l 312 502 m 312 990 l 176 990 l 176 1126 l 312 1126 l 312 990 m 475 502 l 339 502 l 339 637 l 475 637 l 475 502 m 475 990 l 339 990 l 339 1126 l 475 1126 l 475 990 m 637 502 l 502 502 l 502 637 l 637 637 l 637 502 m 637 990 l 502 990 l 502 1126 l 637 1126 l 637 990 m 800 990 l 665 990 l 665 1126 l 800 1126 l 800 990 z "},"f":{"ha":977,"x_min":14,"x_max":800,"o":"m 149 502 l 14 502 l 14 637 l 149 637 l 149 502 m 312 14 l 176 14 l 176 149 l 312 149 l 312 14 m 312 176 l 176 176 l 176 312 l 312 312 l 312 176 m 312 339 l 176 339 l 176 475 l 312 475 l 312 339 m 312 502 l 176 502 l 176 637 l 312 637 l 312 502 m 312 665 l 176 665 l 176 800 l 312 800 l 312 665 m 312 827 l 176 827 l 176 963 l 312 963 l 312 827 m 475 502 l 339 502 l 339 637 l 475 637 l 475 502 m 475 990 l 339 990 l 339 1126 l 475 1126 l 475 990 m 637 990 l 502 990 l 502 1126 l 637 1126 l 637 990 m 800 827 l 665 827 l 665 963 l 800 963 l 800 827 z "},"G":{"ha":977,"x_min":14,"x_max":800,"o":"m 149 176 l 14 176 l 14 312 l 149 312 l 149 176 m 149 339 l 14 339 l 14 475 l 149 475 l 149 339 m 149 502 l 14 502 l 14 637 l 149 637 l 149 502 m 149 665 l 14 665 l 14 800 l 149 800 l 149 665 m 149 827 l 14 827 l 14 963 l 149 963 l 149 827 m 312 14 l 176 14 l 176 149 l 312 149 l 312 14 m 312 990 l 176 990 l 176 1126 l 312 1126 l 312 990 m 475 14 l 339 14 l 339 149 l 475 149 l 475 14 m 475 502 l 339 502 l 339 637 l 475 637 l 475 502 m 475 990 l 339 990 l 339 1126 l 475 1126 l 475 990 m 637 14 l 502 14 l 502 149 l 637 149 l 637 14 m 637 502 l 502 502 l 502 637 l 637 637 l 637 502 m 637 990 l 502 990 l 502 1126 l 637 1126 l 637 990 m 800 176 l 665 176 l 665 312 l 800 312 l 800 176 m 800 339 l 665 339 l 665 475 l 800 475 l 800 339 m 800 502 l 665 502 l 665 637 l 800 637 l 800 502 m 800 827 l 665 827 l 665 963 l 800 963 l 800 827 z "},"g":{"ha":977,"x_min":14,"x_max":800,"o":"m 149 502 l 14 502 l 14 637 l 149 637 l 149 502 m 149 665 l 14 665 l 14 800 l 149 800 l 149 665 m 312 14 l 176 14 l 176 149 l 312 149 l 312 14 m 312 339 l 176 339 l 176 475 l 312 475 l 312 339 m 312 827 l 176 827 l 176 963 l 312 963 l 312 827 m 475 14 l 339 14 l 339 149 l 475 149 l 475 14 m 475 339 l 339 339 l 339 475 l 475 475 l 475 339 m 475 827 l 339 827 l 339 963 l 475 963 l 475 827 m 637 14 l 502 14 l 502 149 l 637 149 l 637 14 m 637 339 l 502 339 l 502 475 l 637 475 l 637 339 m 637 827 l 502 827 l 502 963 l 637 963 l 637 827 m 800 176 l 665 176 l 665 312 l 800 312 l 800 176 m 800 339 l 665 339 l 665 475 l 800 475 l 800 339 m 800 502 l 665 502 l 665 637 l 800 637 l 800 502 m 800 665 l 665 665 l 665 800 l 800 800 l 800 665 m 800 827 l 665 827 l 665 963 l 800 963 l 800 827 z "},"H":{"ha":977,"x_min":14,"x_max":800,"o":"m 149 14 l 14 14 l 14 149 l 149 149 l 149 14 m 149 176 l 14 176 l 14 312 l 149 312 l 149 176 m 149 339 l 14 339 l 14 475 l 149 475 l 149 339 m 149 502 l 14 502 l 14 637 l 149 637 l 149 502 m 149 665 l 14 665 l 14 800 l 149 800 l 149 665 m 149 827 l 14 827 l 14 963 l 149 963 l 149 827 m 149 990 l 14 990 l 14 1126 l 149 1126 l 149 990 m 312 502 l 176 502 l 176 637 l 312 637 l 312 502 m 475 502 l 339 502 l 339 637 l 475 637 l 475 502 m 637 502 l 502 502 l 502 637 l 637 637 l 637 502 m 800 14 l 665 14 l 665 149 l 800 149 l 800 14 m 800 176 l 665 176 l 665 312 l 800 312 l 800 176 m 800 339 l 665 339 l 665 475 l 800 475 l 800 339 m 800 502 l 665 502 l 665 637 l 800 637 l 800 502 m 800 665 l 665 665 l 665 800 l 800 800 l 800 665 m 800 827 l 665 827 l 665 963 l 800 963 l 800 827 m 800 990 l 665 990 l 665 1126 l 800 1126 l 800 990 z "},"h":{"ha":977,"x_min":14,"x_max":800,"o":"m 149 14 l 14 14 l 14 149 l 149 149 l 149 14 m 149 176 l 14 176 l 14 312 l 149 312 l 149 176 m 149 339 l 14 339 l 14 475 l 149 475 l 149 339 m 149 502 l 14 502 l 14 637 l 149 637 l 149 502 m 149 665 l 14 665 l 14 800 l 149 800 l 149 665 m 149 827 l 14 827 l 14 963 l 149 963 l 149 827 m 149 990 l 14 990 l 14 1126 l 149 1126 l 149 990 m 312 502 l 176 502 l 176 637 l 312 637 l 312 502 m 475 665 l 339 665 l 339 800 l 475 800 l 475 665 m 637 665 l 502 665 l 502 800 l 637 800 l 637 665 m 800 14 l 665 14 l 665 149 l 800 149 l 800 14 m 800 176 l 665 176 l 665 312 l 800 312 l 800 176 m 800 339 l 665 339 l 665 475 l 800 475 l 800 339 m 800 502 l 665 502 l 665 637 l 800 637 l 800 502 z "},"I":{"ha":977,"x_min":176,"x_max":637,"o":"m 312 14 l 176 14 l 176 149 l 312 149 l 312 14 m 312 990 l 176 990 l 176 1126 l 312 1126 l 312 990 m 475 14 l 339 14 l 339 149 l 475 149 l 475 14 m 475 176 l 339 176 l 339 312 l 475 312 l 475 176 m 475 339 l 339 339 l 339 475 l 475 475 l 475 339 m 475 502 l 339 502 l 339 637 l 475 637 l 475 502 m 475 665 l 339 665 l 339 800 l 475 800 l 475 665 m 475 827 l 339 827 l 339 963 l 475 963 l 475 827 m 475 990 l 339 990 l 339 1126 l 475 1126 l 475 990 m 637 14 l 502 14 l 502 149 l 637 149 l 637 14 m 637 990 l 502 990 l 502 1126 l 637 1126 l 637 990 z "},"i":{"ha":977,"x_min":176,"x_max":637,"o":"m 312 14 l 176 14 l 176 149 l 312 149 l 312 14 m 312 665 l 176 665 l 176 800 l 312 800 l 312 665 m 475 14 l 339 14 l 339 149 l 475 149 l 475 14 m 475 176 l 339 176 l 339 312 l 475 312 l 475 176 m 475 339 l 339 339 l 339 475 l 475 475 l 475 339 m 475 502 l 339 502 l 339 637 l 475 637 l 475 502 m 475 665 l 339 665 l 339 800 l 475 800 l 475 665 m 475 990 l 339 990 l 339 1126 l 475 1126 l 475 990 m 637 14 l 502 14 l 502 149 l 637 149 l 637 14 z "},"J":{"ha":977,"x_min":14,"x_max":800,"o":"m 149 176 l 14 176 l 14 312 l 149 312 l 149 176 m 312 14 l 176 14 l 176 149 l 312 149 l 312 14 m 475 14 l 339 14 l 339 149 l 475 149 l 475 14 m 475 990 l 339 990 l 339 1126 l 475 1126 l 475 990 m 637 176 l 502 176 l 502 312 l 637 312 l 637 176 m 637 339 l 502 339 l 502 475 l 637 475 l 637 339 m 637 502 l 502 502 l 502 637 l 637 637 l 637 502 m 637 665 l 502 665 l 502 800 l 637 800 l 637 665 m 637 827 l 502 827 l 502 963 l 637 963 l 637 827 m 637 990 l 502 990 l 502 1126 l 637 1126 l 637 990 m 800 990 l 665 990 l 665 1126 l 800 1126 l 800 990 z "},"j":{"ha":977,"x_min":14,"x_max":637,"o":"m 149 176 l 14 176 l 14 312 l 149 312 l 149 176 m 312 14 l 176 14 l 176 149 l 312 149 l 312 14 m 475 14 l 339 14 l 339 149 l 475 149 l 475 14 m 475 665 l 339 665 l 339 800 l 475 800 l 475 665 m 637 176 l 502 176 l 502 312 l 637 312 l 637 176 m 637 339 l 502 339 l 502 475 l 637 475 l 637 339 m 637 502 l 502 502 l 502 637 l 637 637 l 637 502 m 637 665 l 502 665 l 502 800 l 637 800 l 637 665 m 637 990 l 502 990 l 502 1126 l 637 1126 l 637 990 z "},"K":{"ha":977,"x_min":14,"x_max":800,"o":"m 149 14 l 14 14 l 14 149 l 149 149 l 149 14 m 149 176 l 14 176 l 14 312 l 149 312 l 149 176 m 149 339 l 14 339 l 14 475 l 149 475 l 149 339 m 149 502 l 14 502 l 14 637 l 149 637 l 149 502 m 149 665 l 14 665 l 14 800 l 149 800 l 149 665 m 149 827 l 14 827 l 14 963 l 149 963 l 149 827 m 149 990 l 14 990 l 14 1126 l 149 1126 l 149 990 m 312 502 l 176 502 l 176 637 l 312 637 l 312 502 m 475 339 l 339 339 l 339 475 l 475 475 l 475 339 m 475 665 l 339 665 l 339 800 l 475 800 l 475 665 m 637 176 l 502 176 l 502 312 l 637 312 l 637 176 m 637 827 l 502 827 l 502 963 l 637 963 l 637 827 m 800 14 l 665 14 l 665 149 l 800 149 l 800 14 m 800 990 l 665 990 l 665 1126 l 800 1126 l 800 990 z "},"k":{"ha":977,"x_min":14,"x_max":637,"o":"m 149 14 l 14 14 l 14 149 l 149 149 l 149 14 m 149 176 l 14 176 l 14 312 l 149 312 l 149 176 m 149 339 l 14 339 l 14 475 l 149 475 l 149 339 m 149 502 l 14 502 l 14 637 l 149 637 l 149 502 m 149 665 l 14 665 l 14 800 l 149 800 l 149 665 m 149 827 l 14 827 l 14 963 l 149 963 l 149 827 m 149 990 l 14 990 l 14 1126 l 149 1126 l 149 990 m 312 339 l 176 339 l 176 475 l 312 475 l 312 339 m 475 176 l 339 176 l 339 312 l 475 312 l 475 176 m 475 502 l 339 502 l 339 637 l 475 637 l 475 502 m 637 14 l 502 14 l 502 149 l 637 149 l 637 14 m 637 665 l 502 665 l 502 800 l 637 800 l 637 665 z "},"L":{"ha":977,"x_min":14,"x_max":800,"o":"m 149 14 l 14 14 l 14 149 l 149 149 l 149 14 m 149 176 l 14 176 l 14 312 l 149 312 l 149 176 m 149 339 l 14 339 l 14 475 l 149 475 l 149 339 m 149 502 l 14 502 l 14 637 l 149 637 l 149 502 m 149 665 l 14 665 l 14 800 l 149 800 l 149 665 m 149 827 l 14 827 l 14 963 l 149 963 l 149 827 m 149 990 l 14 990 l 14 1126 l 149 1126 l 149 990 m 312 14 l 176 14 l 176 149 l 312 149 l 312 14 m 475 14 l 339 14 l 339 149 l 475 149 l 475 14 m 637 14 l 502 14 l 502 149 l 637 149 l 637 14 m 800 14 l 665 14 l 665 149 l 800 149 l 800 14 z "},"l":{"ha":977,"x_min":176,"x_max":637,"o":"m 312 14 l 176 14 l 176 149 l 312 149 l 312 14 m 312 990 l 176 990 l 176 1126 l 312 1126 l 312 990 m 475 14 l 339 14 l 339 149 l 475 149 l 475 14 m 475 176 l 339 176 l 339 312 l 475 312 l 475 176 m 475 339 l 339 339 l 339 475 l 475 475 l 475 339 m 475 502 l 339 502 l 339 637 l 475 637 l 475 502 m 475 665 l 339 665 l 339 800 l 475 800 l 475 665 m 475 827 l 339 827 l 339 963 l 475 963 l 475 827 m 475 990 l 339 990 l 339 1126 l 475 1126 l 475 990 m 637 14 l 502 14 l 502 149 l 637 149 l 637 14 z "},"M":{"ha":977,"x_min":14,"x_max":800,"o":"m 149 14 l 14 14 l 14 149 l 149 149 l 149 14 m 149 176 l 14 176 l 14 312 l 149 312 l 149 176 m 149 339 l 14 339 l 14 475 l 149 475 l 149 339 m 149 502 l 14 502 l 14 637 l 149 637 l 149 502 m 149 665 l 14 665 l 14 800 l 149 800 l 149 665 m 149 827 l 14 827 l 14 963 l 149 963 l 149 827 m 149 990 l 14 990 l 14 1126 l 149 1126 l 149 990 m 312 827 l 176 827 l 176 963 l 312 963 l 312 827 m 475 502 l 339 502 l 339 637 l 475 637 l 475 502 m 475 665 l 339 665 l 339 800 l 475 800 l 475 665 m 637 827 l 502 827 l 502 963 l 637 963 l 637 827 m 800 14 l 665 14 l 665 149 l 800 149 l 800 14 m 800 176 l 665 176 l 665 312 l 800 312 l 800 176 m 800 339 l 665 339 l 665 475 l 800 475 l 800 339 m 800 502 l 665 502 l 665 637 l 800 637 l 800 502 m 800 665 l 665 665 l 665 800 l 800 800 l 800 665 m 800 827 l 665 827 l 665 963 l 800 963 l 800 827 m 800 990 l 665 990 l 665 1126 l 800 1126 l 800 990 z "},"m":{"ha":977,"x_min":14,"x_max":800,"o":"m 149 14 l 14 14 l 14 149 l 149 149 l 149 14 m 149 176 l 14 176 l 14 312 l 149 312 l 149 176 m 149 339 l 14 339 l 14 475 l 149 475 l 149 339 m 149 502 l 14 502 l 14 637 l 149 637 l 149 502 m 149 665 l 14 665 l 14 800 l 149 800 l 149 665 m 312 665 l 176 665 l 176 800 l 312 800 l 312 665 m 475 14 l 339 14 l 339 149 l 475 149 l 475 14 m 475 176 l 339 176 l 339 312 l 475 312 l 475 176 m 475 339 l 339 339 l 339 475 l 475 475 l 475 339 m 475 502 l 339 502 l 339 637 l 475 637 l 475 502 m 637 665 l 502 665 l 502 800 l 637 800 l 637 665 m 800 14 l 665 14 l 665 149 l 800 149 l 800 14 m 800 176 l 665 176 l 665 312 l 800 312 l 800 176 m 800 339 l 665 339 l 665 475 l 800 475 l 800 339 m 800 502 l 665 502 l 665 637 l 800 637 l 800 502 z "},"N":{"ha":977,"x_min":14,"x_max":800,"o":"m 149 14 l 14 14 l 14 149 l 149 149 l 149 14 m 149 176 l 14 176 l 14 312 l 149 312 l 149 176 m 149 339 l 14 339 l 14 475 l 149 475 l 149 339 m 149 502 l 14 502 l 14 637 l 149 637 l 149 502 m 149 665 l 14 665 l 14 800 l 149 800 l 149 665 m 149 827 l 14 827 l 14 963 l 149 963 l 149 827 m 149 990 l 14 990 l 14 1126 l 149 1126 l 149 990 m 312 665 l 176 665 l 176 800 l 312 800 l 312 665 m 475 502 l 339 502 l 339 637 l 475 637 l 475 502 m 637 339 l 502 339 l 502 475 l 637 475 l 637 339 m 800 14 l 665 14 l 665 149 l 800 149 l 800 14 m 800 176 l 665 176 l 665 312 l 800 312 l 800 176 m 800 339 l 665 339 l 665 475 l 800 475 l 800 339 m 800 502 l 665 502 l 665 637 l 800 637 l 800 502 m 800 665 l 665 665 l 665 800 l 800 800 l 800 665 m 800 827 l 665 827 l 665 963 l 800 963 l 800 827 m 800 990 l 665 990 l 665 1126 l 800 1126 l 800 990 z "},"n":{"ha":977,"x_min":14,"x_max":800,"o":"m 149 14 l 14 14 l 14 149 l 149 149 l 149 14 m 149 176 l 14 176 l 14 312 l 149 312 l 149 176 m 149 339 l 14 339 l 14 475 l 149 475 l 149 339 m 149 502 l 14 502 l 14 637 l 149 637 l 149 502 m 149 665 l 14 665 l 14 800 l 149 800 l 149 665 m 312 502 l 176 502 l 176 637 l 312 637 l 312 502 m 475 665 l 339 665 l 339 800 l 475 800 l 475 665 m 637 665 l 502 665 l 502 800 l 637 800 l 637 665 m 800 14 l 665 14 l 665 149 l 800 149 l 800 14 m 800 176 l 665 176 l 665 312 l 800 312 l 800 176 m 800 339 l 665 339 l 665 475 l 800 475 l 800 339 m 800 502 l 665 502 l 665 637 l 800 637 l 800 502 z "},"O":{"ha":977,"x_min":14,"x_max":800,"o":"m 149 176 l 14 176 l 14 312 l 149 312 l 149 176 m 149 339 l 14 339 l 14 475 l 149 475 l 149 339 m 149 502 l 14 502 l 14 637 l 149 637 l 149 502 m 149 665 l 14 665 l 14 800 l 149 800 l 149 665 m 149 827 l 14 827 l 14 963 l 149 963 l 149 827 m 312 14 l 176 14 l 176 149 l 312 149 l 312 14 m 312 990 l 176 990 l 176 1126 l 312 1126 l 312 990 m 475 14 l 339 14 l 339 149 l 475 149 l 475 14 m 475 990 l 339 990 l 339 1126 l 475 1126 l 475 990 m 637 14 l 502 14 l 502 149 l 637 149 l 637 14 m 637 990 l 502 990 l 502 1126 l 637 1126 l 637 990 m 800 176 l 665 176 l 665 312 l 800 312 l 800 176 m 800 339 l 665 339 l 665 475 l 800 475 l 800 339 m 800 502 l 665 502 l 665 637 l 800 637 l 800 502 m 800 665 l 665 665 l 665 800 l 800 800 l 800 665 m 800 827 l 665 827 l 665 963 l 800 963 l 800 827 z "},"o":{"ha":977,"x_min":14,"x_max":800,"o":"m 149 176 l 14 176 l 14 312 l 149 312 l 149 176 m 149 339 l 14 339 l 14 475 l 149 475 l 149 339 m 149 502 l 14 502 l 14 637 l 149 637 l 149 502 m 312 14 l 176 14 l 176 149 l 312 149 l 312 14 m 312 665 l 176 665 l 176 800 l 312 800 l 312 665 m 475 14 l 339 14 l 339 149 l 475 149 l 475 14 m 475 665 l 339 665 l 339 800 l 475 800 l 475 665 m 637 14 l 502 14 l 502 149 l 637 149 l 637 14 m 637 665 l 502 665 l 502 800 l 637 800 l 637 665 m 800 176 l 665 176 l 665 312 l 800 312 l 800 176 m 800 339 l 665 339 l 665 475 l 800 475 l 800 339 m 800 502 l 665 502 l 665 637 l 800 637 l 800 502 z "},"P":{"ha":977,"x_min":14,"x_max":800,"o":"m 149 14 l 14 14 l 14 149 l 149 149 l 149 14 m 149 176 l 14 176 l 14 312 l 149 312 l 149 176 m 149 339 l 14 339 l 14 475 l 149 475 l 149 339 m 149 502 l 14 502 l 14 637 l 149 637 l 149 502 m 149 665 l 14 665 l 14 800 l 149 800 l 149 665 m 149 827 l 14 827 l 14 963 l 149 963 l 149 827 m 149 990 l 14 990 l 14 1126 l 149 1126 l 149 990 m 312 502 l 176 502 l 176 637 l 312 637 l 312 502 m 312 990 l 176 990 l 176 1126 l 312 1126 l 312 990 m 475 502 l 339 502 l 339 637 l 475 637 l 475 502 m 475 990 l 339 990 l 339 1126 l 475 1126 l 475 990 m 637 502 l 502 502 l 502 637 l 637 637 l 637 502 m 637 990 l 502 990 l 502 1126 l 637 1126 l 637 990 m 800 665 l 665 665 l 665 800 l 800 800 l 800 665 m 800 827 l 665 827 l 665 963 l 800 963 l 800 827 z "},"p":{"ha":977,"x_min":14,"x_max":800,"o":"m 149 14 l 14 14 l 14 149 l 149 149 l 149 14 m 149 176 l 14 176 l 14 312 l 149 312 l 149 176 m 149 339 l 14 339 l 14 475 l 149 475 l 149 339 m 149 502 l 14 502 l 14 637 l 149 637 l 149 502 m 149 665 l 14 665 l 14 800 l 149 800 l 149 665 m 312 339 l 176 339 l 176 475 l 312 475 l 312 339 m 312 665 l 176 665 l 176 800 l 312 800 l 312 665 m 475 339 l 339 339 l 339 475 l 475 475 l 475 339 m 475 665 l 339 665 l 339 800 l 475 800 l 475 665 m 637 339 l 502 339 l 502 475 l 637 475 l 637 339 m 637 665 l 502 665 l 502 800 l 637 800 l 637 665 m 800 502 l 665 502 l 665 637 l 800 637 l 800 502 z "},"Q":{"ha":977,"x_min":14,"x_max":800,"o":"m 149 176 l 14 176 l 14 312 l 149 312 l 149 176 m 149 339 l 14 339 l 14 475 l 149 475 l 149 339 m 149 502 l 14 502 l 14 637 l 149 637 l 149 502 m 149 665 l 14 665 l 14 800 l 149 800 l 149 665 m 149 827 l 14 827 l 14 963 l 149 963 l 149 827 m 312 14 l 176 14 l 176 149 l 312 149 l 312 14 m 312 990 l 176 990 l 176 1126 l 312 1126 l 312 990 m 475 14 l 339 14 l 339 149 l 475 149 l 475 14 m 475 339 l 339 339 l 339 475 l 475 475 l 475 339 m 475 990 l 339 990 l 339 1126 l 475 1126 l 475 990 m 637 176 l 502 176 l 502 312 l 637 312 l 637 176 m 637 990 l 502 990 l 502 1126 l 637 1126 l 637 990 m 800 14 l 665 14 l 665 149 l 800 149 l 800 14 m 800 339 l 665 339 l 665 475 l 800 475 l 800 339 m 800 502 l 665 502 l 665 637 l 800 637 l 800 502 m 800 665 l 665 665 l 665 800 l 800 800 l 800 665 m 800 827 l 665 827 l 665 963 l 800 963 l 800 827 z "},"q":{"ha":977,"x_min":14,"x_max":800,"o":"m 149 502 l 14 502 l 14 637 l 149 637 l 149 502 m 312 339 l 176 339 l 176 475 l 312 475 l 312 339 m 312 665 l 176 665 l 176 800 l 312 800 l 312 665 m 475 339 l 339 339 l 339 475 l 475 475 l 475 339 m 475 665 l 339 665 l 339 800 l 475 800 l 475 665 m 637 339 l 502 339 l 502 475 l 637 475 l 637 339 m 637 665 l 502 665 l 502 800 l 637 800 l 637 665 m 800 14 l 665 14 l 665 149 l 800 149 l 800 14 m 800 176 l 665 176 l 665 312 l 800 312 l 800 176 m 800 339 l 665 339 l 665 475 l 800 475 l 800 339 m 800 502 l 665 502 l 665 637 l 800 637 l 800 502 m 800 665 l 665 665 l 665 800 l 800 800 l 800 665 z "},"R":{"ha":977,"x_min":14,"x_max":800,"o":"m 149 14 l 14 14 l 14 149 l 149 149 l 149 14 m 149 176 l 14 176 l 14 312 l 149 312 l 149 176 m 149 339 l 14 339 l 14 475 l 149 475 l 149 339 m 149 502 l 14 502 l 14 637 l 149 637 l 149 502 m 149 665 l 14 665 l 14 800 l 149 800 l 149 665 m 149 827 l 14 827 l 14 963 l 149 963 l 149 827 m 149 990 l 14 990 l 14 1126 l 149 1126 l 149 990 m 312 502 l 176 502 l 176 637 l 312 637 l 312 502 m 312 990 l 176 990 l 176 1126 l 312 1126 l 312 990 m 475 339 l 339 339 l 339 475 l 475 475 l 475 339 m 475 502 l 339 502 l 339 637 l 475 637 l 475 502 m 475 990 l 339 990 l 339 1126 l 475 1126 l 475 990 m 637 176 l 502 176 l 502 312 l 637 312 l 637 176 m 637 502 l 502 502 l 502 637 l 637 637 l 637 502 m 637 990 l 502 990 l 502 1126 l 637 1126 l 637 990 m 800 14 l 665 14 l 665 149 l 800 149 l 800 14 m 800 665 l 665 665 l 665 800 l 800 800 l 800 665 m 800 827 l 665 827 l 665 963 l 800 963 l 800 827 z "},"r":{"ha":977,"x_min":14,"x_max":800,"o":"m 149 14 l 14 14 l 14 149 l 149 149 l 149 14 m 149 176 l 14 176 l 14 312 l 149 312 l 149 176 m 149 339 l 14 339 l 14 475 l 149 475 l 149 339 m 149 502 l 14 502 l 14 637 l 149 637 l 149 502 m 149 665 l 14 665 l 14 800 l 149 800 l 149 665 m 312 502 l 176 502 l 176 637 l 312 637 l 312 502 m 475 665 l 339 665 l 339 800 l 475 800 l 475 665 m 637 665 l 502 665 l 502 800 l 637 800 l 637 665 m 800 502 l 665 502 l 665 637 l 800 637 l 800 502 z "},"S":{"ha":977,"x_min":14,"x_max":800,"o":"m 149 176 l 14 176 l 14 312 l 149 312 l 149 176 m 149 665 l 14 665 l 14 800 l 149 800 l 149 665 m 149 827 l 14 827 l 14 963 l 149 963 l 149 827 m 312 14 l 176 14 l 176 149 l 312 149 l 312 14 m 312 502 l 176 502 l 176 637 l 312 637 l 312 502 m 312 990 l 176 990 l 176 1126 l 312 1126 l 312 990 m 475 14 l 339 14 l 339 149 l 475 149 l 475 14 m 475 502 l 339 502 l 339 637 l 475 637 l 475 502 m 475 990 l 339 990 l 339 1126 l 475 1126 l 475 990 m 637 14 l 502 14 l 502 149 l 637 149 l 637 14 m 637 502 l 502 502 l 502 637 l 637 637 l 637 502 m 637 990 l 502 990 l 502 1126 l 637 1126 l 637 990 m 800 176 l 665 176 l 665 312 l 800 312 l 800 176 m 800 339 l 665 339 l 665 475 l 800 475 l 800 339 m 800 827 l 665 827 l 665 963 l 800 963 l 800 827 z "},"s":{"ha":977,"x_min":14,"x_max":800,"o":"m 149 14 l 14 14 l 14 149 l 149 149 l 149 14 m 149 502 l 14 502 l 14 637 l 149 637 l 149 502 m 312 14 l 176 14 l 176 149 l 312 149 l 312 14 m 312 339 l 176 339 l 176 475 l 312 475 l 312 339 m 312 665 l 176 665 l 176 800 l 312 800 l 312 665 m 475 14 l 339 14 l 339 149 l 475 149 l 475 14 m 475 339 l 339 339 l 339 475 l 475 475 l 475 339 m 475 665 l 339 665 l 339 800 l 475 800 l 475 665 m 637 14 l 502 14 l 502 149 l 637 149 l 637 14 m 637 339 l 502 339 l 502 475 l 637 475 l 637 339 m 637 665 l 502 665 l 502 800 l 637 800 l 637 665 m 800 176 l 665 176 l 665 312 l 800 312 l 800 176 z "},"T":{"ha":977,"x_min":14,"x_max":800,"o":"m 149 990 l 14 990 l 14 1126 l 149 1126 l 149 990 m 312 990 l 176 990 l 176 1126 l 312 1126 l 312 990 m 475 14 l 339 14 l 339 149 l 475 149 l 475 14 m 475 176 l 339 176 l 339 312 l 475 312 l 475 176 m 475 339 l 339 339 l 339 475 l 475 475 l 475 339 m 475 502 l 339 502 l 339 637 l 475 637 l 475 502 m 475 665 l 339 665 l 339 800 l 475 800 l 475 665 m 475 827 l 339 827 l 339 963 l 475 963 l 475 827 m 475 990 l 339 990 l 339 1126 l 475 1126 l 475 990 m 637 990 l 502 990 l 502 1126 l 637 1126 l 637 990 m 800 990 l 665 990 l 665 1126 l 800 1126 l 800 990 z "},"t":{"ha":977,"x_min":14,"x_max":800,"o":"m 149 665 l 14 665 l 14 800 l 149 800 l 149 665 m 312 176 l 176 176 l 176 312 l 312 312 l 312 176 m 312 339 l 176 339 l 176 475 l 312 475 l 312 339 m 312 502 l 176 502 l 176 637 l 312 637 l 312 502 m 312 665 l 176 665 l 176 800 l 312 800 l 312 665 m 312 827 l 176 827 l 176 963 l 312 963 l 312 827 m 312 990 l 176 990 l 176 1126 l 312 1126 l 312 990 m 475 14 l 339 14 l 339 149 l 475 149 l 475 14 m 475 665 l 339 665 l 339 800 l 475 800 l 475 665 m 637 14 l 502 14 l 502 149 l 637 149 l 637 14 m 800 176 l 665 176 l 665 312 l 800 312 l 800 176 z "},"U":{"ha":977,"x_min":14,"x_max":800,"o":"m 149 176 l 14 176 l 14 312 l 149 312 l 149 176 m 149 339 l 14 339 l 14 475 l 149 475 l 149 339 m 149 502 l 14 502 l 14 637 l 149 637 l 149 502 m 149 665 l 14 665 l 14 800 l 149 800 l 149 665 m 149 827 l 14 827 l 14 963 l 149 963 l 149 827 m 149 990 l 14 990 l 14 1126 l 149 1126 l 149 990 m 312 14 l 176 14 l 176 149 l 312 149 l 312 14 m 475 14 l 339 14 l 339 149 l 475 149 l 475 14 m 637 14 l 502 14 l 502 149 l 637 149 l 637 14 m 800 176 l 665 176 l 665 312 l 800 312 l 800 176 m 800 339 l 665 339 l 665 475 l 800 475 l 800 339 m 800 502 l 665 502 l 665 637 l 800 637 l 800 502 m 800 665 l 665 665 l 665 800 l 800 800 l 800 665 m 800 827 l 665 827 l 665 963 l 800 963 l 800 827 m 800 990 l 665 990 l 665 1126 l 800 1126 l 800 990 z "},"u":{"ha":977,"x_min":14,"x_max":800,"o":"m 149 176 l 14 176 l 14 312 l 149 312 l 149 176 m 149 339 l 14 339 l 14 475 l 149 475 l 149 339 m 149 502 l 14 502 l 14 637 l 149 637 l 149 502 m 149 665 l 14 665 l 14 800 l 149 800 l 149 665 m 312 14 l 176 14 l 176 149 l 312 149 l 312 14 m 475 14 l 339 14 l 339 149 l 475 149 l 475 14 m 637 176 l 502 176 l 502 312 l 637 312 l 637 176 m 800 14 l 665 14 l 665 149 l 800 149 l 800 14 m 800 176 l 665 176 l 665 312 l 800 312 l 800 176 m 800 339 l 665 339 l 665 475 l 800 475 l 800 339 m 800 502 l 665 502 l 665 637 l 800 637 l 800 502 m 800 665 l 665 665 l 665 800 l 800 800 l 800 665 z "},"V":{"ha":977,"x_min":14,"x_max":800,"o":"m 149 339 l 14 339 l 14 475 l 149 475 l 149 339 m 149 502 l 14 502 l 14 637 l 149 637 l 149 502 m 149 665 l 14 665 l 14 800 l 149 800 l 149 665 m 149 827 l 14 827 l 14 963 l 149 963 l 149 827 m 149 990 l 14 990 l 14 1126 l 149 1126 l 149 990 m 312 176 l 176 176 l 176 312 l 312 312 l 312 176 m 475 14 l 339 14 l 339 149 l 475 149 l 475 14 m 637 176 l 502 176 l 502 312 l 637 312 l 637 176 m 800 339 l 665 339 l 665 475 l 800 475 l 800 339 m 800 502 l 665 502 l 665 637 l 800 637 l 800 502 m 800 665 l 665 665 l 665 800 l 800 800 l 800 665 m 800 827 l 665 827 l 665 963 l 800 963 l 800 827 m 800 990 l 665 990 l 665 1126 l 800 1126 l 800 990 z "},"v":{"ha":977,"x_min":14,"x_max":800,"o":"m 149 339 l 14 339 l 14 475 l 149 475 l 149 339 m 149 502 l 14 502 l 14 637 l 149 637 l 149 502 m 149 665 l 14 665 l 14 800 l 149 800 l 149 665 m 312 176 l 176 176 l 176 312 l 312 312 l 312 176 m 475 14 l 339 14 l 339 149 l 475 149 l 475 14 m 637 176 l 502 176 l 502 312 l 637 312 l 637 176 m 800 339 l 665 339 l 665 475 l 800 475 l 800 339 m 800 502 l 665 502 l 665 637 l 800 637 l 800 502 m 800 665 l 665 665 l 665 800 l 800 800 l 800 665 z "},"W":{"ha":977,"x_min":14,"x_max":800,"o":"m 149 176 l 14 176 l 14 312 l 149 312 l 149 176 m 149 339 l 14 339 l 14 475 l 149 475 l 149 339 m 149 502 l 14 502 l 14 637 l 149 637 l 149 502 m 149 665 l 14 665 l 14 800 l 149 800 l 149 665 m 149 827 l 14 827 l 14 963 l 149 963 l 149 827 m 149 990 l 14 990 l 14 1126 l 149 1126 l 149 990 m 312 14 l 176 14 l 176 149 l 312 149 l 312 14 m 475 176 l 339 176 l 339 312 l 475 312 l 475 176 m 475 339 l 339 339 l 339 475 l 475 475 l 475 339 m 475 502 l 339 502 l 339 637 l 475 637 l 475 502 m 637 14 l 502 14 l 502 149 l 637 149 l 637 14 m 800 176 l 665 176 l 665 312 l 800 312 l 800 176 m 800 339 l 665 339 l 665 475 l 800 475 l 800 339 m 800 502 l 665 502 l 665 637 l 800 637 l 800 502 m 800 665 l 665 665 l 665 800 l 800 800 l 800 665 m 800 827 l 665 827 l 665 963 l 800 963 l 800 827 m 800 990 l 665 990 l 665 1126 l 800 1126 l 800 990 z "},"w":{"ha":977,"x_min":14,"x_max":800,"o":"m 149 176 l 14 176 l 14 312 l 149 312 l 149 176 m 149 339 l 14 339 l 14 475 l 149 475 l 149 339 m 149 502 l 14 502 l 14 637 l 149 637 l 149 502 m 149 665 l 14 665 l 14 800 l 149 800 l 149 665 m 312 14 l 176 14 l 176 149 l 312 149 l 312 14 m 475 176 l 339 176 l 339 312 l 475 312 l 475 176 m 475 339 l 339 339 l 339 475 l 475 475 l 475 339 m 637 14 l 502 14 l 502 149 l 637 149 l 637 14 m 800 176 l 665 176 l 665 312 l 800 312 l 800 176 m 800 339 l 665 339 l 665 475 l 800 475 l 800 339 m 800 502 l 665 502 l 665 637 l 800 637 l 800 502 m 800 665 l 665 665 l 665 800 l 800 800 l 800 665 z "},"X":{"ha":977,"x_min":14,"x_max":800,"o":"m 149 14 l 14 14 l 14 149 l 149 149 l 149 14 m 149 176 l 14 176 l 14 312 l 149 312 l 149 176 m 149 827 l 14 827 l 14 963 l 149 963 l 149 827 m 149 990 l 14 990 l 14 1126 l 149 1126 l 149 990 m 312 339 l 176 339 l 176 475 l 312 475 l 312 339 m 312 665 l 176 665 l 176 800 l 312 800 l 312 665 m 475 502 l 339 502 l 339 637 l 475 637 l 475 502 m 637 339 l 502 339 l 502 475 l 637 475 l 637 339 m 637 665 l 502 665 l 502 800 l 637 800 l 637 665 m 800 14 l 665 14 l 665 149 l 800 149 l 800 14 m 800 176 l 665 176 l 665 312 l 800 312 l 800 176 m 800 827 l 665 827 l 665 963 l 800 963 l 800 827 m 800 990 l 665 990 l 665 1126 l 800 1126 l 800 990 z "},"x":{"ha":977,"x_min":14,"x_max":800,"o":"m 149 14 l 14 14 l 14 149 l 149 149 l 149 14 m 149 665 l 14 665 l 14 800 l 149 800 l 149 665 m 312 176 l 176 176 l 176 312 l 312 312 l 312 176 m 312 502 l 176 502 l 176 637 l 312 637 l 312 502 m 475 339 l 339 339 l 339 475 l 475 475 l 475 339 m 637 176 l 502 176 l 502 312 l 637 312 l 637 176 m 637 502 l 502 502 l 502 637 l 637 637 l 637 502 m 800 14 l 665 14 l 665 149 l 800 149 l 800 14 m 800 665 l 665 665 l 665 800 l 800 800 l 800 665 z "},"Y":{"ha":977,"x_min":14,"x_max":800,"o":"m 149 827 l 14 827 l 14 963 l 149 963 l 149 827 m 149 990 l 14 990 l 14 1126 l 149 1126 l 149 990 m 312 665 l 176 665 l 176 800 l 312 800 l 312 665 m 475 14 l 339 14 l 339 149 l 475 149 l 475 14 m 475 176 l 339 176 l 339 312 l 475 312 l 475 176 m 475 339 l 339 339 l 339 475 l 475 475 l 475 339 m 475 502 l 339 502 l 339 637 l 475 637 l 475 502 m 637 665 l 502 665 l 502 800 l 637 800 l 637 665 m 800 827 l 665 827 l 665 963 l 800 963 l 800 827 m 800 990 l 665 990 l 665 1126 l 800 1126 l 800 990 z "},"y":{"ha":977,"x_min":14,"x_max":800,"o":"m 149 502 l 14 502 l 14 637 l 149 637 l 149 502 m 149 665 l 14 665 l 14 800 l 149 800 l 149 665 m 312 14 l 176 14 l 176 149 l 312 149 l 312 14 m 312 339 l 176 339 l 176 475 l 312 475 l 312 339 m 475 14 l 339 14 l 339 149 l 475 149 l 475 14 m 475 339 l 339 339 l 339 475 l 475 475 l 475 339 m 637 14 l 502 14 l 502 149 l 637 149 l 637 14 m 637 339 l 502 339 l 502 475 l 637 475 l 637 339 m 800 176 l 665 176 l 665 312 l 800 312 l 800 176 m 800 339 l 665 339 l 665 475 l 800 475 l 800 339 m 800 502 l 665 502 l 665 637 l 800 637 l 800 502 m 800 665 l 665 665 l 665 800 l 800 800 l 800 665 z "},"Z":{"ha":977,"x_min":14,"x_max":800,"o":"m 149 14 l 14 14 l 14 149 l 149 149 l 149 14 m 149 176 l 14 176 l 14 312 l 149 312 l 149 176 m 149 990 l 14 990 l 14 1126 l 149 1126 l 149 990 m 312 14 l 176 14 l 176 149 l 312 149 l 312 14 m 312 339 l 176 339 l 176 475 l 312 475 l 312 339 m 312 990 l 176 990 l 176 1126 l 312 1126 l 312 990 m 475 14 l 339 14 l 339 149 l 475 149 l 475 14 m 475 502 l 339 502 l 339 637 l 475 637 l 475 502 m 475 990 l 339 990 l 339 1126 l 475 1126 l 475 990 m 637 14 l 502 14 l 502 149 l 637 149 l 637 14 m 637 665 l 502 665 l 502 800 l 637 800 l 637 665 m 637 990 l 502 990 l 502 1126 l 637 1126 l 637 990 m 800 14 l 665 14 l 665 149 l 800 149 l 800 14 m 800 827 l 665 827 l 665 963 l 800 963 l 800 827 m 800 990 l 665 990 l 665 1126 l 800 1126 l 800 990 z "},"z":{"ha":977,"x_min":14,"x_max":800,"o":"m 149 14 l 14 14 l 14 149 l 149 149 l 149 14 m 149 665 l 14 665 l 14 800 l 149 800 l 149 665 m 312 14 l 176 14 l 176 149 l 312 149 l 312 14 m 312 176 l 176 176 l 176 312 l 312 312 l 312 176 m 312 665 l 176 665 l 176 800 l 312 800 l 312 665 m 475 14 l 339 14 l 339 149 l 475 149 l 475 14 m 475 339 l 339 339 l 339 475 l 475 475 l 475 339 m 475 665 l 339 665 l 339 800 l 475 800 l 475 665 m 637 14 l 502 14 l 502 149 l 637 149 l 637 14 m 637 502 l 502 502 l 502 637 l 637 637 l 637 502 m 637 665 l 502 665 l 502 800 l 637 800 l 637 665 m 800 14 l 665 14 l 665 149 l 800 149 l 800 14 m 800 665 l 665 665 l 665 800 l 800 800 l 800 665 z "},".":{"ha":977,"x_min":176,"x_max":475,"o":"m 312 14 l 176 14 l 176 149 l 312 149 l 312 14 m 312 176 l 176 176 l 176 312 l 312 312 l 312 176 m 475 14 l 339 14 l 339 149 l 475 149 l 475 14 m 475 176 l 339 176 l 339 312 l 475 312 l 475 176 z "},":":{"ha":977,"x_min":176,"x_max":475,"o":"m 312 176 l 176 176 l 176 312 l 312 312 l 312 176 m 312 339 l 176 339 l 176 475 l 312 475 l 312 339 m 312 665 l 176 665 l 176 800 l 312 800 l 312 665 m 312 827 l 176 827 l 176 963 l 312 963 l 312 827 m 475 176 l 339 176 l 339 312 l 475 312 l 475 176 m 475 339 l 339 339 l 339 475 l 475 475 l 475 339 m 475 665 l 339 665 l 339 800 l 475 800 l 475 665 m 475 827 l 339 827 l 339 963 l 475 963 l 475 827 z "},",":{"ha":977,"x_min":176,"x_max":475,"o":"m 312 14 l 176 14 l 176 149 l 312 149 l 312 14 m 312 339 l 176 339 l 176 475 l 312 475 l 312 339 m 475 176 l 339 176 l 339 312 l 475 312 l 475 176 m 475 339 l 339 339 l 339 475 l 475 475 l 475 339 z "},";":{"ha":977,"x_min":176,"x_max":475,"o":"m 312 14 l 176 14 l 176 149 l 312 149 l 312 14 m 312 339 l 176 339 l 176 475 l 312 475 l 312 339 m 312 665 l 176 665 l 176 800 l 312 800 l 312 665 m 312 827 l 176 827 l 176 963 l 312 963 l 312 827 m 475 176 l 339 176 l 339 312 l 475 312 l 475 176 m 475 339 l 339 339 l 339 475 l 475 475 l 475 339 m 475 665 l 339 665 l 339 800 l 475 800 l 475 665 m 475 827 l 339 827 l 339 963 l 475 963 l 475 827 z "},"'":{"ha":977,"x_min":176,"x_max":475,"o":"m 312 665 l 176 665 l 176 800 l 312 800 l 312 665 m 312 990 l 176 990 l 176 1126 l 312 1126 l 312 990 m 475 827 l 339 827 l 339 963 l 475 963 l 475 827 m 475 990 l 339 990 l 339 1126 l 475 1126 l 475 990 z "},"\"":{"ha":977,"x_min":176,"x_max":637,"o":"m 312 665 l 176 665 l 176 800 l 312 800 l 312 665 m 312 827 l 176 827 l 176 963 l 312 963 l 312 827 m 312 990 l 176 990 l 176 1126 l 312 1126 l 312 990 m 637 665 l 502 665 l 502 800 l 637 800 l 637 665 m 637 827 l 502 827 l 502 963 l 637 963 l 637 827 m 637 990 l 502 990 l 502 1126 l 637 1126 l 637 990 z "},"(":{"ha":977,"x_min":176,"x_max":637,"o":"m 312 339 l 176 339 l 176 475 l 312 475 l 312 339 m 312 502 l 176 502 l 176 637 l 312 637 l 312 502 m 312 665 l 176 665 l 176 800 l 312 800 l 312 665 m 475 176 l 339 176 l 339 312 l 475 312 l 475 176 m 475 827 l 339 827 l 339 963 l 475 963 l 475 827 m 637 14 l 502 14 l 502 149 l 637 149 l 637 14 m 637 990 l 502 990 l 502 1126 l 637 1126 l 637 990 z "},"!":{"ha":977,"x_min":339,"x_max":475,"o":"m 475 14 l 339 14 l 339 149 l 475 149 l 475 14 m 475 502 l 339 502 l 339 637 l 475 637 l 475 502 m 475 665 l 339 665 l 339 800 l 475 800 l 475 665 m 475 827 l 339 827 l 339 963 l 475 963 l 475 827 m 475 990 l 339 990 l 339 1126 l 475 1126 l 475 990 z "},"?":{"ha":977,"x_min":14,"x_max":800,"o":"m 149 827 l 14 827 l 14 963 l 149 963 l 149 827 m 312 990 l 176 990 l 176 1126 l 312 1126 l 312 990 m 475 14 l 339 14 l 339 149 l 475 149 l 475 14 m 475 339 l 339 339 l 339 475 l 475 475 l 475 339 m 475 990 l 339 990 l 339 1126 l 475 1126 l 475 990 m 637 502 l 502 502 l 502 637 l 637 637 l 637 502 m 637 990 l 502 990 l 502 1126 l 637 1126 l 637 990 m 800 665 l 665 665 l 665 800 l 800 800 l 800 665 m 800 827 l 665 827 l 665 963 l 800 963 l 800 827 z "},")":{"ha":977,"x_min":176,"x_max":637,"o":"m 312 14 l 176 14 l 176 149 l 312 149 l 312 14 m 312 990 l 176 990 l 176 1126 l 312 1126 l 312 990 m 475 176 l 339 176 l 339 312 l 475 312 l 475 176 m 475 827 l 339 827 l 339 963 l 475 963 l 475 827 m 637 339 l 502 339 l 502 475 l 637 475 l 637 339 m 637 502 l 502 502 l 502 637 l 637 637 l 637 502 m 637 665 l 502 665 l 502 800 l 637 800 l 637 665 z "},"+":{"ha":977,"x_min":14,"x_max":800,"o":"m 149 502 l 14 502 l 14 637 l 149 637 l 149 502 m 312 502 l 176 502 l 176 637 l 312 637 l 312 502 m 475 176 l 339 176 l 339 312 l 475 312 l 475 176 m 475 339 l 339 339 l 339 475 l 475 475 l 475 339 m 475 502 l 339 502 l 339 637 l 475 637 l 475 502 m 475 665 l 339 665 l 339 800 l 475 800 l 475 665 m 475 827 l 339 827 l 339 963 l 475 963 l 475 827 m 637 502 l 502 502 l 502 637 l 637 637 l 637 502 m 800 502 l 665 502 l 665 637 l 800 637 l 800 502 z "},"-":{"ha":977,"x_min":14,"x_max":800,"o":"m 149 502 l 14 502 l 14 637 l 149 637 l 149 502 m 312 502 l 176 502 l 176 637 l 312 637 l 312 502 m 475 502 l 339 502 l 339 637 l 475 637 l 475 502 m 637 502 l 502 502 l 502 637 l 637 637 l 637 502 m 800 502 l 665 502 l 665 637 l 800 637 l 800 502 z "},"*":{"ha":977,"x_min":14,"x_max":800,"o":"m 149 339 l 14 339 l 14 475 l 149 475 l 149 339 m 149 665 l 14 665 l 14 800 l 149 800 l 149 665 m 312 502 l 176 502 l 176 637 l 312 637 l 312 502 m 475 176 l 339 176 l 339 312 l 475 312 l 475 176 m 475 339 l 339 339 l 339 475 l 475 475 l 475 339 m 475 502 l 339 502 l 339 637 l 475 637 l 475 502 m 475 665 l 339 665 l 339 800 l 475 800 l 475 665 m 475 827 l 339 827 l 339 963 l 475 963 l 475 827 m 637 502 l 502 502 l 502 637 l 637 637 l 637 502 m 800 339 l 665 339 l 665 475 l 800 475 l 800 339 m 800 665 l 665 665 l 665 800 l 800 800 l 800 665 z "},"/":{"ha":977,"x_min":14,"x_max":800,"o":"m 149 176 l 14 176 l 14 312 l 149 312 l 149 176 m 312 339 l 176 339 l 176 475 l 312 475 l 312 339 m 475 502 l 339 502 l 339 637 l 475 637 l 475 502 m 637 665 l 502 665 l 502 800 l 637 800 l 637 665 m 800 827 l 665 827 l 665 963 l 800 963 l 800 827 z "},"=":{"ha":977,"x_min":14,"x_max":800,"o":"m 149 339 l 14 339 l 14 475 l 149 475 l 149 339 m 149 665 l 14 665 l 14 800 l 149 800 l 149 665 m 312 339 l 176 339 l 176 475 l 312 475 l 312 339 m 312 665 l 176 665 l 176 800 l 312 800 l 312 665 m 475 339 l 339 339 l 339 475 l 475 475 l 475 339 m 475 665 l 339 665 l 339 800 l 475 800 l 475 665 m 637 339 l 502 339 l 502 475 l 637 475 l 637 339 m 637 665 l 502 665 l 502 800 l 637 800 l 637 665 m 800 339 l 665 339 l 665 475 l 800 475 l 800 339 m 800 665 l 665 665 l 665 800 l 800 800 l 800 665 z "},"\\":{"ha":977,"x_min":14,"x_max":800,"o":"m 149 827 l 14 827 l 14 963 l 149 963 l 149 827 m 312 665 l 176 665 l 176 800 l 312 800 l 312 665 m 475 502 l 339 502 l 339 637 l 475 637 l 475 502 m 637 339 l 502 339 l 502 475 l 637 475 l 637 339 m 800 176 l 665 176 l 665 312 l 800 312 l 800 176 z "},"…":{"ha":977,"x_min":14,"x_max":800,"o":"m 149 14 l 14 14 l 14 149 l 149 149 l 149 14 m 475 14 l 339 14 l 339 149 l 475 149 l 475 14 m 800 14 l 665 14 l 665 149 l 800 149 l 800 14 z "},"_":{"ha":977,"x_min":14,"x_max":800,"o":"m 149 14 l 14 14 l 14 149 l 149 149 l 149 14 m 312 14 l 176 14 l 176 149 l 312 149 l 312 14 m 475 14 l 339 14 l 339 149 l 475 149 l 475 14 m 637 14 l 502 14 l 502 149 l 637 149 l 637 14 m 800 14 l 665 14 l 665 149 l 800 149 l 800 14 z "},"­":{"ha":977,"x_min":176,"x_max":637,"o":"m 312 502 l 176 502 l 176 637 l 312 637 l 312 502 m 475 502 l 339 502 l 339 637 l 475 637 l 475 502 m 637 502 l 502 502 l 502 637 l 637 637 l 637 502 z "},"−":{"ha":977,"x_min":14,"x_max":800,"o":"m 149 502 l 14 502 l 14 637 l 149 637 l 149 502 m 312 502 l 176 502 l 176 637 l 312 637 l 312 502 m 475 502 l 339 502 l 339 637 l 475 637 l 475 502 m 637 502 l 502 502 l 502 637 l 637 637 l 637 502 m 800 502 l 665 502 l 665 637 l 800 637 l 800 502 z "},"‒":{"ha":977,"x_min":14,"x_max":800,"o":"m 149 502 l 14 502 l 14 637 l 149 637 l 149 502 m 312 502 l 176 502 l 176 637 l 312 637 l 312 502 m 475 502 l 339 502 l 339 637 l 475 637 l 475 502 m 637 502 l 502 502 l 502 637 l 637 637 l 637 502 m 800 502 l 665 502 l 665 637 l 800 637 l 800 502 z "},"–":{"ha":977,"x_min":14,"x_max":800,"o":"m 149 502 l 14 502 l 14 637 l 149 637 l 149 502 m 312 502 l 176 502 l 176 637 l 312 637 l 312 502 m 475 502 l 339 502 l 339 637 l 475 637 l 475 502 m 637 502 l 502 502 l 502 637 l 637 637 l 637 502 m 800 502 l 665 502 l 665 637 l 800 637 l 800 502 z "},"—":{"ha":977,"x_min":14,"x_max":800,"o":"m 149 502 l 14 502 l 14 637 l 149 637 l 149 502 m 312 502 l 176 502 l 176 637 l 312 637 l 312 502 m 475 502 l 339 502 l 339 637 l 475 637 l 475 502 m 637 502 l 502 502 l 502 637 l 637 637 l 637 502 m 800 502 l 665 502 l 665 637 l 800 637 l 800 502 z "},"―":{"ha":977,"x_min":14,"x_max":800,"o":"m 149 502 l 14 502 l 14 637 l 149 637 l 149 502 m 312 502 l 176 502 l 176 637 l 312 637 l 312 502 m 475 502 l 339 502 l 339 637 l 475 637 l 475 502 m 637 502 l 502 502 l 502 637 l 637 637 l 637 502 m 800 502 l 665 502 l 665 637 l 800 637 l 800 502 z "},"ʹ":{"ha":977,"x_min":339,"x_max":475,"o":"m 475 665 l 339 665 l 339 800 l 475 800 l 475 665 m 475 827 l 339 827 l 339 963 l 475 963 l 475 827 m 475 990 l 339 990 l 339 1126 l 475 1126 l 475 990 z "},"ʺ":{"ha":977,"x_min":176,"x_max":637,"o":"m 312 665 l 176 665 l 176 800 l 312 800 l 312 665 m 312 827 l 176 827 l 176 963 l 312 963 l 312 827 m 312 990 l 176 990 l 176 1126 l 312 1126 l 312 990 m 637 665 l 502 665 l 502 800 l 637 800 l 637 665 m 637 827 l 502 827 l 502 963 l 637 963 l 637 827 m 637 990 l 502 990 l 502 1126 l 637 1126 l 637 990 z "},"ʻ":{"ha":977,"x_min":176,"x_max":475,"o":"m 312 665 l 176 665 l 176 800 l 312 800 l 312 665 m 312 990 l 176 990 l 176 1126 l 312 1126 l 312 990 m 475 827 l 339 827 l 339 963 l 475 963 l 475 827 m 475 990 l 339 990 l 339 1126 l 475 1126 l 475 990 z "},"ʼ":{"ha":977,"x_min":176,"x_max":475,"o":"m 312 665 l 176 665 l 176 800 l 312 800 l 312 665 m 312 990 l 176 990 l 176 1126 l 312 1126 l 312 990 m 475 827 l 339 827 l 339 963 l 475 963 l 475 827 m 475 990 l 339 990 l 339 1126 l 475 1126 l 475 990 z "},"ʽ":{"ha":977,"x_min":176,"x_max":475,"o":"m 312 665 l 176 665 l 176 800 l 312 800 l 312 665 m 312 990 l 176 990 l 176 1126 l 312 1126 l 312 990 m 475 827 l 339 827 l 339 963 l 475 963 l 475 827 m 475 990 l 339 990 l 339 1126 l 475 1126 l 475 990 z "},"‘":{"ha":977,"x_min":176,"x_max":475,"o":"m 312 665 l 176 665 l 176 800 l 312 800 l 312 665 m 312 990 l 176 990 l 176 1126 l 312 1126 l 312 990 m 475 827 l 339 827 l 339 963 l 475 963 l 475 827 m 475 990 l 339 990 l 339 1126 l 475 1126 l 475 990 z "},"’":{"ha":977,"x_min":176,"x_max":475,"o":"m 312 665 l 176 665 l 176 800 l 312 800 l 312 665 m 312 990 l 176 990 l 176 1126 l 312 1126 l 312 990 m 475 827 l 339 827 l 339 963 l 475 963 l 475 827 m 475 990 l 339 990 l 339 1126 l 475 1126 l 475 990 z "},"‚":{"ha":977,"x_min":176,"x_max":475,"o":"m 312 14 l 176 14 l 176 149 l 312 149 l 312 14 m 312 339 l 176 339 l 176 475 l 312 475 l 312 339 m 475 176 l 339 176 l 339 312 l 475 312 l 475 176 m 475 339 l 339 339 l 339 475 l 475 475 l 475 339 z "},"‛":{"ha":977,"x_min":176,"x_max":475,"o":"m 312 665 l 176 665 l 176 800 l 312 800 l 312 665 m 312 990 l 176 990 l 176 1126 l 312 1126 l 312 990 m 475 827 l 339 827 l 339 963 l 475 963 l 475 827 m 475 990 l 339 990 l 339 1126 l 475 1126 l 475 990 z "},"“":{"ha":977,"x_min":176,"x_max":637,"o":"m 312 665 l 176 665 l 176 800 l 312 800 l 312 665 m 312 827 l 176 827 l 176 963 l 312 963 l 312 827 m 312 990 l 176 990 l 176 1126 l 312 1126 l 312 990 m 637 665 l 502 665 l 502 800 l 637 800 l 637 665 m 637 827 l 502 827 l 502 963 l 637 963 l 637 827 m 637 990 l 502 990 l 502 1126 l 637 1126 l 637 990 z "},"”":{"ha":977,"x_min":176,"x_max":637,"o":"m 312 665 l 176 665 l 176 800 l 312 800 l 312 665 m 312 827 l 176 827 l 176 963 l 312 963 l 312 827 m 312 990 l 176 990 l 176 1126 l 312 1126 l 312 990 m 637 665 l 502 665 l 502 800 l 637 800 l 637 665 m 637 827 l 502 827 l 502 963 l 637 963 l 637 827 m 637 990 l 502 990 l 502 1126 l 637 1126 l 637 990 z "},"„":{"ha":977,"x_min":176,"x_max":637,"o":"m 312 14 l 176 14 l 176 149 l 312 149 l 312 14 m 312 176 l 176 176 l 176 312 l 312 312 l 312 176 m 312 339 l 176 339 l 176 475 l 312 475 l 312 339 m 637 14 l 502 14 l 502 149 l 637 149 l 637 14 m 637 176 l 502 176 l 502 312 l 637 312 l 637 176 m 637 339 l 502 339 l 502 475 l 637 475 l 637 339 z "},"‟":{"ha":977,"x_min":176,"x_max":637,"o":"m 312 665 l 176 665 l 176 800 l 312 800 l 312 665 m 312 827 l 176 827 l 176 963 l 312 963 l 312 827 m 312 990 l 176 990 l 176 1126 l 312 1126 l 312 990 m 637 665 l 502 665 l 502 800 l 637 800 l 637 665 m 637 827 l 502 827 l 502 963 l 637 963 l 637 827 m 637 990 l 502 990 l 502 1126 l 637 1126 l 637 990 z "},"÷":{"ha":977,"x_min":14,"x_max":800,"o":"m 149 502 l 14 502 l 14 637 l 149 637 l 149 502 m 312 502 l 176 502 l 176 637 l 312 637 l 312 502 m 475 176 l 339 176 l 339 312 l 475 312 l 475 176 m 475 502 l 339 502 l 339 637 l 475 637 l 475 502 m 475 827 l 339 827 l 339 963 l 475 963 l 475 827 m 637 502 l 502 502 l 502 637 l 637 637 l 637 502 m 800 502 l 665 502 l 665 637 l 800 637 l 800 502 z "},"%":{"ha":977,"x_min":14,"x_max":800,"o":"m 149 176 l 14 176 l 14 312 l 149 312 l 149 176 m 149 827 l 14 827 l 14 963 l 149 963 l 149 827 m 149 990 l 14 990 l 14 1126 l 149 1126 l 149 990 m 312 339 l 176 339 l 176 475 l 312 475 l 312 339 m 312 827 l 176 827 l 176 963 l 312 963 l 312 827 m 312 990 l 176 990 l 176 1126 l 312 1126 l 312 990 m 475 502 l 339 502 l 339 637 l 475 637 l 475 502 m 637 14 l 502 14 l 502 149 l 637 149 l 637 14 m 637 176 l 502 176 l 502 312 l 637 312 l 637 176 m 637 665 l 502 665 l 502 800 l 637 800 l 637 665 m 800 14 l 665 14 l 665 149 l 800 149 l 800 14 m 800 176 l 665 176 l 665 312 l 800 312 l 800 176 m 800 827 l 665 827 l 665 963 l 800 963 l 800 827 z "},"‰":{"ha":977,"x_min":14,"x_max":800,"o":"m 475 14 l 339 14 l 339 149 l 475 149 l 475 14 m 800 14 l 665 14 l 665 149 l 800 149 l 800 14 m 149 176 l 14 176 l 14 312 l 149 312 l 149 176 m 149 827 l 14 827 l 14 963 l 149 963 l 149 827 m 149 990 l 14 990 l 14 1126 l 149 1126 l 149 990 m 312 339 l 176 339 l 176 475 l 312 475 l 312 339 m 312 827 l 176 827 l 176 963 l 312 963 l 312 827 m 312 990 l 176 990 l 176 1126 l 312 1126 l 312 990 m 475 502 l 339 502 l 339 637 l 475 637 l 475 502 m 637 665 l 502 665 l 502 800 l 637 800 l 637 665 m 800 827 l 665 827 l 665 963 l 800 963 l 800 827 z "},"#":{"ha":977,"x_min":14,"x_max":800,"o":"m 149 339 l 14 339 l 14 475 l 149 475 l 149 339 m 149 665 l 14 665 l 14 800 l 149 800 l 149 665 m 312 14 l 176 14 l 176 149 l 312 149 l 312 14 m 312 176 l 176 176 l 176 312 l 312 312 l 312 176 m 312 339 l 176 339 l 176 475 l 312 475 l 312 339 m 312 502 l 176 502 l 176 637 l 312 637 l 312 502 m 312 665 l 176 665 l 176 800 l 312 800 l 312 665 m 312 827 l 176 827 l 176 963 l 312 963 l 312 827 m 312 990 l 176 990 l 176 1126 l 312 1126 l 312 990 m 475 339 l 339 339 l 339 475 l 475 475 l 475 339 m 475 665 l 339 665 l 339 800 l 475 800 l 475 665 m 637 14 l 502 14 l 502 149 l 637 149 l 637 14 m 637 176 l 502 176 l 502 312 l 637 312 l 637 176 m 637 339 l 502 339 l 502 475 l 637 475 l 637 339 m 637 502 l 502 502 l 502 637 l 637 637 l 637 502 m 637 665 l 502 665 l 502 800 l 637 800 l 637 665 m 637 827 l 502 827 l 502 963 l 637 963 l 637 827 m 637 990 l 502 990 l 502 1126 l 637 1126 l 637 990 m 800 339 l 665 339 l 665 475 l 800 475 l 800 339 m 800 665 l 665 665 l 665 800 l 800 800 l 800 665 z "},"@":{"ha":977,"x_min":14,"x_max":800,"o":"m 149 176 l 14 176 l 14 312 l 149 312 l 149 176 m 149 339 l 14 339 l 14 475 l 149 475 l 149 339 m 149 827 l 14 827 l 14 963 l 149 963 l 149 827 m 312 14 l 176 14 l 176 149 l 312 149 l 312 14 m 312 502 l 176 502 l 176 637 l 312 637 l 312 502 m 312 990 l 176 990 l 176 1126 l 312 1126 l 312 990 m 475 14 l 339 14 l 339 149 l 475 149 l 475 14 m 475 176 l 339 176 l 339 312 l 475 312 l 475 176 m 475 339 l 339 339 l 339 475 l 475 475 l 475 339 m 475 502 l 339 502 l 339 637 l 475 637 l 475 502 m 475 990 l 339 990 l 339 1126 l 475 1126 l 475 990 m 637 14 l 502 14 l 502 149 l 637 149 l 637 14 m 637 990 l 502 990 l 502 1126 l 637 1126 l 637 990 m 800 176 l 665 176 l 665 312 l 800 312 l 800 176 m 800 339 l 665 339 l 665 475 l 800 475 l 800 339 m 800 502 l 665 502 l 665 637 l 800 637 l 800 502 m 800 665 l 665 665 l 665 800 l 800 800 l 800 665 m 800 827 l 665 827 l 665 963 l 800 963 l 800 827 z "},"&":{"ha":977,"x_min":14,"x_max":800,"o":"m 149 176 l 14 176 l 14 312 l 149 312 l 149 176 m 149 339 l 14 339 l 14 475 l 149 475 l 149 339 m 149 665 l 14 665 l 14 800 l 149 800 l 149 665 m 149 827 l 14 827 l 14 963 l 149 963 l 149 827 m 312 14 l 176 14 l 176 149 l 312 149 l 312 14 m 312 502 l 176 502 l 176 637 l 312 637 l 312 502 m 312 990 l 176 990 l 176 1126 l 312 1126 l 312 990 m 475 14 l 339 14 l 339 149 l 475 149 l 475 14 m 475 339 l 339 339 l 339 475 l 475 475 l 475 339 m 475 665 l 339 665 l 339 800 l 475 800 l 475 665 m 475 990 l 339 990 l 339 1126 l 475 1126 l 475 990 m 637 176 l 502 176 l 502 312 l 637 312 l 637 176 m 637 827 l 502 827 l 502 963 l 637 963 l 637 827 m 800 14 l 665 14 l 665 149 l 800 149 l 800 14 m 800 339 l 665 339 l 665 475 l 800 475 l 800 339 z "},"¿":{"ha":977,"x_min":14,"x_max":800,"o":"m 149 176 l 14 176 l 14 312 l 149 312 l 149 176 m 149 339 l 14 339 l 14 475 l 149 475 l 149 339 m 312 14 l 176 14 l 176 149 l 312 149 l 312 14 m 312 502 l 176 502 l 176 637 l 312 637 l 312 502 m 475 14 l 339 14 l 339 149 l 475 149 l 475 14 m 475 665 l 339 665 l 339 800 l 475 800 l 475 665 m 475 990 l 339 990 l 339 1126 l 475 1126 l 475 990 m 637 14 l 502 14 l 502 149 l 637 149 l 637 14 m 800 176 l 665 176 l 665 312 l 800 312 l 800 176 z "},"¡":{"ha":977,"x_min":339,"x_max":475,"o":"m 475 14 l 339 14 l 339 149 l 475 149 l 475 14 m 475 176 l 339 176 l 339 312 l 475 312 l 475 176 m 475 339 l 339 339 l 339 475 l 475 475 l 475 339 m 475 502 l 339 502 l 339 637 l 475 637 l 475 502 m 475 990 l 339 990 l 339 1126 l 475 1126 l 475 990 z "},"{":{"ha":977,"x_min":14,"x_max":637,"o":"m 149 502 l 14 502 l 14 637 l 149 637 l 149 502 m 312 176 l 176 176 l 176 312 l 312 312 l 312 176 m 312 339 l 176 339 l 176 475 l 312 475 l 312 339 m 312 665 l 176 665 l 176 800 l 312 800 l 312 665 m 312 827 l 176 827 l 176 963 l 312 963 l 312 827 m 475 14 l 339 14 l 339 149 l 475 149 l 475 14 m 475 990 l 339 990 l 339 1126 l 475 1126 l 475 990 m 637 14 l 502 14 l 502 149 l 637 149 l 637 14 m 637 990 l 502 990 l 502 1126 l 637 1126 l 637 990 z "},"}":{"ha":977,"x_min":176,"x_max":800,"o":"m 312 14 l 176 14 l 176 149 l 312 149 l 312 14 m 312 990 l 176 990 l 176 1126 l 312 1126 l 312 990 m 475 14 l 339 14 l 339 149 l 475 149 l 475 14 m 475 990 l 339 990 l 339 1126 l 475 1126 l 475 990 m 637 176 l 502 176 l 502 312 l 637 312 l 637 176 m 637 339 l 502 339 l 502 475 l 637 475 l 637 339 m 637 665 l 502 665 l 502 800 l 637 800 l 637 665 m 637 827 l 502 827 l 502 963 l 637 963 l 637 827 m 800 502 l 665 502 l 665 637 l 800 637 l 800 502 z "},"[":{"ha":977,"x_min":176,"x_max":637,"o":"m 312 14 l 176 14 l 176 149 l 312 149 l 312 14 m 312 176 l 176 176 l 176 312 l 312 312 l 312 176 m 312 339 l 176 339 l 176 475 l 312 475 l 312 339 m 312 502 l 176 502 l 176 637 l 312 637 l 312 502 m 312 665 l 176 665 l 176 800 l 312 800 l 312 665 m 312 827 l 176 827 l 176 963 l 312 963 l 312 827 m 312 990 l 176 990 l 176 1126 l 312 1126 l 312 990 m 475 14 l 339 14 l 339 149 l 475 149 l 475 14 m 475 990 l 339 990 l 339 1126 l 475 1126 l 475 990 m 637 14 l 502 14 l 502 149 l 637 149 l 637 14 m 637 990 l 502 990 l 502 1126 l 637 1126 l 637 990 z "},"]":{"ha":977,"x_min":176,"x_max":637,"o":"m 312 14 l 176 14 l 176 149 l 312 149 l 312 14 m 312 990 l 176 990 l 176 1126 l 312 1126 l 312 990 m 475 14 l 339 14 l 339 149 l 475 149 l 475 14 m 475 990 l 339 990 l 339 1126 l 475 1126 l 475 990 m 637 14 l 502 14 l 502 149 l 637 149 l 637 14 m 637 176 l 502 176 l 502 312 l 637 312 l 637 176 m 637 339 l 502 339 l 502 475 l 637 475 l 637 339 m 637 502 l 502 502 l 502 637 l 637 637 l 637 502 m 637 665 l 502 665 l 502 800 l 637 800 l 637 665 m 637 827 l 502 827 l 502 963 l 637 963 l 637 827 m 637 990 l 502 990 l 502 1126 l 637 1126 l 637 990 z "},"§":{"ha":977,"x_min":14,"x_max":800,"o":"m 149 502 l 14 502 l 14 637 l 149 637 l 149 502 m 149 665 l 14 665 l 14 800 l 149 800 l 149 665 m 149 827 l 14 827 l 14 963 l 149 963 l 149 827 m 312 14 l 176 14 l 176 149 l 312 149 l 312 14 m 312 339 l 176 339 l 176 475 l 312 475 l 312 339 m 312 665 l 176 665 l 176 800 l 312 800 l 312 665 m 312 990 l 176 990 l 176 1126 l 312 1126 l 312 990 m 475 14 l 339 14 l 339 149 l 475 149 l 475 14 m 475 339 l 339 339 l 339 475 l 475 475 l 475 339 m 475 665 l 339 665 l 339 800 l 475 800 l 475 665 m 475 990 l 339 990 l 339 1126 l 475 1126 l 475 990 m 637 14 l 502 14 l 502 149 l 637 149 l 637 14 m 637 339 l 502 339 l 502 475 l 637 475 l 637 339 m 637 665 l 502 665 l 502 800 l 637 800 l 637 665 m 637 990 l 502 990 l 502 1126 l 637 1126 l 637 990 m 800 176 l 665 176 l 665 312 l 800 312 l 800 176 m 800 339 l 665 339 l 665 475 l 800 475 l 800 339 m 800 502 l 665 502 l 665 637 l 800 637 l 800 502 z "},"¶":{"ha":977,"x_min":14,"x_max":800,"o":"m 149 665 l 14 665 l 14 800 l 149 800 l 149 665 m 149 827 l 14 827 l 14 963 l 149 963 l 149 827 m 312 502 l 176 502 l 176 637 l 312 637 l 312 502 m 312 665 l 176 665 l 176 800 l 312 800 l 312 665 m 312 827 l 176 827 l 176 963 l 312 963 l 312 827 m 312 990 l 176 990 l 176 1126 l 312 1126 l 312 990 m 475 14 l 339 14 l 339 149 l 475 149 l 475 14 m 475 176 l 339 176 l 339 312 l 475 312 l 475 176 m 475 339 l 339 339 l 339 475 l 475 475 l 475 339 m 475 502 l 339 502 l 339 637 l 475 637 l 475 502 m 475 665 l 339 665 l 339 800 l 475 800 l 475 665 m 475 827 l 339 827 l 339 963 l 475 963 l 475 827 m 475 990 l 339 990 l 339 1126 l 475 1126 l 475 990 m 637 990 l 502 990 l 502 1126 l 637 1126 l 637 990 m 800 14 l 665 14 l 665 149 l 800 149 l 800 14 m 800 176 l 665 176 l 665 312 l 800 312 l 800 176 m 800 339 l 665 339 l 665 475 l 800 475 l 800 339 m 800 502 l 665 502 l 665 637 l 800 637 l 800 502 m 800 665 l 665 665 l 665 800 l 800 800 l 800 665 m 800 827 l 665 827 l 665 963 l 800 963 l 800 827 m 800 990 l 665 990 l 665 1126 l 800 1126 l 800 990 z "},"µ":{"ha":977,"x_min":14,"x_max":800,"o":"m 149 14 l 14 14 l 14 149 l 149 149 l 149 14 m 149 176 l 14 176 l 14 312 l 149 312 l 149 176 m 149 339 l 14 339 l 14 475 l 149 475 l 149 339 m 149 502 l 14 502 l 14 637 l 149 637 l 149 502 m 149 665 l 14 665 l 14 800 l 149 800 l 149 665 m 149 827 l 14 827 l 14 963 l 149 963 l 149 827 m 312 339 l 176 339 l 176 475 l 312 475 l 312 339 m 475 176 l 339 176 l 339 312 l 475 312 l 475 176 m 637 339 l 502 339 l 502 475 l 637 475 l 637 339 m 800 176 l 665 176 l 665 312 l 800 312 l 800 176 m 800 339 l 665 339 l 665 475 l 800 475 l 800 339 m 800 502 l 665 502 l 665 637 l 800 637 l 800 502 m 800 665 l 665 665 l 665 800 l 800 800 l 800 665 m 800 827 l 665 827 l 665 963 l 800 963 l 800 827 z "},"☡":{"ha":977,"x_min":14,"x_max":800,"o":"m 149 14 l 14 14 l 14 149 l 149 149 l 149 14 m 149 176 l 14 176 l 14 312 l 149 312 l 149 176 m 149 339 l 14 339 l 14 475 l 149 475 l 149 339 m 149 502 l 14 502 l 14 637 l 149 637 l 149 502 m 149 665 l 14 665 l 14 800 l 149 800 l 149 665 m 312 827 l 176 827 l 176 963 l 312 963 l 312 827 m 475 990 l 339 990 l 339 1126 l 475 1126 l 475 990 m 637 14 l 502 14 l 502 149 l 637 149 l 637 14 m 637 176 l 502 176 l 502 312 l 637 312 l 637 176 m 637 339 l 502 339 l 502 475 l 637 475 l 637 339 m 637 502 l 502 502 l 502 637 l 637 637 l 637 502 m 637 665 l 502 665 l 502 800 l 637 800 l 637 665 m 637 827 l 502 827 l 502 963 l 637 963 l 637 827 m 637 990 l 502 990 l 502 1126 l 637 1126 l 637 990 m 800 14 l 665 14 l 665 149 l 800 149 l 800 14 z "},"°":{"ha":977,"x_min":14,"x_max":637,"o":"m 149 665 l 14 665 l 14 800 l 149 800 l 149 665 m 149 827 l 14 827 l 14 963 l 149 963 l 149 827 m 312 502 l 176 502 l 176 637 l 312 637 l 312 502 m 312 990 l 176 990 l 176 1126 l 312 1126 l 312 990 m 475 502 l 339 502 l 339 637 l 475 637 l 475 502 m 475 990 l 339 990 l 339 1126 l 475 1126 l 475 990 m 637 665 l 502 665 l 502 800 l 637 800 l 637 665 m 637 827 l 502 827 l 502 963 l 637 963 l 637 827 z "},"‾":{"ha":977,"x_min":14,"x_max":800,"o":"m 149 990 l 14 990 l 14 1126 l 149 1126 l 149 990 m 312 990 l 176 990 l 176 1126 l 312 1126 l 312 990 m 475 990 l 339 990 l 339 1126 l 475 1126 l 475 990 m 637 990 l 502 990 l 502 1126 l 637 1126 l 637 990 m 800 990 l 665 990 l 665 1126 l 800 1126 l 800 990 z "},"⁄":{"ha":977,"x_min":14,"x_max":800,"o":"m 149 176 l 14 176 l 14 312 l 149 312 l 149 176 m 312 339 l 176 339 l 176 475 l 312 475 l 312 339 m 475 502 l 339 502 l 339 637 l 475 637 l 475 502 m 637 665 l 502 665 l 502 800 l 637 800 l 637 665 m 800 827 l 665 827 l 665 963 l 800 963 l 800 827 z "},"∕":{"ha":977,"x_min":14,"x_max":800,"o":"m 149 176 l 14 176 l 14 312 l 149 312 l 149 176 m 312 339 l 176 339 l 176 475 l 312 475 l 312 339 m 475 502 l 339 502 l 339 637 l 475 637 l 475 502 m 637 665 l 502 665 l 502 800 l 637 800 l 637 665 m 800 827 l 665 827 l 665 963 l 800 963 l 800 827 z "},"≡":{"ha":977,"x_min":14,"x_max":800,"o":"m 149 176 l 14 176 l 14 312 l 149 312 l 149 176 m 149 502 l 14 502 l 14 637 l 149 637 l 149 502 m 149 827 l 14 827 l 14 963 l 149 963 l 149 827 m 312 176 l 176 176 l 176 312 l 312 312 l 312 176 m 312 502 l 176 502 l 176 637 l 312 637 l 312 502 m 312 827 l 176 827 l 176 963 l 312 963 l 312 827 m 475 176 l 339 176 l 339 312 l 475 312 l 475 176 m 475 502 l 339 502 l 339 637 l 475 637 l 475 502 m 475 827 l 339 827 l 339 963 l 475 963 l 475 827 m 637 176 l 502 176 l 502 312 l 637 312 l 637 176 m 637 502 l 502 502 l 502 637 l 637 637 l 637 502 m 637 827 l 502 827 l 502 963 l 637 963 l 637 827 m 800 176 l 665 176 l 665 312 l 800 312 l 800 176 m 800 502 l 665 502 l 665 637 l 800 637 l 800 502 m 800 827 l 665 827 l 665 963 l 800 963 l 800 827 z "},"|":{"ha":977,"x_min":339,"x_max":475,"o":"m 475 14 l 339 14 l 339 149 l 475 149 l 475 14 m 475 176 l 339 176 l 339 312 l 475 312 l 475 176 m 475 339 l 339 339 l 339 475 l 475 475 l 475 339 m 475 502 l 339 502 l 339 637 l 475 637 l 475 502 m 475 665 l 339 665 l 339 800 l 475 800 l 475 665 m 475 827 l 339 827 l 339 963 l 475 963 l 475 827 m 475 990 l 339 990 l 339 1126 l 475 1126 l 475 990 z "},"¦":{"ha":977,"x_min":339,"x_max":475,"o":"m 475 14 l 339 14 l 339 149 l 475 149 l 475 14 m 475 176 l 339 176 l 339 312 l 475 312 l 475 176 m 475 339 l 339 339 l 339 475 l 475 475 l 475 339 m 475 665 l 339 665 l 339 800 l 475 800 l 475 665 m 475 827 l 339 827 l 339 963 l 475 963 l 475 827 m 475 990 l 339 990 l 339 1126 l 475 1126 l 475 990 z "},"^":{"ha":977,"x_min":14,"x_max":800,"o":"m 149 665 l 14 665 l 14 800 l 149 800 l 149 665 m 312 827 l 176 827 l 176 963 l 312 963 l 312 827 m 475 990 l 339 990 l 339 1126 l 475 1126 l 475 990 m 637 827 l 502 827 l 502 963 l 637 963 l 637 827 m 800 665 l 665 665 l 665 800 l 800 800 l 800 665 z "},"<":{"ha":977,"x_min":14,"x_max":637,"o":"m 149 502 l 14 502 l 14 637 l 149 637 l 149 502 m 312 339 l 176 339 l 176 475 l 312 475 l 312 339 m 312 665 l 176 665 l 176 800 l 312 800 l 312 665 m 475 176 l 339 176 l 339 312 l 475 312 l 475 176 m 475 827 l 339 827 l 339 963 l 475 963 l 475 827 m 637 14 l 502 14 l 502 149 l 637 149 l 637 14 m 637 990 l 502 990 l 502 1126 l 637 1126 l 637 990 z "},">":{"ha":977,"x_min":176,"x_max":800,"o":"m 312 14 l 176 14 l 176 149 l 312 149 l 312 14 m 312 990 l 176 990 l 176 1126 l 312 1126 l 312 990 m 475 176 l 339 176 l 339 312 l 475 312 l 475 176 m 475 827 l 339 827 l 339 963 l 475 963 l 475 827 m 637 339 l 502 339 l 502 475 l 637 475 l 637 339 m 637 665 l 502 665 l 502 800 l 637 800 l 637 665 m 800 502 l 665 502 l 665 637 l 800 637 l 800 502 z "},"«":{"ha":977,"x_min":14,"x_max":800,"o":"m 149 339 l 14 339 l 14 475 l 149 475 l 149 339 m 312 176 l 176 176 l 176 312 l 312 312 l 312 176 m 312 502 l 176 502 l 176 637 l 312 637 l 312 502 m 475 14 l 339 14 l 339 149 l 475 149 l 475 14 m 475 339 l 339 339 l 339 475 l 475 475 l 475 339 m 475 665 l 339 665 l 339 800 l 475 800 l 475 665 m 637 176 l 502 176 l 502 312 l 637 312 l 637 176 m 637 502 l 502 502 l 502 637 l 637 637 l 637 502 m 800 14 l 665 14 l 665 149 l 800 149 l 800 14 m 800 665 l 665 665 l 665 800 l 800 800 l 800 665 z "},"»":{"ha":977,"x_min":14,"x_max":800,"o":"m 149 14 l 14 14 l 14 149 l 149 149 l 149 14 m 149 665 l 14 665 l 14 800 l 149 800 l 149 665 m 312 176 l 176 176 l 176 312 l 312 312 l 312 176 m 312 502 l 176 502 l 176 637 l 312 637 l 312 502 m 475 14 l 339 14 l 339 149 l 475 149 l 475 14 m 475 339 l 339 339 l 339 475 l 475 475 l 475 339 m 475 665 l 339 665 l 339 800 l 475 800 l 475 665 m 637 176 l 502 176 l 502 312 l 637 312 l 637 176 m 637 502 l 502 502 l 502 637 l 637 637 l 637 502 m 800 339 l 665 339 l 665 475 l 800 475 l 800 339 z "},"¬":{"ha":977,"x_min":14,"x_max":800,"o":"m 149 502 l 14 502 l 14 637 l 149 637 l 149 502 m 312 502 l 176 502 l 176 637 l 312 637 l 312 502 m 475 502 l 339 502 l 339 637 l 475 637 l 475 502 m 637 502 l 502 502 l 502 637 l 637 637 l 637 502 m 800 176 l 665 176 l 665 312 l 800 312 l 800 176 m 800 339 l 665 339 l 665 475 l 800 475 l 800 339 m 800 502 l 665 502 l 665 637 l 800 637 l 800 502 z "},"⌐":{"ha":977,"x_min":14,"x_max":800,"o":"m 149 176 l 14 176 l 14 312 l 149 312 l 149 176 m 149 339 l 14 339 l 14 475 l 149 475 l 149 339 m 149 502 l 14 502 l 14 637 l 149 637 l 149 502 m 312 502 l 176 502 l 176 637 l 312 637 l 312 502 m 475 502 l 339 502 l 339 637 l 475 637 l 475 502 m 637 502 l 502 502 l 502 637 l 637 637 l 637 502 m 800 502 l 665 502 l 665 637 l 800 637 l 800 502 z "},"•":{"ha":977,"x_min":176,"x_max":637,"o":"m 312 502 l 176 502 l 176 637 l 312 637 l 312 502 m 475 339 l 339 339 l 339 475 l 475 475 l 475 339 m 475 502 l 339 502 l 339 637 l 475 637 l 475 502 m 475 665 l 339 665 l 339 800 l 475 800 l 475 665 m 637 502 l 502 502 l 502 637 l 637 637 l 637 502 z "},"·":{"ha":977,"x_min":339,"x_max":475,"o":"m 475 502 l 339 502 l 339 637 l 475 637 l 475 502 z "},"∙":{"ha":977,"x_min":339,"x_max":475,"o":"m 475 502 l 339 502 l 339 637 l 475 637 l 475 502 z "},"†":{"ha":977,"x_min":14,"x_max":800,"o":"m 149 665 l 14 665 l 14 800 l 149 800 l 149 665 m 312 665 l 176 665 l 176 800 l 312 800 l 312 665 m 475 14 l 339 14 l 339 149 l 475 149 l 475 14 m 475 176 l 339 176 l 339 312 l 475 312 l 475 176 m 475 339 l 339 339 l 339 475 l 475 475 l 475 339 m 475 502 l 339 502 l 339 637 l 475 637 l 475 502 m 475 665 l 339 665 l 339 800 l 475 800 l 475 665 m 475 827 l 339 827 l 339 963 l 475 963 l 475 827 m 475 990 l 339 990 l 339 1126 l 475 1126 l 475 990 m 637 665 l 502 665 l 502 800 l 637 800 l 637 665 m 800 665 l 665 665 l 665 800 l 800 800 l 800 665 z "},"‡":{"ha":977,"x_min":14,"x_max":800,"o":"m 149 339 l 14 339 l 14 475 l 149 475 l 149 339 m 149 665 l 14 665 l 14 800 l 149 800 l 149 665 m 312 339 l 176 339 l 176 475 l 312 475 l 312 339 m 312 665 l 176 665 l 176 800 l 312 800 l 312 665 m 475 14 l 339 14 l 339 149 l 475 149 l 475 14 m 475 176 l 339 176 l 339 312 l 475 312 l 475 176 m 475 339 l 339 339 l 339 475 l 475 475 l 475 339 m 475 502 l 339 502 l 339 637 l 475 637 l 475 502 m 475 665 l 339 665 l 339 800 l 475 800 l 475 665 m 475 827 l 339 827 l 339 963 l 475 963 l 475 827 m 475 990 l 339 990 l 339 1126 l 475 1126 l 475 990 m 637 339 l 502 339 l 502 475 l 637 475 l 637 339 m 637 665 l 502 665 l 502 800 l 637 800 l 637 665 m 800 339 l 665 339 l 665 475 l 800 475 l 800 339 m 800 665 l 665 665 l 665 800 l 800 800 l 800 665 z "},"±":{"ha":977,"x_min":14,"x_max":800,"o":"m 149 14 l 14 14 l 14 149 l 149 149 l 149 14 m 149 665 l 14 665 l 14 800 l 149 800 l 149 665 m 312 14 l 176 14 l 176 149 l 312 149 l 312 14 m 312 665 l 176 665 l 176 800 l 312 800 l 312 665 m 475 14 l 339 14 l 339 149 l 475 149 l 475 14 m 475 339 l 339 339 l 339 475 l 475 475 l 475 339 m 475 502 l 339 502 l 339 637 l 475 637 l 475 502 m 475 665 l 339 665 l 339 800 l 475 800 l 475 665 m 475 827 l 339 827 l 339 963 l 475 963 l 475 827 m 475 990 l 339 990 l 339 1126 l 475 1126 l 475 990 m 637 14 l 502 14 l 502 149 l 637 149 l 637 14 m 637 665 l 502 665 l 502 800 l 637 800 l 637 665 m 800 14 l 665 14 l 665 149 l 800 149 l 800 14 m 800 665 l 665 665 l 665 800 l 800 800 l 800 665 z "},"×":{"ha":977,"x_min":14,"x_max":800,"o":"m 149 176 l 14 176 l 14 312 l 149 312 l 149 176 m 149 827 l 14 827 l 14 963 l 149 963 l 149 827 m 312 339 l 176 339 l 176 475 l 312 475 l 312 339 m 312 665 l 176 665 l 176 800 l 312 800 l 312 665 m 475 502 l 339 502 l 339 637 l 475 637 l 475 502 m 637 339 l 502 339 l 502 475 l 637 475 l 637 339 m 637 665 l 502 665 l 502 800 l 637 800 l 637 665 m 800 176 l 665 176 l 665 312 l 800 312 l 800 176 m 800 827 l 665 827 l 665 963 l 800 963 l 800 827 z "},"~":{"ha":977,"x_min":14,"x_max":800,"o":"m 149 827 l 14 827 l 14 963 l 149 963 l 149 827 m 312 990 l 176 990 l 176 1126 l 312 1126 l 312 990 m 475 827 l 339 827 l 339 963 l 475 963 l 475 827 m 637 665 l 502 665 l 502 800 l 637 800 l 637 665 m 800 827 l 665 827 l 665 963 l 800 963 l 800 827 z "},"$":{"ha":977,"x_min":14,"x_max":800,"o":"m 149 176 l 14 176 l 14 312 l 149 312 l 149 176 m 149 665 l 14 665 l 14 800 l 149 800 l 149 665 m 312 176 l 176 176 l 176 312 l 312 312 l 312 176 m 312 502 l 176 502 l 176 637 l 312 637 l 312 502 m 312 827 l 176 827 l 176 963 l 312 963 l 312 827 m 475 14 l 339 14 l 339 149 l 475 149 l 475 14 m 475 176 l 339 176 l 339 312 l 475 312 l 475 176 m 475 339 l 339 339 l 339 475 l 475 475 l 475 339 m 475 502 l 339 502 l 339 637 l 475 637 l 475 502 m 475 665 l 339 665 l 339 800 l 475 800 l 475 665 m 475 827 l 339 827 l 339 963 l 475 963 l 475 827 m 475 990 l 339 990 l 339 1126 l 475 1126 l 475 990 m 637 176 l 502 176 l 502 312 l 637 312 l 637 176 m 637 502 l 502 502 l 502 637 l 637 637 l 637 502 m 637 827 l 502 827 l 502 963 l 637 963 l 637 827 m 800 339 l 665 339 l 665 475 l 800 475 l 800 339 m 800 827 l 665 827 l 665 963 l 800 963 l 800 827 z "},"€":{"ha":977,"x_min":14,"x_max":800,"o":"m 149 339 l 14 339 l 14 475 l 149 475 l 149 339 m 149 665 l 14 665 l 14 800 l 149 800 l 149 665 m 312 176 l 176 176 l 176 312 l 312 312 l 312 176 m 312 339 l 176 339 l 176 475 l 312 475 l 312 339 m 312 502 l 176 502 l 176 637 l 312 637 l 312 502 m 312 665 l 176 665 l 176 800 l 312 800 l 312 665 m 312 827 l 176 827 l 176 963 l 312 963 l 312 827 m 475 14 l 339 14 l 339 149 l 475 149 l 475 14 m 475 339 l 339 339 l 339 475 l 475 475 l 475 339 m 475 665 l 339 665 l 339 800 l 475 800 l 475 665 m 475 990 l 339 990 l 339 1126 l 475 1126 l 475 990 m 637 14 l 502 14 l 502 149 l 637 149 l 637 14 m 637 339 l 502 339 l 502 475 l 637 475 l 637 339 m 637 665 l 502 665 l 502 800 l 637 800 l 637 665 m 637 990 l 502 990 l 502 1126 l 637 1126 l 637 990 m 800 14 l 665 14 l 665 149 l 800 149 l 800 14 m 800 990 l 665 990 l 665 1126 l 800 1126 l 800 990 z "},"₽":{"ha":977,"x_min":14,"x_max":800,"o":"m 149 176 l 14 176 l 14 312 l 149 312 l 149 176 m 149 502 l 14 502 l 14 637 l 149 637 l 149 502 m 312 14 l 176 14 l 176 149 l 312 149 l 312 14 m 312 176 l 176 176 l 176 312 l 312 312 l 312 176 m 312 339 l 176 339 l 176 475 l 312 475 l 312 339 m 312 502 l 176 502 l 176 637 l 312 637 l 312 502 m 312 665 l 176 665 l 176 800 l 312 800 l 312 665 m 312 827 l 176 827 l 176 963 l 312 963 l 312 827 m 312 990 l 176 990 l 176 1126 l 312 1126 l 312 990 m 475 176 l 339 176 l 339 312 l 475 312 l 475 176 m 475 502 l 339 502 l 339 637 l 475 637 l 475 502 m 475 990 l 339 990 l 339 1126 l 475 1126 l 475 990 m 637 176 l 502 176 l 502 312 l 637 312 l 637 176 m 637 502 l 502 502 l 502 637 l 637 637 l 637 502 m 637 990 l 502 990 l 502 1126 l 637 1126 l 637 990 m 800 665 l 665 665 l 665 800 l 800 800 l 800 665 m 800 827 l 665 827 l 665 963 l 800 963 l 800 827 z "},"₴":{"ha":977,"x_min":14,"x_max":800,"o":"m 149 339 l 14 339 l 14 475 l 149 475 l 149 339 m 149 665 l 14 665 l 14 800 l 149 800 l 149 665 m 312 176 l 176 176 l 176 312 l 312 312 l 312 176 m 312 339 l 176 339 l 176 475 l 312 475 l 312 339 m 312 665 l 176 665 l 176 800 l 312 800 l 312 665 m 312 990 l 176 990 l 176 1126 l 312 1126 l 312 990 m 475 14 l 339 14 l 339 149 l 475 149 l 475 14 m 475 339 l 339 339 l 339 475 l 475 475 l 475 339 m 475 502 l 339 502 l 339 637 l 475 637 l 475 502 m 475 665 l 339 665 l 339 800 l 475 800 l 475 665 m 475 990 l 339 990 l 339 1126 l 475 1126 l 475 990 m 637 14 l 502 14 l 502 149 l 637 149 l 637 14 m 637 339 l 502 339 l 502 475 l 637 475 l 637 339 m 637 665 l 502 665 l 502 800 l 637 800 l 637 665 m 637 827 l 502 827 l 502 963 l 637 963 l 637 827 m 800 339 l 665 339 l 665 475 l 800 475 l 800 339 m 800 665 l 665 665 l 665 800 l 800 800 l 800 665 z "},"¢":{"ha":977,"x_min":14,"x_max":800,"o":"m 149 339 l 14 339 l 14 475 l 149 475 l 149 339 m 149 502 l 14 502 l 14 637 l 149 637 l 149 502 m 149 665 l 14 665 l 14 800 l 149 800 l 149 665 m 312 176 l 176 176 l 176 312 l 312 312 l 312 176 m 312 827 l 176 827 l 176 963 l 312 963 l 312 827 m 475 14 l 339 14 l 339 149 l 475 149 l 475 14 m 475 176 l 339 176 l 339 312 l 475 312 l 475 176 m 475 339 l 339 339 l 339 475 l 475 475 l 475 339 m 475 502 l 339 502 l 339 637 l 475 637 l 475 502 m 475 665 l 339 665 l 339 800 l 475 800 l 475 665 m 475 827 l 339 827 l 339 963 l 475 963 l 475 827 m 475 990 l 339 990 l 339 1126 l 475 1126 l 475 990 m 637 176 l 502 176 l 502 312 l 637 312 l 637 176 m 637 827 l 502 827 l 502 963 l 637 963 l 637 827 m 800 339 l 665 339 l 665 475 l 800 475 l 800 339 z "},"£":{"ha":977,"x_min":14,"x_max":800,"o":"m 149 14 l 14 14 l 14 149 l 149 149 l 149 14 m 149 502 l 14 502 l 14 637 l 149 637 l 149 502 m 312 14 l 176 14 l 176 149 l 312 149 l 312 14 m 312 176 l 176 176 l 176 312 l 312 312 l 312 176 m 312 339 l 176 339 l 176 475 l 312 475 l 312 339 m 312 502 l 176 502 l 176 637 l 312 637 l 312 502 m 312 665 l 176 665 l 176 800 l 312 800 l 312 665 m 312 827 l 176 827 l 176 963 l 312 963 l 312 827 m 475 14 l 339 14 l 339 149 l 475 149 l 475 14 m 475 502 l 339 502 l 339 637 l 475 637 l 475 502 m 475 990 l 339 990 l 339 1126 l 475 1126 l 475 990 m 637 14 l 502 14 l 502 149 l 637 149 l 637 14 m 637 502 l 502 502 l 502 637 l 637 637 l 637 502 m 637 990 l 502 990 l 502 1126 l 637 1126 l 637 990 m 800 14 l 665 14 l 665 149 l 800 149 l 800 14 m 800 990 l 665 990 l 665 1126 l 800 1126 l 800 990 z "},"¥":{"ha":977,"x_min":14,"x_max":800,"o":"m 149 339 l 14 339 l 14 475 l 149 475 l 149 339 m 149 665 l 14 665 l 14 800 l 149 800 l 149 665 m 149 990 l 14 990 l 14 1126 l 149 1126 l 149 990 m 312 339 l 176 339 l 176 475 l 312 475 l 312 339 m 312 665 l 176 665 l 176 800 l 312 800 l 312 665 m 312 827 l 176 827 l 176 963 l 312 963 l 312 827 m 475 14 l 339 14 l 339 149 l 475 149 l 475 14 m 475 176 l 339 176 l 339 312 l 475 312 l 475 176 m 475 339 l 339 339 l 339 475 l 475 475 l 475 339 m 475 502 l 339 502 l 339 637 l 475 637 l 475 502 m 475 665 l 339 665 l 339 800 l 475 800 l 475 665 m 637 339 l 502 339 l 502 475 l 637 475 l 637 339 m 637 665 l 502 665 l 502 800 l 637 800 l 637 665 m 637 827 l 502 827 l 502 963 l 637 963 l 637 827 m 800 339 l 665 339 l 665 475 l 800 475 l 800 339 m 800 665 l 665 665 l 665 800 l 800 800 l 800 665 m 800 990 l 665 990 l 665 1126 l 800 1126 l 800 990 z "},"¤":{"ha":977,"x_min":14,"x_max":800,"o":"m 149 176 l 14 176 l 14 312 l 149 312 l 149 176 m 149 827 l 14 827 l 14 963 l 149 963 l 149 827 m 312 339 l 176 339 l 176 475 l 312 475 l 312 339 m 312 502 l 176 502 l 176 637 l 312 637 l 312 502 m 312 665 l 176 665 l 176 800 l 312 800 l 312 665 m 475 339 l 339 339 l 339 475 l 475 475 l 475 339 m 475 665 l 339 665 l 339 800 l 475 800 l 475 665 m 637 339 l 502 339 l 502 475 l 637 475 l 637 339 m 637 502 l 502 502 l 502 637 l 637 637 l 637 502 m 637 665 l 502 665 l 502 800 l 637 800 l 637 665 m 800 176 l 665 176 l 665 312 l 800 312 l 800 176 m 800 827 l 665 827 l 665 963 l 800 963 l 800 827 z "},"⃀":{"ha":977,"x_min":14,"x_max":800,"o":"m 149 14 l 14 14 l 14 149 l 149 149 l 149 14 m 149 502 l 14 502 l 14 637 l 149 637 l 149 502 m 149 665 l 14 665 l 14 800 l 149 800 l 149 665 m 149 827 l 14 827 l 14 963 l 149 963 l 149 827 m 312 14 l 176 14 l 176 149 l 312 149 l 312 14 m 312 339 l 176 339 l 176 475 l 312 475 l 312 339 m 312 990 l 176 990 l 176 1126 l 312 1126 l 312 990 m 475 14 l 339 14 l 339 149 l 475 149 l 475 14 m 475 339 l 339 339 l 339 475 l 475 475 l 475 339 m 475 990 l 339 990 l 339 1126 l 475 1126 l 475 990 m 637 14 l 502 14 l 502 149 l 637 149 l 637 14 m 637 339 l 502 339 l 502 475 l 637 475 l 637 339 m 637 990 l 502 990 l 502 1126 l 637 1126 l 637 990 m 800 14 l 665 14 l 665 149 l 800 149 l 800 14 m 800 502 l 665 502 l 665 637 l 800 637 l 800 502 z "},"₿":{"ha":977,"x_min":14,"x_max":800,"o":"m 149 176 l 14 176 l 14 312 l 149 312 l 149 176 m 149 827 l 14 827 l 14 963 l 149 963 l 149 827 m 312 14 l 176 14 l 176 149 l 312 149 l 312 14 m 312 176 l 176 176 l 176 312 l 312 312 l 312 176 m 312 339 l 176 339 l 176 475 l 312 475 l 312 339 m 312 502 l 176 502 l 176 637 l 312 637 l 312 502 m 312 665 l 176 665 l 176 800 l 312 800 l 312 665 m 312 827 l 176 827 l 176 963 l 312 963 l 312 827 m 312 990 l 176 990 l 176 1126 l 312 1126 l 312 990 m 475 176 l 339 176 l 339 312 l 475 312 l 475 176 m 475 502 l 339 502 l 339 637 l 475 637 l 475 502 m 475 827 l 339 827 l 339 963 l 475 963 l 475 827 m 637 14 l 502 14 l 502 149 l 637 149 l 637 14 m 637 176 l 502 176 l 502 312 l 637 312 l 637 176 m 637 502 l 502 502 l 502 637 l 637 637 l 637 502 m 637 827 l 502 827 l 502 963 l 637 963 l 637 827 m 637 990 l 502 990 l 502 1126 l 637 1126 l 637 990 m 800 339 l 665 339 l 665 475 l 800 475 l 800 339 m 800 665 l 665 665 l 665 800 l 800 800 l 800 665 z "},"₸":{"ha":977,"x_min":14,"x_max":800,"o":"m 149 665 l 14 665 l 14 800 l 149 800 l 149 665 m 149 990 l 14 990 l 14 1126 l 149 1126 l 149 990 m 312 665 l 176 665 l 176 800 l 312 800 l 312 665 m 312 990 l 176 990 l 176 1126 l 312 1126 l 312 990 m 475 14 l 339 14 l 339 149 l 475 149 l 475 14 m 475 176 l 339 176 l 339 312 l 475 312 l 475 176 m 475 339 l 339 339 l 339 475 l 475 475 l 475 339 m 475 502 l 339 502 l 339 637 l 475 637 l 475 502 m 475 665 l 339 665 l 339 800 l 475 800 l 475 665 m 475 990 l 339 990 l 339 1126 l 475 1126 l 475 990 m 637 665 l 502 665 l 502 800 l 637 800 l 637 665 m 637 990 l 502 990 l 502 1126 l 637 1126 l 637 990 m 800 665 l 665 665 l 665 800 l 800 800 l 800 665 m 800 990 l 665 990 l 665 1126 l 800 1126 l 800 990 z "},"〒":{"ha":977,"x_min":14,"x_max":800,"o":"m 149 665 l 14 665 l 14 800 l 149 800 l 149 665 m 149 990 l 14 990 l 14 1126 l 149 1126 l 149 990 m 312 665 l 176 665 l 176 800 l 312 800 l 312 665 m 312 990 l 176 990 l 176 1126 l 312 1126 l 312 990 m 475 14 l 339 14 l 339 149 l 475 149 l 475 14 m 475 176 l 339 176 l 339 312 l 475 312 l 475 176 m 475 339 l 339 339 l 339 475 l 475 475 l 475 339 m 475 502 l 339 502 l 339 637 l 475 637 l 475 502 m 475 665 l 339 665 l 339 800 l 475 800 l 475 665 m 475 990 l 339 990 l 339 1126 l 475 1126 l 475 990 m 637 665 l 502 665 l 502 800 l 637 800 l 637 665 m 637 990 l 502 990 l 502 1126 l 637 1126 l 637 990 m 800 665 l 665 665 l 665 800 l 800 800 l 800 665 m 800 990 l 665 990 l 665 1126 l 800 1126 l 800 990 z "},"円":{"ha":977,"x_min":14,"x_max":800,"o":"m 149 14 l 14 14 l 14 149 l 149 149 l 149 14 m 149 176 l 14 176 l 14 312 l 149 312 l 149 176 m 149 339 l 14 339 l 14 475 l 149 475 l 149 339 m 149 502 l 14 502 l 14 637 l 149 637 l 149 502 m 149 665 l 14 665 l 14 800 l 149 800 l 149 665 m 149 827 l 14 827 l 14 963 l 149 963 l 149 827 m 149 990 l 14 990 l 14 1126 l 149 1126 l 149 990 m 312 502 l 176 502 l 176 637 l 312 637 l 312 502 m 312 990 l 176 990 l 176 1126 l 312 1126 l 312 990 m 475 502 l 339 502 l 339 637 l 475 637 l 475 502 m 475 665 l 339 665 l 339 800 l 475 800 l 475 665 m 475 827 l 339 827 l 339 963 l 475 963 l 475 827 m 475 990 l 339 990 l 339 1126 l 475 1126 l 475 990 m 637 502 l 502 502 l 502 637 l 637 637 l 637 502 m 637 990 l 502 990 l 502 1126 l 637 1126 l 637 990 m 800 14 l 665 14 l 665 149 l 800 149 l 800 14 m 800 176 l 665 176 l 665 312 l 800 312 l 800 176 m 800 339 l 665 339 l 665 475 l 800 475 l 800 339 m 800 502 l 665 502 l 665 637 l 800 637 l 800 502 m 800 665 l 665 665 l 665 800 l 800 800 l 800 665 m 800 827 l 665 827 l 665 963 l 800 963 l 800 827 m 800 990 l 665 990 l 665 1126 l 800 1126 l 800 990 z "},"元":{"ha":977,"x_min":14,"x_max":800,"o":"m 149 14 l 14 14 l 14 149 l 149 149 l 149 14 m 149 665 l 14 665 l 14 800 l 149 800 l 149 665 m 312 176 l 176 176 l 176 312 l 312 312 l 312 176 m 312 339 l 176 339 l 176 475 l 312 475 l 312 339 m 312 502 l 176 502 l 176 637 l 312 637 l 312 502 m 312 665 l 176 665 l 176 800 l 312 800 l 312 665 m 312 990 l 176 990 l 176 1126 l 312 1126 l 312 990 m 475 665 l 339 665 l 339 800 l 475 800 l 475 665 m 475 990 l 339 990 l 339 1126 l 475 1126 l 475 990 m 637 14 l 502 14 l 502 149 l 637 149 l 637 14 m 637 176 l 502 176 l 502 312 l 637 312 l 637 176 m 637 339 l 502 339 l 502 475 l 637 475 l 637 339 m 637 502 l 502 502 l 502 637 l 637 637 l 637 502 m 637 665 l 502 665 l 502 800 l 637 800 l 637 665 m 637 990 l 502 990 l 502 1126 l 637 1126 l 637 990 m 800 14 l 665 14 l 665 149 l 800 149 l 800 14 m 800 665 l 665 665 l 665 800 l 800 800 l 800 665 z "},"`":{"ha":977,"x_min":176,"x_max":637,"o":"m 312 990 l 176 990 l 176 1126 l 312 1126 l 312 990 m 475 827 l 339 827 l 339 963 l 475 963 l 475 827 m 637 665 l 502 665 l 502 800 l 637 800 l 637 665 z "},"↓":{"ha":977,"x_min":14,"x_max":800,"o":"m 149 502 l 14 502 l 14 637 l 149 637 l 149 502 m 312 339 l 176 339 l 176 475 l 312 475 l 312 339 m 475 176 l 339 176 l 339 312 l 475 312 l 475 176 m 475 339 l 339 339 l 339 475 l 475 475 l 475 339 m 475 502 l 339 502 l 339 637 l 475 637 l 475 502 m 475 665 l 339 665 l 339 800 l 475 800 l 475 665 m 475 827 l 339 827 l 339 963 l 475 963 l 475 827 m 475 990 l 339 990 l 339 1126 l 475 1126 l 475 990 m 637 339 l 502 339 l 502 475 l 637 475 l 637 339 m 800 502 l 665 502 l 665 637 l 800 637 l 800 502 z "},"↑":{"ha":977,"x_min":14,"x_max":800,"o":"m 149 502 l 14 502 l 14 637 l 149 637 l 149 502 m 312 665 l 176 665 l 176 800 l 312 800 l 312 665 m 475 14 l 339 14 l 339 149 l 475 149 l 475 14 m 475 176 l 339 176 l 339 312 l 475 312 l 475 176 m 475 339 l 339 339 l 339 475 l 475 475 l 475 339 m 475 502 l 339 502 l 339 637 l 475 637 l 475 502 m 475 665 l 339 665 l 339 800 l 475 800 l 475 665 m 475 827 l 339 827 l 339 963 l 475 963 l 475 827 m 637 665 l 502 665 l 502 800 l 637 800 l 637 665 m 800 502 l 665 502 l 665 637 l 800 637 l 800 502 z "},"←":{"ha":977,"x_min":14,"x_max":800,"o":"m 149 502 l 14 502 l 14 637 l 149 637 l 149 502 m 312 339 l 176 339 l 176 475 l 312 475 l 312 339 m 312 502 l 176 502 l 176 637 l 312 637 l 312 502 m 312 665 l 176 665 l 176 800 l 312 800 l 312 665 m 475 176 l 339 176 l 339 312 l 475 312 l 475 176 m 475 502 l 339 502 l 339 637 l 475 637 l 475 502 m 475 827 l 339 827 l 339 963 l 475 963 l 475 827 m 637 502 l 502 502 l 502 637 l 637 637 l 637 502 m 800 502 l 665 502 l 665 637 l 800 637 l 800 502 z "},"→":{"ha":977,"x_min":14,"x_max":800,"o":"m 149 502 l 14 502 l 14 637 l 149 637 l 149 502 m 312 502 l 176 502 l 176 637 l 312 637 l 312 502 m 475 176 l 339 176 l 339 312 l 475 312 l 475 176 m 475 502 l 339 502 l 339 637 l 475 637 l 475 502 m 475 827 l 339 827 l 339 963 l 475 963 l 475 827 m 637 339 l 502 339 l 502 475 l 637 475 l 637 339 m 637 502 l 502 502 l 502 637 l 637 637 l 637 502 m 637 665 l 502 665 l 502 800 l 637 800 l 637 665 m 800 502 l 665 502 l 665 637 l 800 637 l 800 502 z "},"◆":{"ha":977,"x_min":14,"x_max":800,"o":"m 149 502 l 14 502 l 14 637 l 149 637 l 149 502 m 312 339 l 176 339 l 176 475 l 312 475 l 312 339 m 312 502 l 176 502 l 176 637 l 312 637 l 312 502 m 312 665 l 176 665 l 176 800 l 312 800 l 312 665 m 475 176 l 339 176 l 339 312 l 475 312 l 475 176 m 475 339 l 339 339 l 339 475 l 475 475 l 475 339 m 475 502 l 339 502 l 339 637 l 475 637 l 475 502 m 475 665 l 339 665 l 339 800 l 475 800 l 475 665 m 475 827 l 339 827 l 339 963 l 475 963 l 475 827 m 637 339 l 502 339 l 502 475 l 637 475 l 637 339 m 637 502 l 502 502 l 502 637 l 637 637 l 637 502 m 637 665 l 502 665 l 502 800 l 637 800 l 637 665 m 800 502 l 665 502 l 665 637 l 800 637 l 800 502 z "},"‼":{"ha":977,"x_min":176,"x_max":637,"o":"m 312 14 l 176 14 l 176 149 l 312 149 l 312 14 m 312 502 l 176 502 l 176 637 l 312 637 l 312 502 m 312 665 l 176 665 l 176 800 l 312 800 l 312 665 m 312 827 l 176 827 l 176 963 l 312 963 l 312 827 m 312 990 l 176 990 l 176 1126 l 312 1126 l 312 990 m 637 14 l 502 14 l 502 149 l 637 149 l 637 14 m 637 502 l 502 502 l 502 637 l 637 637 l 637 502 m 637 665 l 502 665 l 502 800 l 637 800 l 637 665 m 637 827 l 502 827 l 502 963 l 637 963 l 637 827 m 637 990 l 502 990 l 502 1126 l 637 1126 l 637 990 z "},"▮":{"ha":977,"x_min":14,"x_max":800,"o":"m 149 14 l 14 14 l 14 149 l 149 149 l 149 14 m 149 176 l 14 176 l 14 312 l 149 312 l 149 176 m 149 339 l 14 339 l 14 475 l 149 475 l 149 339 m 149 502 l 14 502 l 14 637 l 149 637 l 149 502 m 149 665 l 14 665 l 14 800 l 149 800 l 149 665 m 149 827 l 14 827 l 14 963 l 149 963 l 149 827 m 149 990 l 14 990 l 14 1126 l 149 1126 l 149 990 m 312 14 l 176 14 l 176 149 l 312 149 l 312 14 m 312 176 l 176 176 l 176 312 l 312 312 l 312 176 m 312 339 l 176 339 l 176 475 l 312 475 l 312 339 m 312 502 l 176 502 l 176 637 l 312 637 l 312 502 m 312 665 l 176 665 l 176 800 l 312 800 l 312 665 m 312 827 l 176 827 l 176 963 l 312 963 l 312 827 m 312 990 l 176 990 l 176 1126 l 312 1126 l 312 990 m 475 14 l 339 14 l 339 149 l 475 149 l 475 14 m 475 176 l 339 176 l 339 312 l 475 312 l 475 176 m 475 339 l 339 339 l 339 475 l 475 475 l 475 339 m 475 502 l 339 502 l 339 637 l 475 637 l 475 502 m 475 665 l 339 665 l 339 800 l 475 800 l 475 665 m 475 827 l 339 827 l 339 963 l 475 963 l 475 827 m 475 990 l 339 990 l 339 1126 l 475 1126 l 475 990 m 637 14 l 502 14 l 502 149 l 637 149 l 637 14 m 637 176 l 502 176 l 502 312 l 637 312 l 637 176 m 637 339 l 502 339 l 502 475 l 637 475 l 637 339 m 637 502 l 502 502 l 502 637 l 637 637 l 637 502 m 637 665 l 502 665 l 502 800 l 637 800 l 637 665 m 637 827 l 502 827 l 502 963 l 637 963 l 637 827 m 637 990 l 502 990 l 502 1126 l 637 1126 l 637 990 m 800 14 l 665 14 l 665 149 l 800 149 l 800 14 m 800 176 l 665 176 l 665 312 l 800 312 l 800 176 m 800 339 l 665 339 l 665 475 l 800 475 l 800 339 m 800 502 l 665 502 l 665 637 l 800 637 l 800 502 m 800 665 l 665 665 l 665 800 l 800 800 l 800 665 m 800 827 l 665 827 l 665 963 l 800 963 l 800 827 m 800 990 l 665 990 l 665 1126 l 800 1126 l 800 990 z "},"ẞ":{"ha":977,"x_min":14,"x_max":800,"o":"m 149 14 l 14 14 l 14 149 l 149 149 l 149 14 m 149 176 l 14 176 l 14 312 l 149 312 l 149 176 m 149 339 l 14 339 l 14 475 l 149 475 l 149 339 m 149 502 l 14 502 l 14 637 l 149 637 l 149 502 m 149 665 l 14 665 l 14 800 l 149 800 l 149 665 m 149 827 l 14 827 l 14 963 l 149 963 l 149 827 m 312 990 l 176 990 l 176 1126 l 312 1126 l 312 990 m 475 176 l 339 176 l 339 312 l 475 312 l 475 176 m 475 665 l 339 665 l 339 800 l 475 800 l 475 665 m 475 990 l 339 990 l 339 1126 l 475 1126 l 475 990 m 637 176 l 502 176 l 502 312 l 637 312 l 637 176 m 637 665 l 502 665 l 502 800 l 637 800 l 637 665 m 637 990 l 502 990 l 502 1126 l 637 1126 l 637 990 m 800 339 l 665 339 l 665 475 l 800 475 l 800 339 m 800 502 l 665 502 l 665 637 l 800 637 l 800 502 m 800 827 l 665 827 l 665 963 l 800 963 l 800 827 m 800 990 l 665 990 l 665 1126 l 800 1126 l 800 990 z "},"ß":{"ha":977,"x_min":14,"x_max":800,"o":"m 149 14 l 14 14 l 14 149 l 149 149 l 149 14 m 149 176 l 14 176 l 14 312 l 149 312 l 149 176 m 149 339 l 14 339 l 14 475 l 149 475 l 149 339 m 149 502 l 14 502 l 14 637 l 149 637 l 149 502 m 149 665 l 14 665 l 14 800 l 149 800 l 149 665 m 149 827 l 14 827 l 14 963 l 149 963 l 149 827 m 312 990 l 176 990 l 176 1126 l 312 1126 l 312 990 m 475 176 l 339 176 l 339 312 l 475 312 l 475 176 m 475 665 l 339 665 l 339 800 l 475 800 l 475 665 m 475 990 l 339 990 l 339 1126 l 475 1126 l 475 990 m 637 176 l 502 176 l 502 312 l 637 312 l 637 176 m 637 665 l 502 665 l 502 800 l 637 800 l 637 665 m 637 827 l 502 827 l 502 963 l 637 963 l 637 827 m 800 339 l 665 339 l 665 475 l 800 475 l 800 339 m 800 502 l 665 502 l 665 637 l 800 637 l 800 502 z "},"℃":{"ha":977,"x_min":14,"x_max":800,"o":"m 149 827 l 14 827 l 14 963 l 149 963 l 149 827 m 149 990 l 14 990 l 14 1126 l 149 1126 l 149 990 m 312 176 l 176 176 l 176 312 l 312 312 l 312 176 m 312 339 l 176 339 l 176 475 l 312 475 l 312 339 m 312 502 l 176 502 l 176 637 l 312 637 l 312 502 m 312 827 l 176 827 l 176 963 l 312 963 l 312 827 m 312 990 l 176 990 l 176 1126 l 312 1126 l 312 990 m 475 14 l 339 14 l 339 149 l 475 149 l 475 14 m 475 665 l 339 665 l 339 800 l 475 800 l 475 665 m 637 14 l 502 14 l 502 149 l 637 149 l 637 14 m 637 665 l 502 665 l 502 800 l 637 800 l 637 665 m 800 14 l 665 14 l 665 149 l 800 149 l 800 14 m 800 665 l 665 665 l 665 800 l 800 800 l 800 665 z "},"℉":{"ha":977,"x_min":14,"x_max":800,"o":"m 149 827 l 14 827 l 14 963 l 149 963 l 149 827 m 149 990 l 14 990 l 14 1126 l 149 1126 l 149 990 m 312 827 l 176 827 l 176 963 l 312 963 l 312 827 m 312 990 l 176 990 l 176 1126 l 312 1126 l 312 990 m 475 14 l 339 14 l 339 149 l 475 149 l 475 14 m 475 176 l 339 176 l 339 312 l 475 312 l 475 176 m 475 339 l 339 339 l 339 475 l 475 475 l 475 339 m 475 502 l 339 502 l 339 637 l 475 637 l 475 502 m 475 665 l 339 665 l 339 800 l 475 800 l 475 665 m 637 339 l 502 339 l 502 475 l 637 475 l 637 339 m 637 665 l 502 665 l 502 800 l 637 800 l 637 665 m 800 339 l 665 339 l 665 475 l 800 475 l 800 339 m 800 665 l 665 665 l 665 800 l 800 800 l 800 665 z "},"⁕":{"ha":977,"x_min":14,"x_max":800,"o":"m 149 176 l 14 176 l 14 312 l 149 312 l 149 176 m 149 502 l 14 502 l 14 637 l 149 637 l 149 502 m 149 827 l 14 827 l 14 963 l 149 963 l 149 827 m 312 339 l 176 339 l 176 475 l 312 475 l 312 339 m 312 502 l 176 502 l 176 637 l 312 637 l 312 502 m 312 665 l 176 665 l 176 800 l 312 800 l 312 665 m 475 14 l 339 14 l 339 149 l 475 149 l 475 14 m 475 176 l 339 176 l 339 312 l 475 312 l 475 176 m 475 339 l 339 339 l 339 475 l 475 475 l 475 339 m 475 502 l 339 502 l 339 637 l 475 637 l 475 502 m 475 665 l 339 665 l 339 800 l 475 800 l 475 665 m 475 827 l 339 827 l 339 963 l 475 963 l 475 827 m 475 990 l 339 990 l 339 1126 l 475 1126 l 475 990 m 637 339 l 502 339 l 502 475 l 637 475 l 637 339 m 637 502 l 502 502 l 502 637 l 637 637 l 637 502 m 637 665 l 502 665 l 502 800 l 637 800 l 637 665 m 800 176 l 665 176 l 665 312 l 800 312 l 800 176 m 800 502 l 665 502 l 665 637 l 800 637 l 800 502 m 800 827 l 665 827 l 665 963 l 800 963 l 800 827 z "},"خ":{"ha":977,"x_min":14,"x_max":800,"o":"m 149 339 l 14 339 l 14 475 l 149 475 l 149 339 m 312 339 l 176 339 l 176 475 l 312 475 l 312 339 m 312 665 l 176 665 l 176 800 l 312 800 l 312 665 m 475 339 l 339 339 l 339 475 l 475 475 l 475 339 m 475 665 l 339 665 l 339 800 l 475 800 l 475 665 m 475 990 l 339 990 l 339 1126 l 475 1126 l 475 990 m 637 502 l 502 502 l 502 637 l 637 637 l 637 502 m 637 665 l 502 665 l 502 800 l 637 800 l 637 665 m 800 665 l 665 665 l 665 800 l 800 800 l 800 665 z "},"ح":{"ha":977,"x_min":14,"x_max":800,"o":"m 149 339 l 14 339 l 14 475 l 149 475 l 149 339 m 312 339 l 176 339 l 176 475 l 312 475 l 312 339 m 312 665 l 176 665 l 176 800 l 312 800 l 312 665 m 475 339 l 339 339 l 339 475 l 475 475 l 475 339 m 475 665 l 339 665 l 339 800 l 475 800 l 475 665 m 637 502 l 502 502 l 502 637 l 637 637 l 637 502 m 637 665 l 502 665 l 502 800 l 637 800 l 637 665 m 800 665 l 665 665 l 665 800 l 800 800 l 800 665 z "},"ج":{"ha":977,"x_min":14,"x_max":800,"o":"m 149 339 l 14 339 l 14 475 l 149 475 l 149 339 m 312 339 l 176 339 l 176 475 l 312 475 l 312 339 m 312 665 l 176 665 l 176 800 l 312 800 l 312 665 m 475 14 l 339 14 l 339 149 l 475 149 l 475 14 m 475 339 l 339 339 l 339 475 l 475 475 l 475 339 m 475 665 l 339 665 l 339 800 l 475 800 l 475 665 m 637 502 l 502 502 l 502 637 l 637 637 l 637 502 m 637 665 l 502 665 l 502 800 l 637 800 l 637 665 m 800 665 l 665 665 l 665 800 l 800 800 l 800 665 z "},"ث":{"ha":977,"x_min":14,"x_max":800,"o":"m 149 339 l 14 339 l 14 475 l 149 475 l 149 339 m 312 339 l 176 339 l 176 475 l 312 475 l 312 339 m 312 665 l 176 665 l 176 800 l 312 800 l 312 665 m 475 339 l 339 339 l 339 475 l 475 475 l 475 339 m 475 665 l 339 665 l 339 800 l 475 800 l 475 665 m 475 827 l 339 827 l 339 963 l 475 963 l 475 827 m 637 339 l 502 339 l 502 475 l 637 475 l 637 339 m 800 339 l 665 339 l 665 475 l 800 475 l 800 339 m 800 502 l 665 502 l 665 637 l 800 637 l 800 502 z "},"ت":{"ha":977,"x_min":14,"x_max":800,"o":"m 149 339 l 14 339 l 14 475 l 149 475 l 149 339 m 312 339 l 176 339 l 176 475 l 312 475 l 312 339 m 312 665 l 176 665 l 176 800 l 312 800 l 312 665 m 475 339 l 339 339 l 339 475 l 475 475 l 475 339 m 475 665 l 339 665 l 339 800 l 475 800 l 475 665 m 637 339 l 502 339 l 502 475 l 637 475 l 637 339 m 800 339 l 665 339 l 665 475 l 800 475 l 800 339 m 800 502 l 665 502 l 665 637 l 800 637 l 800 502 z "},"ب":{"ha":977,"x_min":14,"x_max":800,"o":"m 149 339 l 14 339 l 14 475 l 149 475 l 149 339 m 312 339 l 176 339 l 176 475 l 312 475 l 312 339 m 475 14 l 339 14 l 339 149 l 475 149 l 475 14 m 475 339 l 339 339 l 339 475 l 475 475 l 475 339 m 637 339 l 502 339 l 502 475 l 637 475 l 637 339 m 800 339 l 665 339 l 665 475 l 800 475 l 800 339 m 800 502 l 665 502 l 665 637 l 800 637 l 800 502 z "},"ا":{"ha":977,"x_min":665,"x_max":800,"o":"m 800 339 l 665 339 l 665 475 l 800 475 l 800 339 m 800 502 l 665 502 l 665 637 l 800 637 l 800 502 m 800 665 l 665 665 l 665 800 l 800 800 l 800 665 m 800 827 l 665 827 l 665 963 l 800 963 l 800 827 m 800 990 l 665 990 l 665 1126 l 800 1126 l 800 990 z "},"ص":{"ha":977,"x_min":14,"x_max":800,"o":"m 149 339 l 14 339 l 14 475 l 149 475 l 149 339 m 312 502 l 176 502 l 176 637 l 312 637 l 312 502 m 312 665 l 176 665 l 176 800 l 312 800 l 312 665 m 475 339 l 339 339 l 339 475 l 475 475 l 475 339 m 475 502 l 339 502 l 339 637 l 475 637 l 475 502 m 637 339 l 502 339 l 502 475 l 637 475 l 637 339 m 637 665 l 502 665 l 502 800 l 637 800 l 637 665 m 800 339 l 665 339 l 665 475 l 800 475 l 800 339 m 800 502 l 665 502 l 665 637 l 800 637 l 800 502 m 800 665 l 665 665 l 665 800 l 800 800 l 800 665 z "},"ش":{"ha":977,"x_min":14,"x_max":800,"o":"m 149 339 l 14 339 l 14 475 l 149 475 l 149 339 m 312 339 l 176 339 l 176 475 l 312 475 l 312 339 m 312 502 l 176 502 l 176 637 l 312 637 l 312 502 m 312 827 l 176 827 l 176 963 l 312 963 l 312 827 m 475 339 l 339 339 l 339 475 l 475 475 l 475 339 m 475 827 l 339 827 l 339 963 l 475 963 l 475 827 m 475 990 l 339 990 l 339 1126 l 475 1126 l 475 990 m 637 339 l 502 339 l 502 475 l 637 475 l 637 339 m 637 502 l 502 502 l 502 637 l 637 637 l 637 502 m 800 502 l 665 502 l 665 637 l 800 637 l 800 502 m 800 665 l 665 665 l 665 800 l 800 800 l 800 665 z "},"س":{"ha":977,"x_min":14,"x_max":800,"o":"m 149 339 l 14 339 l 14 475 l 149 475 l 149 339 m 312 339 l 176 339 l 176 475 l 312 475 l 312 339 m 312 502 l 176 502 l 176 637 l 312 637 l 312 502 m 475 339 l 339 339 l 339 475 l 475 475 l 475 339 m 637 339 l 502 339 l 502 475 l 637 475 l 637 339 m 637 502 l 502 502 l 502 637 l 637 637 l 637 502 m 800 502 l 665 502 l 665 637 l 800 637 l 800 502 m 800 665 l 665 665 l 665 800 l 800 800 l 800 665 z "},"ز":{"ha":977,"x_min":176,"x_max":800,"o":"m 312 176 l 176 176 l 176 312 l 312 312 l 312 176 m 475 176 l 339 176 l 339 312 l 475 312 l 475 176 m 637 339 l 502 339 l 502 475 l 637 475 l 637 339 m 637 990 l 502 990 l 502 1126 l 637 1126 l 637 990 m 800 502 l 665 502 l 665 637 l 800 637 l 800 502 m 800 665 l 665 665 l 665 800 l 800 800 l 800 665 z "},"ر":{"ha":977,"x_min":176,"x_max":800,"o":"m 312 176 l 176 176 l 176 312 l 312 312 l 312 176 m 475 176 l 339 176 l 339 312 l 475 312 l 475 176 m 637 339 l 502 339 l 502 475 l 637 475 l 637 339 m 800 502 l 665 502 l 665 637 l 800 637 l 800 502 m 800 665 l 665 665 l 665 800 l 800 800 l 800 665 z "},"ذ":{"ha":977,"x_min":176,"x_max":800,"o":"m 312 176 l 176 176 l 176 312 l 312 312 l 312 176 m 475 176 l 339 176 l 339 312 l 475 312 l 475 176 m 475 665 l 339 665 l 339 800 l 475 800 l 475 665 m 475 990 l 339 990 l 339 1126 l 475 1126 l 475 990 m 637 339 l 502 339 l 502 475 l 637 475 l 637 339 m 637 665 l 502 665 l 502 800 l 637 800 l 637 665 m 800 502 l 665 502 l 665 637 l 800 637 l 800 502 z "},"د":{"ha":977,"x_min":176,"x_max":800,"o":"m 312 176 l 176 176 l 176 312 l 312 312 l 312 176 m 475 176 l 339 176 l 339 312 l 475 312 l 475 176 m 475 665 l 339 665 l 339 800 l 475 800 l 475 665 m 637 339 l 502 339 l 502 475 l 637 475 l 637 339 m 637 665 l 502 665 l 502 800 l 637 800 l 637 665 m 800 502 l 665 502 l 665 637 l 800 637 l 800 502 z "},"ق":{"ha":977,"x_min":14,"x_max":800,"o":"m 149 339 l 14 339 l 14 475 l 149 475 l 149 339 m 312 339 l 176 339 l 176 475 l 312 475 l 312 339 m 475 339 l 339 339 l 339 475 l 475 475 l 475 339 m 475 502 l 339 502 l 339 637 l 475 637 l 475 502 m 475 665 l 339 665 l 339 800 l 475 800 l 475 665 m 475 990 l 339 990 l 339 1126 l 475 1126 l 475 990 m 637 339 l 502 339 l 502 475 l 637 475 l 637 339 m 637 665 l 502 665 l 502 800 l 637 800 l 637 665 m 637 990 l 502 990 l 502 1126 l 637 1126 l 637 990 m 800 339 l 665 339 l 665 475 l 800 475 l 800 339 m 800 502 l 665 502 l 665 637 l 800 637 l 800 502 m 800 665 l 665 665 l 665 800 l 800 800 l 800 665 z "},"ف":{"ha":977,"x_min":14,"x_max":800,"o":"m 149 339 l 14 339 l 14 475 l 149 475 l 149 339 m 312 339 l 176 339 l 176 475 l 312 475 l 312 339 m 475 339 l 339 339 l 339 475 l 475 475 l 475 339 m 475 502 l 339 502 l 339 637 l 475 637 l 475 502 m 475 665 l 339 665 l 339 800 l 475 800 l 475 665 m 637 339 l 502 339 l 502 475 l 637 475 l 637 339 m 637 665 l 502 665 l 502 800 l 637 800 l 637 665 m 637 990 l 502 990 l 502 1126 l 637 1126 l 637 990 m 800 339 l 665 339 l 665 475 l 800 475 l 800 339 m 800 502 l 665 502 l 665 637 l 800 637 l 800 502 m 800 665 l 665 665 l 665 800 l 800 800 l 800 665 z "},"غ":{"ha":977,"x_min":14,"x_max":800,"o":"m 149 339 l 14 339 l 14 475 l 149 475 l 149 339 m 312 339 l 176 339 l 176 475 l 312 475 l 312 339 m 475 339 l 339 339 l 339 475 l 475 475 l 475 339 m 475 502 l 339 502 l 339 637 l 475 637 l 475 502 m 637 339 l 502 339 l 502 475 l 637 475 l 637 339 m 637 665 l 502 665 l 502 800 l 637 800 l 637 665 m 637 990 l 502 990 l 502 1126 l 637 1126 l 637 990 m 800 339 l 665 339 l 665 475 l 800 475 l 800 339 m 800 665 l 665 665 l 665 800 l 800 800 l 800 665 z "},"ع":{"ha":977,"x_min":14,"x_max":800,"o":"m 149 339 l 14 339 l 14 475 l 149 475 l 149 339 m 312 339 l 176 339 l 176 475 l 312 475 l 312 339 m 475 339 l 339 339 l 339 475 l 475 475 l 475 339 m 475 502 l 339 502 l 339 637 l 475 637 l 475 502 m 637 339 l 502 339 l 502 475 l 637 475 l 637 339 m 637 665 l 502 665 l 502 800 l 637 800 l 637 665 m 800 339 l 665 339 l 665 475 l 800 475 l 800 339 m 800 665 l 665 665 l 665 800 l 800 800 l 800 665 z "},"ظ":{"ha":977,"x_min":14,"x_max":800,"o":"m 149 339 l 14 339 l 14 475 l 149 475 l 149 339 m 312 339 l 176 339 l 176 475 l 312 475 l 312 339 m 312 502 l 176 502 l 176 637 l 312 637 l 312 502 m 312 665 l 176 665 l 176 800 l 312 800 l 312 665 m 312 827 l 176 827 l 176 963 l 312 963 l 312 827 m 312 990 l 176 990 l 176 1126 l 312 1126 l 312 990 m 475 339 l 339 339 l 339 475 l 475 475 l 475 339 m 475 665 l 339 665 l 339 800 l 475 800 l 475 665 m 637 339 l 502 339 l 502 475 l 637 475 l 637 339 m 637 665 l 502 665 l 502 800 l 637 800 l 637 665 m 637 990 l 502 990 l 502 1126 l 637 1126 l 637 990 m 800 502 l 665 502 l 665 637 l 800 637 l 800 502 z "},"ط":{"ha":977,"x_min":14,"x_max":800,"o":"m 149 339 l 14 339 l 14 475 l 149 475 l 149 339 m 312 339 l 176 339 l 176 475 l 312 475 l 312 339 m 312 502 l 176 502 l 176 637 l 312 637 l 312 502 m 312 665 l 176 665 l 176 800 l 312 800 l 312 665 m 312 827 l 176 827 l 176 963 l 312 963 l 312 827 m 312 990 l 176 990 l 176 1126 l 312 1126 l 312 990 m 475 339 l 339 339 l 339 475 l 475 475 l 475 339 m 475 665 l 339 665 l 339 800 l 475 800 l 475 665 m 637 339 l 502 339 l 502 475 l 637 475 l 637 339 m 637 665 l 502 665 l 502 800 l 637 800 l 637 665 m 800 502 l 665 502 l 665 637 l 800 637 l 800 502 z "},"ض":{"ha":977,"x_min":14,"x_max":800,"o":"m 149 339 l 14 339 l 14 475 l 149 475 l 149 339 m 312 502 l 176 502 l 176 637 l 312 637 l 312 502 m 312 665 l 176 665 l 176 800 l 312 800 l 312 665 m 475 339 l 339 339 l 339 475 l 475 475 l 475 339 m 475 502 l 339 502 l 339 637 l 475 637 l 475 502 m 475 990 l 339 990 l 339 1126 l 475 1126 l 475 990 m 637 339 l 502 339 l 502 475 l 637 475 l 637 339 m 637 665 l 502 665 l 502 800 l 637 800 l 637 665 m 800 339 l 665 339 l 665 475 l 800 475 l 800 339 m 800 502 l 665 502 l 665 637 l 800 637 l 800 502 m 800 665 l 665 665 l 665 800 l 800 800 l 800 665 z "},"ك":{"ha":977,"x_min":339,"x_max":637,"o":"m 475 176 l 339 176 l 339 312 l 475 312 l 475 176 m 475 502 l 339 502 l 339 637 l 475 637 l 475 502 m 475 665 l 339 665 l 339 800 l 475 800 l 475 665 m 637 339 l 502 339 l 502 475 l 637 475 l 637 339 m 637 665 l 502 665 l 502 800 l 637 800 l 637 665 z "},"ه":{"ha":977,"x_min":14,"x_max":800,"o":"m 149 339 l 14 339 l 14 475 l 149 475 l 149 339 m 312 339 l 176 339 l 176 475 l 312 475 l 312 339 m 312 502 l 176 502 l 176 637 l 312 637 l 312 502 m 312 665 l 176 665 l 176 800 l 312 800 l 312 665 m 475 339 l 339 339 l 339 475 l 475 475 l 475 339 m 475 502 l 339 502 l 339 637 l 475 637 l 475 502 m 475 827 l 339 827 l 339 963 l 475 963 l 475 827 m 637 339 l 502 339 l 502 475 l 637 475 l 637 339 m 637 665 l 502 665 l 502 800 l 637 800 l 637 665 m 637 827 l 502 827 l 502 963 l 637 963 l 637 827 m 800 502 l 665 502 l 665 637 l 800 637 l 800 502 m 800 665 l 665 665 l 665 800 l 800 800 l 800 665 m 800 827 l 665 827 l 665 963 l 800 963 l 800 827 z "},"و":{"ha":977,"x_min":176,"x_max":800,"o":"m 312 176 l 176 176 l 176 312 l 312 312 l 312 176 m 475 176 l 339 176 l 339 312 l 475 312 l 475 176 m 475 502 l 339 502 l 339 637 l 475 637 l 475 502 m 475 665 l 339 665 l 339 800 l 475 800 l 475 665 m 475 827 l 339 827 l 339 963 l 475 963 l 475 827 m 637 176 l 502 176 l 502 312 l 637 312 l 637 176 m 637 502 l 502 502 l 502 637 l 637 637 l 637 502 m 637 827 l 502 827 l 502 963 l 637 963 l 637 827 m 800 339 l 665 339 l 665 475 l 800 475 l 800 339 m 800 502 l 665 502 l 665 637 l 800 637 l 800 502 m 800 665 l 665 665 l 665 800 l 800 800 l 800 665 z "},"ن":{"ha":977,"x_min":14,"x_max":800,"o":"m 149 339 l 14 339 l 14 475 l 149 475 l 149 339 m 312 339 l 176 339 l 176 475 l 312 475 l 312 339 m 475 339 l 339 339 l 339 475 l 475 475 l 475 339 m 475 827 l 339 827 l 339 963 l 475 963 l 475 827 m 637 339 l 502 339 l 502 475 l 637 475 l 637 339 m 800 502 l 665 502 l 665 637 l 800 637 l 800 502 m 800 665 l 665 665 l 665 800 l 800 800 l 800 665 z "},"م":{"ha":977,"x_min":14,"x_max":800,"o":"m 149 176 l 14 176 l 14 312 l 149 312 l 149 176 m 312 339 l 176 339 l 176 475 l 312 475 l 312 339 m 475 339 l 339 339 l 339 475 l 475 475 l 475 339 m 475 502 l 339 502 l 339 637 l 475 637 l 475 502 m 637 339 l 502 339 l 502 475 l 637 475 l 637 339 m 637 665 l 502 665 l 502 800 l 637 800 l 637 665 m 800 339 l 665 339 l 665 475 l 800 475 l 800 339 m 800 502 l 665 502 l 665 637 l 800 637 l 800 502 z "},"ل":{"ha":977,"x_min":14,"x_max":800,"o":"m 149 339 l 14 339 l 14 475 l 149 475 l 149 339 m 312 176 l 176 176 l 176 312 l 312 312 l 312 176 m 475 176 l 339 176 l 339 312 l 475 312 l 475 176 m 637 339 l 502 339 l 502 475 l 637 475 l 637 339 m 800 502 l 665 502 l 665 637 l 800 637 l 800 502 m 800 665 l 665 665 l 665 800 l 800 800 l 800 665 m 800 827 l 665 827 l 665 963 l 800 963 l 800 827 m 800 990 l 665 990 l 665 1126 l 800 1126 l 800 990 z "},"ک":{"ha":977,"x_min":14,"x_max":800,"o":"m 149 339 l 14 339 l 14 475 l 149 475 l 149 339 m 312 339 l 176 339 l 176 475 l 312 475 l 312 339 m 475 339 l 339 339 l 339 475 l 475 475 l 475 339 m 475 665 l 339 665 l 339 800 l 475 800 l 475 665 m 637 339 l 502 339 l 502 475 l 637 475 l 637 339 m 637 502 l 502 502 l 502 637 l 637 637 l 637 502 m 637 827 l 502 827 l 502 963 l 637 963 l 637 827 m 800 990 l 665 990 l 665 1126 l 800 1126 l 800 990 z "},"ي":{"ha":977,"x_min":14,"x_max":800,"o":"m 149 339 l 14 339 l 14 475 l 149 475 l 149 339 m 312 339 l 176 339 l 176 475 l 312 475 l 312 339 m 475 339 l 339 339 l 339 475 l 475 475 l 475 339 m 637 14 l 502 14 l 502 149 l 637 149 l 637 14 m 637 339 l 502 339 l 502 475 l 637 475 l 637 339 m 637 665 l 502 665 l 502 800 l 637 800 l 637 665 m 800 14 l 665 14 l 665 149 l 800 149 l 800 14 m 800 339 l 665 339 l 665 475 l 800 475 l 800 339 m 800 502 l 665 502 l 665 637 l 800 637 l 800 502 m 800 827 l 665 827 l 665 963 l 800 963 l 800 827 z "},"ى":{"ha":977,"x_min":14,"x_max":800,"o":"m 149 339 l 14 339 l 14 475 l 149 475 l 149 339 m 312 339 l 176 339 l 176 475 l 312 475 l 312 339 m 475 339 l 339 339 l 339 475 l 475 475 l 475 339 m 637 339 l 502 339 l 502 475 l 637 475 l 637 339 m 637 665 l 502 665 l 502 800 l 637 800 l 637 665 m 800 339 l 665 339 l 665 475 l 800 475 l 800 339 m 800 502 l 665 502 l 665 637 l 800 637 l 800 502 m 800 827 l 665 827 l 665 963 l 800 963 l 800 827 z "},"٠":{"ha":977,"x_min":339,"x_max":637,"o":"m 475 502 l 339 502 l 339 637 l 475 637 l 475 502 m 475 665 l 339 665 l 339 800 l 475 800 l 475 665 m 637 502 l 502 502 l 502 637 l 637 637 l 637 502 m 637 665 l 502 665 l 502 800 l 637 800 l 637 665 z "},"١":{"ha":977,"x_min":339,"x_max":475,"o":"m 475 176 l 339 176 l 339 312 l 475 312 l 475 176 m 475 339 l 339 339 l 339 475 l 475 475 l 475 339 m 475 502 l 339 502 l 339 637 l 475 637 l 475 502 m 475 665 l 339 665 l 339 800 l 475 800 l 475 665 m 475 827 l 339 827 l 339 963 l 475 963 l 475 827 z "},"٢":{"ha":977,"x_min":14,"x_max":637,"o":"m 149 176 l 14 176 l 14 312 l 149 312 l 149 176 m 149 339 l 14 339 l 14 475 l 149 475 l 149 339 m 149 502 l 14 502 l 14 637 l 149 637 l 149 502 m 149 665 l 14 665 l 14 800 l 149 800 l 149 665 m 149 827 l 14 827 l 14 963 l 149 963 l 149 827 m 312 665 l 176 665 l 176 800 l 312 800 l 312 665 m 475 665 l 339 665 l 339 800 l 475 800 l 475 665 m 637 827 l 502 827 l 502 963 l 637 963 l 637 827 z "},"٣":{"ha":977,"x_min":14,"x_max":800,"o":"m 149 176 l 14 176 l 14 312 l 149 312 l 149 176 m 149 339 l 14 339 l 14 475 l 149 475 l 149 339 m 149 502 l 14 502 l 14 637 l 149 637 l 149 502 m 149 665 l 14 665 l 14 800 l 149 800 l 149 665 m 149 827 l 14 827 l 14 963 l 149 963 l 149 827 m 312 665 l 176 665 l 176 800 l 312 800 l 312 665 m 475 827 l 339 827 l 339 963 l 475 963 l 475 827 m 637 665 l 502 665 l 502 800 l 637 800 l 637 665 m 800 827 l 665 827 l 665 963 l 800 963 l 800 827 z "},"٤":{"ha":977,"x_min":176,"x_max":800,"o":"m 312 14 l 176 14 l 176 149 l 312 149 l 312 14 m 312 176 l 176 176 l 176 312 l 312 312 l 312 176 m 312 827 l 176 827 l 176 963 l 312 963 l 312 827 m 475 14 l 339 14 l 339 149 l 475 149 l 475 14 m 475 339 l 339 339 l 339 475 l 475 475 l 475 339 m 475 665 l 339 665 l 339 800 l 475 800 l 475 665 m 475 827 l 339 827 l 339 963 l 475 963 l 475 827 m 637 14 l 502 14 l 502 149 l 637 149 l 637 14 m 637 502 l 502 502 l 502 637 l 637 637 l 637 502 m 637 827 l 502 827 l 502 963 l 637 963 l 637 827 m 800 14 l 665 14 l 665 149 l 800 149 l 800 14 m 800 827 l 665 827 l 665 963 l 800 963 l 800 827 z "},"٥":{"ha":977,"x_min":14,"x_max":800,"o":"m 149 176 l 14 176 l 14 312 l 149 312 l 149 176 m 149 339 l 14 339 l 14 475 l 149 475 l 149 339 m 149 502 l 14 502 l 14 637 l 149 637 l 149 502 m 312 14 l 176 14 l 176 149 l 312 149 l 312 14 m 312 665 l 176 665 l 176 800 l 312 800 l 312 665 m 475 14 l 339 14 l 339 149 l 475 149 l 475 14 m 475 827 l 339 827 l 339 963 l 475 963 l 475 827 m 637 14 l 502 14 l 502 149 l 637 149 l 637 14 m 637 665 l 502 665 l 502 800 l 637 800 l 637 665 m 800 176 l 665 176 l 665 312 l 800 312 l 800 176 m 800 339 l 665 339 l 665 475 l 800 475 l 800 339 m 800 502 l 665 502 l 665 637 l 800 637 l 800 502 z "},"٦":{"ha":977,"x_min":176,"x_max":800,"o":"m 312 827 l 176 827 l 176 963 l 312 963 l 312 827 m 475 665 l 339 665 l 339 800 l 475 800 l 475 665 m 637 665 l 502 665 l 502 800 l 637 800 l 637 665 m 800 176 l 665 176 l 665 312 l 800 312 l 800 176 m 800 339 l 665 339 l 665 475 l 800 475 l 800 339 m 800 502 l 665 502 l 665 637 l 800 637 l 800 502 m 800 665 l 665 665 l 665 800 l 800 800 l 800 665 m 800 827 l 665 827 l 665 963 l 800 963 l 800 827 z "},"٧":{"ha":977,"x_min":14,"x_max":800,"o":"m 149 176 l 14 176 l 14 312 l 149 312 l 149 176 m 149 339 l 14 339 l 14 475 l 149 475 l 149 339 m 149 502 l 14 502 l 14 637 l 149 637 l 149 502 m 149 665 l 14 665 l 14 800 l 149 800 l 149 665 m 149 827 l 14 827 l 14 963 l 149 963 l 149 827 m 312 339 l 176 339 l 176 475 l 312 475 l 312 339 m 475 502 l 339 502 l 339 637 l 475 637 l 475 502 m 637 665 l 502 665 l 502 800 l 637 800 l 637 665 m 800 827 l 665 827 l 665 963 l 800 963 l 800 827 z "},"٨":{"ha":977,"x_min":14,"x_max":800,"o":"m 149 176 l 14 176 l 14 312 l 149 312 l 149 176 m 312 339 l 176 339 l 176 475 l 312 475 l 312 339 m 475 502 l 339 502 l 339 637 l 475 637 l 475 502 m 637 665 l 502 665 l 502 800 l 637 800 l 637 665 m 800 176 l 665 176 l 665 312 l 800 312 l 800 176 m 800 339 l 665 339 l 665 475 l 800 475 l 800 339 m 800 502 l 665 502 l 665 637 l 800 637 l 800 502 m 800 665 l 665 665 l 665 800 l 800 800 l 800 665 m 800 827 l 665 827 l 665 963 l 800 963 l 800 827 z "},"٩":{"ha":977,"x_min":176,"x_max":800,"o":"m 312 665 l 176 665 l 176 800 l 312 800 l 312 665 m 475 502 l 339 502 l 339 637 l 475 637 l 475 502 m 475 827 l 339 827 l 339 963 l 475 963 l 475 827 m 637 502 l 502 502 l 502 637 l 637 637 l 637 502 m 637 827 l 502 827 l 502 963 l 637 963 l 637 827 m 800 176 l 665 176 l 665 312 l 800 312 l 800 176 m 800 339 l 665 339 l 665 475 l 800 475 l 800 339 m 800 502 l 665 502 l 665 637 l 800 637 l 800 502 m 800 665 l 665 665 l 665 800 l 800 800 l 800 665 z "},"​":{"ha":0,"x_min":0,"x_max":0,"o":""},"‌":{"ha":0,"x_min":0,"x_max":0,"o":""},"‍":{"ha":0,"x_min":0,"x_max":0,"o":""},"‎":{"ha":0,"x_min":0,"x_max":0,"o":""},"‏":{"ha":0,"x_min":0,"x_max":0,"o":""},"أ":{"ha":977,"x_min":502,"x_max":800,"o":"m 637 827 l 502 827 l 502 963 l 637 963 l 637 827 m 800 339 l 665 339 l 665 475 l 800 475 l 800 339 m 800 502 l 665 502 l 665 637 l 800 637 l 800 502 m 800 665 l 665 665 l 665 800 l 800 800 l 800 665 m 800 827 l 665 827 l 665 963 l 800 963 l 800 827 m 800 990 l 665 990 l 665 1126 l 800 1126 l 800 990 z "},"ٮ":{"ha":977,"x_min":14,"x_max":800,"o":"m 149 339 l 14 339 l 14 475 l 149 475 l 149 339 m 312 339 l 176 339 l 176 475 l 312 475 l 312 339 m 475 339 l 339 339 l 339 475 l 475 475 l 475 339 m 637 339 l 502 339 l 502 475 l 637 475 l 637 339 m 800 339 l 665 339 l 665 475 l 800 475 l 800 339 m 800 502 l 665 502 l 665 637 l 800 637 l 800 502 z "},"ـ":{"ha":977,"x_min":176,"x_max":637,"o":"m 312 339 l 176 339 l 176 475 l 312 475 l 312 339 m 475 339 l 339 339 l 339 475 l 475 475 l 475 339 m 637 339 l 502 339 l 502 475 l 637 475 l 637 339 z "},"٪":{"ha":977,"x_min":14,"x_max":800,"o":"m 149 176 l 14 176 l 14 312 l 149 312 l 149 176 m 312 339 l 176 339 l 176 475 l 312 475 l 312 339 m 312 827 l 176 827 l 176 963 l 312 963 l 312 827 m 475 502 l 339 502 l 339 637 l 475 637 l 475 502 m 637 176 l 502 176 l 502 312 l 637 312 l 637 176 m 637 665 l 502 665 l 502 800 l 637 800 l 637 665 m 800 827 l 665 827 l 665 963 l 800 963 l 800 827 z "},"Æ":{"ha":977,"x_min":14,"x_max":800,"o":"m 149 14 l 14 14 l 14 149 l 149 149 l 149 14 m 149 176 l 14 176 l 14 312 l 149 312 l 149 176 m 149 339 l 14 339 l 14 475 l 149 475 l 149 339 m 149 502 l 14 502 l 14 637 l 149 637 l 149 502 m 149 665 l 14 665 l 14 800 l 149 800 l 149 665 m 149 827 l 14 827 l 14 963 l 149 963 l 149 827 m 312 502 l 176 502 l 176 637 l 312 637 l 312 502 m 312 990 l 176 990 l 176 1126 l 312 1126 l 312 990 m 475 14 l 339 14 l 339 149 l 475 149 l 475 14 m 475 176 l 339 176 l 339 312 l 475 312 l 475 176 m 475 339 l 339 339 l 339 475 l 475 475 l 475 339 m 475 502 l 339 502 l 339 637 l 475 637 l 475 502 m 475 665 l 339 665 l 339 800 l 475 800 l 475 665 m 475 827 l 339 827 l 339 963 l 475 963 l 475 827 m 475 990 l 339 990 l 339 1126 l 475 1126 l 475 990 m 637 14 l 502 14 l 502 149 l 637 149 l 637 14 m 637 502 l 502 502 l 502 637 l 637 637 l 637 502 m 637 990 l 502 990 l 502 1126 l 637 1126 l 637 990 m 800 14 l 665 14 l 665 149 l 800 149 l 800 14 m 800 502 l 665 502 l 665 637 l 800 637 l 800 502 m 800 990 l 665 990 l 665 1126 l 800 1126 l 800 990 z "},"æ":{"ha":977,"x_min":14,"x_max":800,"o":"m 149 176 l 14 176 l 14 312 l 149 312 l 149 176 m 149 665 l 14 665 l 14 800 l 149 800 l 149 665 m 312 14 l 176 14 l 176 149 l 312 149 l 312 14 m 312 339 l 176 339 l 176 475 l 312 475 l 312 339 m 312 665 l 176 665 l 176 800 l 312 800 l 312 665 m 475 14 l 339 14 l 339 149 l 475 149 l 475 14 m 475 176 l 339 176 l 339 312 l 475 312 l 475 176 m 475 339 l 339 339 l 339 475 l 475 475 l 475 339 m 475 502 l 339 502 l 339 637 l 475 637 l 475 502 m 475 665 l 339 665 l 339 800 l 475 800 l 475 665 m 637 14 l 502 14 l 502 149 l 637 149 l 637 14 m 637 339 l 502 339 l 502 475 l 637 475 l 637 339 m 637 665 l 502 665 l 502 800 l 637 800 l 637 665 m 800 14 l 665 14 l 665 149 l 800 149 l 800 14 m 800 339 l 665 339 l 665 475 l 800 475 l 800 339 m 800 502 l 665 502 l 665 637 l 800 637 l 800 502 z "},"Œ":{"ha":977,"x_min":14,"x_max":800,"o":"m 149 176 l 14 176 l 14 312 l 149 312 l 149 176 m 149 339 l 14 339 l 14 475 l 149 475 l 149 339 m 149 502 l 14 502 l 14 637 l 149 637 l 149 502 m 149 665 l 14 665 l 14 800 l 149 800 l 149 665 m 149 827 l 14 827 l 14 963 l 149 963 l 149 827 m 312 14 l 176 14 l 176 149 l 312 149 l 312 14 m 312 990 l 176 990 l 176 1126 l 312 1126 l 312 990 m 475 14 l 339 14 l 339 149 l 475 149 l 475 14 m 475 176 l 339 176 l 339 312 l 475 312 l 475 176 m 475 339 l 339 339 l 339 475 l 475 475 l 475 339 m 475 502 l 339 502 l 339 637 l 475 637 l 475 502 m 475 665 l 339 665 l 339 800 l 475 800 l 475 665 m 475 827 l 339 827 l 339 963 l 475 963 l 475 827 m 475 990 l 339 990 l 339 1126 l 475 1126 l 475 990 m 637 14 l 502 14 l 502 149 l 637 149 l 637 14 m 637 502 l 502 502 l 502 637 l 637 637 l 637 502 m 637 990 l 502 990 l 502 1126 l 637 1126 l 637 990 m 800 14 l 665 14 l 665 149 l 800 149 l 800 14 m 800 502 l 665 502 l 665 637 l 800 637 l 800 502 m 800 990 l 665 990 l 665 1126 l 800 1126 l 800 990 z "},"œ":{"ha":977,"x_min":14,"x_max":800,"o":"m 149 176 l 14 176 l 14 312 l 149 312 l 149 176 m 149 339 l 14 339 l 14 475 l 149 475 l 149 339 m 149 502 l 14 502 l 14 637 l 149 637 l 149 502 m 312 14 l 176 14 l 176 149 l 312 149 l 312 14 m 312 665 l 176 665 l 176 800 l 312 800 l 312 665 m 475 14 l 339 14 l 339 149 l 475 149 l 475 14 m 475 176 l 339 176 l 339 312 l 475 312 l 475 176 m 475 339 l 339 339 l 339 475 l 475 475 l 475 339 m 475 502 l 339 502 l 339 637 l 475 637 l 475 502 m 475 665 l 339 665 l 339 800 l 475 800 l 475 665 m 637 14 l 502 14 l 502 149 l 637 149 l 637 14 m 637 339 l 502 339 l 502 475 l 637 475 l 637 339 m 637 665 l 502 665 l 502 800 l 637 800 l 637 665 m 800 14 l 665 14 l 665 149 l 800 149 l 800 14 m 800 339 l 665 339 l 665 475 l 800 475 l 800 339 m 800 502 l 665 502 l 665 637 l 800 637 l 800 502 z "},"Ø":{"ha":977,"x_min":14,"x_max":800,"o":"m 149 14 l 14 14 l 14 149 l 149 149 l 149 14 m 149 176 l 14 176 l 14 312 l 149 312 l 149 176 m 149 339 l 14 339 l 14 475 l 149 475 l 149 339 m 149 502 l 14 502 l 14 637 l 149 637 l 149 502 m 149 665 l 14 665 l 14 800 l 149 800 l 149 665 m 149 827 l 14 827 l 14 963 l 149 963 l 149 827 m 312 14 l 176 14 l 176 149 l 312 149 l 312 14 m 312 176 l 176 176 l 176 312 l 312 312 l 312 176 m 312 339 l 176 339 l 176 475 l 312 475 l 312 339 m 312 990 l 176 990 l 176 1126 l 312 1126 l 312 990 m 475 14 l 339 14 l 339 149 l 475 149 l 475 14 m 475 502 l 339 502 l 339 637 l 475 637 l 475 502 m 475 990 l 339 990 l 339 1126 l 475 1126 l 475 990 m 637 14 l 502 14 l 502 149 l 637 149 l 637 14 m 637 665 l 502 665 l 502 800 l 637 800 l 637 665 m 637 827 l 502 827 l 502 963 l 637 963 l 637 827 m 637 990 l 502 990 l 502 1126 l 637 1126 l 637 990 m 800 176 l 665 176 l 665 312 l 800 312 l 800 176 m 800 339 l 665 339 l 665 475 l 800 475 l 800 339 m 800 502 l 665 502 l 665 637 l 800 637 l 800 502 m 800 665 l 665 665 l 665 800 l 800 800 l 800 665 m 800 827 l 665 827 l 665 963 l 800 963 l 800 827 m 800 990 l 665 990 l 665 1126 l 800 1126 l 800 990 z "},"ø":{"ha":977,"x_min":14,"x_max":800,"o":"m 149 14 l 14 14 l 14 149 l 149 149 l 149 14 m 149 176 l 14 176 l 14 312 l 149 312 l 149 176 m 149 339 l 14 339 l 14 475 l 149 475 l 149 339 m 149 502 l 14 502 l 14 637 l 149 637 l 149 502 m 312 14 l 176 14 l 176 149 l 312 149 l 312 14 m 312 176 l 176 176 l 176 312 l 312 312 l 312 176 m 312 665 l 176 665 l 176 800 l 312 800 l 312 665 m 475 14 l 339 14 l 339 149 l 475 149 l 475 14 m 475 339 l 339 339 l 339 475 l 475 475 l 475 339 m 475 665 l 339 665 l 339 800 l 475 800 l 475 665 m 637 14 l 502 14 l 502 149 l 637 149 l 637 14 m 637 502 l 502 502 l 502 637 l 637 637 l 637 502 m 637 665 l 502 665 l 502 800 l 637 800 l 637 665 m 800 176 l 665 176 l 665 312 l 800 312 l 800 176 m 800 339 l 665 339 l 665 475 l 800 475 l 800 339 m 800 502 l 665 502 l 665 637 l 800 637 l 800 502 m 800 665 l 665 665 l 665 800 l 800 800 l 800 665 z "},"Ɔ":{"ha":977,"x_min":14,"x_max":800,"o":"m 149 176 l 14 176 l 14 312 l 149 312 l 149 176 m 149 827 l 14 827 l 14 963 l 149 963 l 149 827 m 312 14 l 176 14 l 176 149 l 312 149 l 312 14 m 312 990 l 176 990 l 176 1126 l 312 1126 l 312 990 m 475 14 l 339 14 l 339 149 l 475 149 l 475 14 m 475 990 l 339 990 l 339 1126 l 475 1126 l 475 990 m 637 14 l 502 14 l 502 149 l 637 149 l 637 14 m 637 990 l 502 990 l 502 1126 l 637 1126 l 637 990 m 800 176 l 665 176 l 665 312 l 800 312 l 800 176 m 800 339 l 665 339 l 665 475 l 800 475 l 800 339 m 800 502 l 665 502 l 665 637 l 800 637 l 800 502 m 800 665 l 665 665 l 665 800 l 800 800 l 800 665 m 800 827 l 665 827 l 665 963 l 800 963 l 800 827 z "},"ɔ":{"ha":977,"x_min":14,"x_max":800,"o":"m 149 502 l 14 502 l 14 637 l 149 637 l 149 502 m 312 14 l 176 14 l 176 149 l 312 149 l 312 14 m 312 665 l 176 665 l 176 800 l 312 800 l 312 665 m 475 14 l 339 14 l 339 149 l 475 149 l 475 14 m 475 665 l 339 665 l 339 800 l 475 800 l 475 665 m 637 14 l 502 14 l 502 149 l 637 149 l 637 14 m 637 665 l 502 665 l 502 800 l 637 800 l 637 665 m 800 176 l 665 176 l 665 312 l 800 312 l 800 176 m 800 339 l 665 339 l 665 475 l 800 475 l 800 339 m 800 502 l 665 502 l 665 637 l 800 637 l 800 502 z "},"¯":{"ha":977,"x_min":176,"x_max":637,"o":"m 312 990 l 176 990 l 176 1126 l 312 1126 l 312 990 m 475 990 l 339 990 l 339 1126 l 475 1126 l 475 990 m 637 990 l 502 990 l 502 1126 l 637 1126 l 637 990 z "},"Ā":{"ha":977,"x_min":14,"x_max":800,"o":"m 149 14 l 14 14 l 14 149 l 149 149 l 149 14 m 149 176 l 14 176 l 14 312 l 149 312 l 149 176 m 149 339 l 14 339 l 14 475 l 149 475 l 149 339 m 149 502 l 14 502 l 14 637 l 149 637 l 149 502 m 312 339 l 176 339 l 176 475 l 312 475 l 312 339 m 312 665 l 176 665 l 176 800 l 312 800 l 312 665 m 312 990 l 176 990 l 176 1126 l 312 1126 l 312 990 m 475 339 l 339 339 l 339 475 l 475 475 l 475 339 m 475 665 l 339 665 l 339 800 l 475 800 l 475 665 m 475 990 l 339 990 l 339 1126 l 475 1126 l 475 990 m 637 339 l 502 339 l 502 475 l 637 475 l 637 339 m 637 665 l 502 665 l 502 800 l 637 800 l 637 665 m 637 990 l 502 990 l 502 1126 l 637 1126 l 637 990 m 800 14 l 665 14 l 665 149 l 800 149 l 800 14 m 800 176 l 665 176 l 665 312 l 800 312 l 800 176 m 800 339 l 665 339 l 665 475 l 800 475 l 800 339 m 800 502 l 665 502 l 665 637 l 800 637 l 800 502 z "},"ā":{"ha":977,"x_min":14,"x_max":800,"o":"m 149 176 l 14 176 l 14 312 l 149 312 l 149 176 m 312 14 l 176 14 l 176 149 l 312 149 l 312 14 m 312 339 l 176 339 l 176 475 l 312 475 l 312 339 m 312 665 l 176 665 l 176 800 l 312 800 l 312 665 m 312 990 l 176 990 l 176 1126 l 312 1126 l 312 990 m 475 14 l 339 14 l 339 149 l 475 149 l 475 14 m 475 339 l 339 339 l 339 475 l 475 475 l 475 339 m 475 665 l 339 665 l 339 800 l 475 800 l 475 665 m 475 990 l 339 990 l 339 1126 l 475 1126 l 475 990 m 637 14 l 502 14 l 502 149 l 637 149 l 637 14 m 637 339 l 502 339 l 502 475 l 637 475 l 637 339 m 637 665 l 502 665 l 502 800 l 637 800 l 637 665 m 637 990 l 502 990 l 502 1126 l 637 1126 l 637 990 m 800 14 l 665 14 l 665 149 l 800 149 l 800 14 m 800 176 l 665 176 l 665 312 l 800 312 l 800 176 m 800 339 l 665 339 l 665 475 l 800 475 l 800 339 m 800 502 l 665 502 l 665 637 l 800 637 l 800 502 z "},"Ē":{"ha":977,"x_min":14,"x_max":800,"o":"m 149 14 l 14 14 l 14 149 l 149 149 l 149 14 m 149 176 l 14 176 l 14 312 l 149 312 l 149 176 m 149 339 l 14 339 l 14 475 l 149 475 l 149 339 m 149 502 l 14 502 l 14 637 l 149 637 l 149 502 m 149 665 l 14 665 l 14 800 l 149 800 l 149 665 m 312 14 l 176 14 l 176 149 l 312 149 l 312 14 m 312 339 l 176 339 l 176 475 l 312 475 l 312 339 m 312 665 l 176 665 l 176 800 l 312 800 l 312 665 m 312 990 l 176 990 l 176 1126 l 312 1126 l 312 990 m 475 14 l 339 14 l 339 149 l 475 149 l 475 14 m 475 339 l 339 339 l 339 475 l 475 475 l 475 339 m 475 665 l 339 665 l 339 800 l 475 800 l 475 665 m 475 990 l 339 990 l 339 1126 l 475 1126 l 475 990 m 637 14 l 502 14 l 502 149 l 637 149 l 637 14 m 637 339 l 502 339 l 502 475 l 637 475 l 637 339 m 637 665 l 502 665 l 502 800 l 637 800 l 637 665 m 637 990 l 502 990 l 502 1126 l 637 1126 l 637 990 m 800 14 l 665 14 l 665 149 l 800 149 l 800 14 m 800 665 l 665 665 l 665 800 l 800 800 l 800 665 z "},"ē":{"ha":977,"x_min":14,"x_max":800,"o":"m 149 176 l 14 176 l 14 312 l 149 312 l 149 176 m 149 339 l 14 339 l 14 475 l 149 475 l 149 339 m 149 502 l 14 502 l 14 637 l 149 637 l 149 502 m 312 14 l 176 14 l 176 149 l 312 149 l 312 14 m 312 339 l 176 339 l 176 475 l 312 475 l 312 339 m 312 665 l 176 665 l 176 800 l 312 800 l 312 665 m 312 990 l 176 990 l 176 1126 l 312 1126 l 312 990 m 475 14 l 339 14 l 339 149 l 475 149 l 475 14 m 475 339 l 339 339 l 339 475 l 475 475 l 475 339 m 475 665 l 339 665 l 339 800 l 475 800 l 475 665 m 475 990 l 339 990 l 339 1126 l 475 1126 l 475 990 m 637 14 l 502 14 l 502 149 l 637 149 l 637 14 m 637 339 l 502 339 l 502 475 l 637 475 l 637 339 m 637 665 l 502 665 l 502 800 l 637 800 l 637 665 m 637 990 l 502 990 l 502 1126 l 637 1126 l 637 990 m 800 339 l 665 339 l 665 475 l 800 475 l 800 339 m 800 502 l 665 502 l 665 637 l 800 637 l 800 502 z "},"Ī":{"ha":977,"x_min":176,"x_max":637,"o":"m 312 14 l 176 14 l 176 149 l 312 149 l 312 14 m 312 665 l 176 665 l 176 800 l 312 800 l 312 665 m 312 990 l 176 990 l 176 1126 l 312 1126 l 312 990 m 475 14 l 339 14 l 339 149 l 475 149 l 475 14 m 475 176 l 339 176 l 339 312 l 475 312 l 475 176 m 475 339 l 339 339 l 339 475 l 475 475 l 475 339 m 475 502 l 339 502 l 339 637 l 475 637 l 475 502 m 475 665 l 339 665 l 339 800 l 475 800 l 475 665 m 475 990 l 339 990 l 339 1126 l 475 1126 l 475 990 m 637 14 l 502 14 l 502 149 l 637 149 l 637 14 m 637 665 l 502 665 l 502 800 l 637 800 l 637 665 m 637 990 l 502 990 l 502 1126 l 637 1126 l 637 990 z "},"ī":{"ha":977,"x_min":176,"x_max":637,"o":"m 312 14 l 176 14 l 176 149 l 312 149 l 312 14 m 312 665 l 176 665 l 176 800 l 312 800 l 312 665 m 312 990 l 176 990 l 176 1126 l 312 1126 l 312 990 m 475 14 l 339 14 l 339 149 l 475 149 l 475 14 m 475 176 l 339 176 l 339 312 l 475 312 l 475 176 m 475 339 l 339 339 l 339 475 l 475 475 l 475 339 m 475 502 l 339 502 l 339 637 l 475 637 l 475 502 m 475 665 l 339 665 l 339 800 l 475 800 l 475 665 m 475 990 l 339 990 l 339 1126 l 475 1126 l 475 990 m 637 14 l 502 14 l 502 149 l 637 149 l 637 14 m 637 990 l 502 990 l 502 1126 l 637 1126 l 637 990 z "},"Ō":{"ha":977,"x_min":14,"x_max":800,"o":"m 149 176 l 14 176 l 14 312 l 149 312 l 149 176 m 149 339 l 14 339 l 14 475 l 149 475 l 149 339 m 149 502 l 14 502 l 14 637 l 149 637 l 149 502 m 312 14 l 176 14 l 176 149 l 312 149 l 312 14 m 312 665 l 176 665 l 176 800 l 312 800 l 312 665 m 312 990 l 176 990 l 176 1126 l 312 1126 l 312 990 m 475 14 l 339 14 l 339 149 l 475 149 l 475 14 m 475 665 l 339 665 l 339 800 l 475 800 l 475 665 m 475 990 l 339 990 l 339 1126 l 475 1126 l 475 990 m 637 14 l 502 14 l 502 149 l 637 149 l 637 14 m 637 665 l 502 665 l 502 800 l 637 800 l 637 665 m 637 990 l 502 990 l 502 1126 l 637 1126 l 637 990 m 800 176 l 665 176 l 665 312 l 800 312 l 800 176 m 800 339 l 665 339 l 665 475 l 800 475 l 800 339 m 800 502 l 665 502 l 665 637 l 800 637 l 800 502 z "},"ō":{"ha":977,"x_min":14,"x_max":800,"o":"m 149 176 l 14 176 l 14 312 l 149 312 l 149 176 m 149 339 l 14 339 l 14 475 l 149 475 l 149 339 m 312 14 l 176 14 l 176 149 l 312 149 l 312 14 m 312 502 l 176 502 l 176 637 l 312 637 l 312 502 m 312 827 l 176 827 l 176 963 l 312 963 l 312 827 m 475 14 l 339 14 l 339 149 l 475 149 l 475 14 m 475 502 l 339 502 l 339 637 l 475 637 l 475 502 m 475 827 l 339 827 l 339 963 l 475 963 l 475 827 m 637 14 l 502 14 l 502 149 l 637 149 l 637 14 m 637 502 l 502 502 l 502 637 l 637 637 l 637 502 m 637 827 l 502 827 l 502 963 l 637 963 l 637 827 m 800 176 l 665 176 l 665 312 l 800 312 l 800 176 m 800 339 l 665 339 l 665 475 l 800 475 l 800 339 z "},"Ū":{"ha":977,"x_min":14,"x_max":800,"o":"m 149 176 l 14 176 l 14 312 l 149 312 l 149 176 m 149 339 l 14 339 l 14 475 l 149 475 l 149 339 m 149 502 l 14 502 l 14 637 l 149 637 l 149 502 m 149 665 l 14 665 l 14 800 l 149 800 l 149 665 m 312 14 l 176 14 l 176 149 l 312 149 l 312 14 m 312 990 l 176 990 l 176 1126 l 312 1126 l 312 990 m 475 14 l 339 14 l 339 149 l 475 149 l 475 14 m 475 990 l 339 990 l 339 1126 l 475 1126 l 475 990 m 637 14 l 502 14 l 502 149 l 637 149 l 637 14 m 637 990 l 502 990 l 502 1126 l 637 1126 l 637 990 m 800 176 l 665 176 l 665 312 l 800 312 l 800 176 m 800 339 l 665 339 l 665 475 l 800 475 l 800 339 m 800 502 l 665 502 l 665 637 l 800 637 l 800 502 m 800 665 l 665 665 l 665 800 l 800 800 l 800 665 z "},"ū":{"ha":977,"x_min":14,"x_max":800,"o":"m 149 176 l 14 176 l 14 312 l 149 312 l 149 176 m 149 339 l 14 339 l 14 475 l 149 475 l 149 339 m 149 502 l 14 502 l 14 637 l 149 637 l 149 502 m 149 665 l 14 665 l 14 800 l 149 800 l 149 665 m 312 14 l 176 14 l 176 149 l 312 149 l 312 14 m 312 990 l 176 990 l 176 1126 l 312 1126 l 312 990 m 475 14 l 339 14 l 339 149 l 475 149 l 475 14 m 475 990 l 339 990 l 339 1126 l 475 1126 l 475 990 m 637 176 l 502 176 l 502 312 l 637 312 l 637 176 m 637 990 l 502 990 l 502 1126 l 637 1126 l 637 990 m 800 14 l 665 14 l 665 149 l 800 149 l 800 14 m 800 176 l 665 176 l 665 312 l 800 312 l 800 176 m 800 339 l 665 339 l 665 475 l 800 475 l 800 339 m 800 502 l 665 502 l 665 637 l 800 637 l 800 502 m 800 665 l 665 665 l 665 800 l 800 800 l 800 665 z "},"Ȳ":{"ha":977,"x_min":14,"x_max":800,"o":"m 149 665 l 14 665 l 14 800 l 149 800 l 149 665 m 312 502 l 176 502 l 176 637 l 312 637 l 312 502 m 312 990 l 176 990 l 176 1126 l 312 1126 l 312 990 m 475 14 l 339 14 l 339 149 l 475 149 l 475 14 m 475 176 l 339 176 l 339 312 l 475 312 l 475 176 m 475 339 l 339 339 l 339 475 l 475 475 l 475 339 m 475 990 l 339 990 l 339 1126 l 475 1126 l 475 990 m 637 502 l 502 502 l 502 637 l 637 637 l 637 502 m 637 990 l 502 990 l 502 1126 l 637 1126 l 637 990 m 800 665 l 665 665 l 665 800 l 800 800 l 800 665 z "},"ȳ":{"ha":977,"x_min":14,"x_max":800,"o":"m 149 502 l 14 502 l 14 637 l 149 637 l 149 502 m 149 665 l 14 665 l 14 800 l 149 800 l 149 665 m 312 14 l 176 14 l 176 149 l 312 149 l 312 14 m 312 339 l 176 339 l 176 475 l 312 475 l 312 339 m 312 990 l 176 990 l 176 1126 l 312 1126 l 312 990 m 475 14 l 339 14 l 339 149 l 475 149 l 475 14 m 475 339 l 339 339 l 339 475 l 475 475 l 475 339 m 475 990 l 339 990 l 339 1126 l 475 1126 l 475 990 m 637 14 l 502 14 l 502 149 l 637 149 l 637 14 m 637 339 l 502 339 l 502 475 l 637 475 l 637 339 m 637 990 l 502 990 l 502 1126 l 637 1126 l 637 990 m 800 176 l 665 176 l 665 312 l 800 312 l 800 176 m 800 339 l 665 339 l 665 475 l 800 475 l 800 339 m 800 502 l 665 502 l 665 637 l 800 637 l 800 502 m 800 665 l 665 665 l 665 800 l 800 800 l 800 665 z "},"¨":{"ha":977,"x_min":176,"x_max":637,"o":"m 312 990 l 176 990 l 176 1126 l 312 1126 l 312 990 m 637 990 l 502 990 l 502 1126 l 637 1126 l 637 990 z "},"Ä":{"ha":977,"x_min":14,"x_max":800,"o":"m 149 14 l 14 14 l 14 149 l 149 149 l 149 14 m 149 176 l 14 176 l 14 312 l 149 312 l 149 176 m 149 339 l 14 339 l 14 475 l 149 475 l 149 339 m 149 502 l 14 502 l 14 637 l 149 637 l 149 502 m 312 339 l 176 339 l 176 475 l 312 475 l 312 339 m 312 665 l 176 665 l 176 800 l 312 800 l 312 665 m 312 990 l 176 990 l 176 1126 l 312 1126 l 312 990 m 475 339 l 339 339 l 339 475 l 475 475 l 475 339 m 475 665 l 339 665 l 339 800 l 475 800 l 475 665 m 637 339 l 502 339 l 502 475 l 637 475 l 637 339 m 637 665 l 502 665 l 502 800 l 637 800 l 637 665 m 637 990 l 502 990 l 502 1126 l 637 1126 l 637 990 m 800 14 l 665 14 l 665 149 l 800 149 l 800 14 m 800 176 l 665 176 l 665 312 l 800 312 l 800 176 m 800 339 l 665 339 l 665 475 l 800 475 l 800 339 m 800 502 l 665 502 l 665 637 l 800 637 l 800 502 z "},"ä":{"ha":977,"x_min":14,"x_max":800,"o":"m 149 176 l 14 176 l 14 312 l 149 312 l 149 176 m 312 14 l 176 14 l 176 149 l 312 149 l 312 14 m 312 339 l 176 339 l 176 475 l 312 475 l 312 339 m 312 665 l 176 665 l 176 800 l 312 800 l 312 665 m 312 990 l 176 990 l 176 1126 l 312 1126 l 312 990 m 475 14 l 339 14 l 339 149 l 475 149 l 475 14 m 475 339 l 339 339 l 339 475 l 475 475 l 475 339 m 475 665 l 339 665 l 339 800 l 475 800 l 475 665 m 637 14 l 502 14 l 502 149 l 637 149 l 637 14 m 637 339 l 502 339 l 502 475 l 637 475 l 637 339 m 637 665 l 502 665 l 502 800 l 637 800 l 637 665 m 637 990 l 502 990 l 502 1126 l 637 1126 l 637 990 m 800 14 l 665 14 l 665 149 l 800 149 l 800 14 m 800 176 l 665 176 l 665 312 l 800 312 l 800 176 m 800 339 l 665 339 l 665 475 l 800 475 l 800 339 m 800 502 l 665 502 l 665 637 l 800 637 l 800 502 z "},"Ë":{"ha":977,"x_min":14,"x_max":800,"o":"m 149 14 l 14 14 l 14 149 l 149 149 l 149 14 m 149 176 l 14 176 l 14 312 l 149 312 l 149 176 m 149 339 l 14 339 l 14 475 l 149 475 l 149 339 m 149 502 l 14 502 l 14 637 l 149 637 l 149 502 m 149 665 l 14 665 l 14 800 l 149 800 l 149 665 m 312 14 l 176 14 l 176 149 l 312 149 l 312 14 m 312 339 l 176 339 l 176 475 l 312 475 l 312 339 m 312 665 l 176 665 l 176 800 l 312 800 l 312 665 m 312 990 l 176 990 l 176 1126 l 312 1126 l 312 990 m 475 14 l 339 14 l 339 149 l 475 149 l 475 14 m 475 339 l 339 339 l 339 475 l 475 475 l 475 339 m 475 665 l 339 665 l 339 800 l 475 800 l 475 665 m 637 14 l 502 14 l 502 149 l 637 149 l 637 14 m 637 339 l 502 339 l 502 475 l 637 475 l 637 339 m 637 665 l 502 665 l 502 800 l 637 800 l 637 665 m 637 990 l 502 990 l 502 1126 l 637 1126 l 637 990 m 800 14 l 665 14 l 665 149 l 800 149 l 800 14 m 800 665 l 665 665 l 665 800 l 800 800 l 800 665 z "},"ë":{"ha":977,"x_min":14,"x_max":800,"o":"m 149 176 l 14 176 l 14 312 l 149 312 l 149 176 m 149 339 l 14 339 l 14 475 l 149 475 l 149 339 m 149 502 l 14 502 l 14 637 l 149 637 l 149 502 m 312 14 l 176 14 l 176 149 l 312 149 l 312 14 m 312 339 l 176 339 l 176 475 l 312 475 l 312 339 m 312 665 l 176 665 l 176 800 l 312 800 l 312 665 m 312 990 l 176 990 l 176 1126 l 312 1126 l 312 990 m 475 14 l 339 14 l 339 149 l 475 149 l 475 14 m 475 339 l 339 339 l 339 475 l 475 475 l 475 339 m 475 665 l 339 665 l 339 800 l 475 800 l 475 665 m 637 14 l 502 14 l 502 149 l 637 149 l 637 14 m 637 339 l 502 339 l 502 475 l 637 475 l 637 339 m 637 665 l 502 665 l 502 800 l 637 800 l 637 665 m 637 990 l 502 990 l 502 1126 l 637 1126 l 637 990 m 800 339 l 665 339 l 665 475 l 800 475 l 800 339 m 800 502 l 665 502 l 665 637 l 800 637 l 800 502 z "},"Ï":{"ha":977,"x_min":176,"x_max":637,"o":"m 312 14 l 176 14 l 176 149 l 312 149 l 312 14 m 312 665 l 176 665 l 176 800 l 312 800 l 312 665 m 312 990 l 176 990 l 176 1126 l 312 1126 l 312 990 m 475 14 l 339 14 l 339 149 l 475 149 l 475 14 m 475 176 l 339 176 l 339 312 l 475 312 l 475 176 m 475 339 l 339 339 l 339 475 l 475 475 l 475 339 m 475 502 l 339 502 l 339 637 l 475 637 l 475 502 m 475 665 l 339 665 l 339 800 l 475 800 l 475 665 m 637 14 l 502 14 l 502 149 l 637 149 l 637 14 m 637 665 l 502 665 l 502 800 l 637 800 l 637 665 m 637 990 l 502 990 l 502 1126 l 637 1126 l 637 990 z "},"ï":{"ha":977,"x_min":176,"x_max":637,"o":"m 312 14 l 176 14 l 176 149 l 312 149 l 312 14 m 312 665 l 176 665 l 176 800 l 312 800 l 312 665 m 312 990 l 176 990 l 176 1126 l 312 1126 l 312 990 m 475 14 l 339 14 l 339 149 l 475 149 l 475 14 m 475 176 l 339 176 l 339 312 l 475 312 l 475 176 m 475 339 l 339 339 l 339 475 l 475 475 l 475 339 m 475 502 l 339 502 l 339 637 l 475 637 l 475 502 m 475 665 l 339 665 l 339 800 l 475 800 l 475 665 m 637 14 l 502 14 l 502 149 l 637 149 l 637 14 m 637 990 l 502 990 l 502 1126 l 637 1126 l 637 990 z "},"Ö":{"ha":977,"x_min":14,"x_max":800,"o":"m 149 176 l 14 176 l 14 312 l 149 312 l 149 176 m 149 339 l 14 339 l 14 475 l 149 475 l 149 339 m 149 502 l 14 502 l 14 637 l 149 637 l 149 502 m 312 14 l 176 14 l 176 149 l 312 149 l 312 14 m 312 665 l 176 665 l 176 800 l 312 800 l 312 665 m 312 990 l 176 990 l 176 1126 l 312 1126 l 312 990 m 475 14 l 339 14 l 339 149 l 475 149 l 475 14 m 475 665 l 339 665 l 339 800 l 475 800 l 475 665 m 637 14 l 502 14 l 502 149 l 637 149 l 637 14 m 637 665 l 502 665 l 502 800 l 637 800 l 637 665 m 637 990 l 502 990 l 502 1126 l 637 1126 l 637 990 m 800 176 l 665 176 l 665 312 l 800 312 l 800 176 m 800 339 l 665 339 l 665 475 l 800 475 l 800 339 m 800 502 l 665 502 l 665 637 l 800 637 l 800 502 z "},"ö":{"ha":977,"x_min":14,"x_max":800,"o":"m 149 176 l 14 176 l 14 312 l 149 312 l 149 176 m 149 339 l 14 339 l 14 475 l 149 475 l 149 339 m 312 14 l 176 14 l 176 149 l 312 149 l 312 14 m 312 502 l 176 502 l 176 637 l 312 637 l 312 502 m 312 827 l 176 827 l 176 963 l 312 963 l 312 827 m 475 14 l 339 14 l 339 149 l 475 149 l 475 14 m 475 502 l 339 502 l 339 637 l 475 637 l 475 502 m 637 14 l 502 14 l 502 149 l 637 149 l 637 14 m 637 502 l 502 502 l 502 637 l 637 637 l 637 502 m 637 827 l 502 827 l 502 963 l 637 963 l 637 827 m 800 176 l 665 176 l 665 312 l 800 312 l 800 176 m 800 339 l 665 339 l 665 475 l 800 475 l 800 339 z "},"Ü":{"ha":977,"x_min":14,"x_max":800,"o":"m 149 176 l 14 176 l 14 312 l 149 312 l 149 176 m 149 339 l 14 339 l 14 475 l 149 475 l 149 339 m 149 502 l 14 502 l 14 637 l 149 637 l 149 502 m 149 665 l 14 665 l 14 800 l 149 800 l 149 665 m 312 14 l 176 14 l 176 149 l 312 149 l 312 14 m 312 990 l 176 990 l 176 1126 l 312 1126 l 312 990 m 475 14 l 339 14 l 339 149 l 475 149 l 475 14 m 637 14 l 502 14 l 502 149 l 637 149 l 637 14 m 637 990 l 502 990 l 502 1126 l 637 1126 l 637 990 m 800 176 l 665 176 l 665 312 l 800 312 l 800 176 m 800 339 l 665 339 l 665 475 l 800 475 l 800 339 m 800 502 l 665 502 l 665 637 l 800 637 l 800 502 m 800 665 l 665 665 l 665 800 l 800 800 l 800 665 z "},"ü":{"ha":977,"x_min":14,"x_max":800,"o":"m 149 176 l 14 176 l 14 312 l 149 312 l 149 176 m 149 339 l 14 339 l 14 475 l 149 475 l 149 339 m 149 502 l 14 502 l 14 637 l 149 637 l 149 502 m 149 665 l 14 665 l 14 800 l 149 800 l 149 665 m 312 14 l 176 14 l 176 149 l 312 149 l 312 14 m 312 990 l 176 990 l 176 1126 l 312 1126 l 312 990 m 475 14 l 339 14 l 339 149 l 475 149 l 475 14 m 637 176 l 502 176 l 502 312 l 637 312 l 637 176 m 637 990 l 502 990 l 502 1126 l 637 1126 l 637 990 m 800 14 l 665 14 l 665 149 l 800 149 l 800 14 m 800 176 l 665 176 l 665 312 l 800 312 l 800 176 m 800 339 l 665 339 l 665 475 l 800 475 l 800 339 m 800 502 l 665 502 l 665 637 l 800 637 l 800 502 m 800 665 l 665 665 l 665 800 l 800 800 l 800 665 z "},"Ÿ":{"ha":977,"x_min":14,"x_max":800,"o":"m 149 665 l 14 665 l 14 800 l 149 800 l 149 665 m 312 502 l 176 502 l 176 637 l 312 637 l 312 502 m 312 990 l 176 990 l 176 1126 l 312 1126 l 312 990 m 475 14 l 339 14 l 339 149 l 475 149 l 475 14 m 475 176 l 339 176 l 339 312 l 475 312 l 475 176 m 475 339 l 339 339 l 339 475 l 475 475 l 475 339 m 637 502 l 502 502 l 502 637 l 637 637 l 637 502 m 637 990 l 502 990 l 502 1126 l 637 1126 l 637 990 m 800 665 l 665 665 l 665 800 l 800 800 l 800 665 z "},"ÿ":{"ha":977,"x_min":14,"x_max":800,"o":"m 149 502 l 14 502 l 14 637 l 149 637 l 149 502 m 149 665 l 14 665 l 14 800 l 149 800 l 149 665 m 312 14 l 176 14 l 176 149 l 312 149 l 312 14 m 312 339 l 176 339 l 176 475 l 312 475 l 312 339 m 312 990 l 176 990 l 176 1126 l 312 1126 l 312 990 m 475 14 l 339 14 l 339 149 l 475 149 l 475 14 m 475 339 l 339 339 l 339 475 l 475 475 l 475 339 m 637 14 l 502 14 l 502 149 l 637 149 l 637 14 m 637 339 l 502 339 l 502 475 l 637 475 l 637 339 m 637 990 l 502 990 l 502 1126 l 637 1126 l 637 990 m 800 176 l 665 176 l 665 312 l 800 312 l 800 176 m 800 339 l 665 339 l 665 475 l 800 475 l 800 339 m 800 502 l 665 502 l 665 637 l 800 637 l 800 502 m 800 665 l 665 665 l 665 800 l 800 800 l 800 665 z "},"¸":{"ha":977,"x_min":14,"x_max":475,"o":"m 149 14 l 14 14 l 14 149 l 149 149 l 149 14 m 312 14 l 176 14 l 176 149 l 312 149 l 312 14 m 475 176 l 339 176 l 339 312 l 475 312 l 475 176 z "},"ˇ":{"ha":977,"x_min":176,"x_max":637,"o":"m 312 990 l 176 990 l 176 1126 l 312 1126 l 312 990 m 475 827 l 339 827 l 339 963 l 475 963 l 475 827 m 637 990 l 502 990 l 502 1126 l 637 1126 l 637 990 z "},"Č":{"ha":977,"x_min":14,"x_max":800,"o":"m 149 176 l 14 176 l 14 312 l 149 312 l 149 176 m 149 339 l 14 339 l 14 475 l 149 475 l 149 339 m 149 502 l 14 502 l 14 637 l 149 637 l 149 502 m 312 14 l 176 14 l 176 149 l 312 149 l 312 14 m 312 665 l 176 665 l 176 800 l 312 800 l 312 665 m 312 990 l 176 990 l 176 1126 l 312 1126 l 312 990 m 475 14 l 339 14 l 339 149 l 475 149 l 475 14 m 475 665 l 339 665 l 339 800 l 475 800 l 475 665 m 475 827 l 339 827 l 339 963 l 475 963 l 475 827 m 637 14 l 502 14 l 502 149 l 637 149 l 637 14 m 637 665 l 502 665 l 502 800 l 637 800 l 637 665 m 637 990 l 502 990 l 502 1126 l 637 1126 l 637 990 m 800 176 l 665 176 l 665 312 l 800 312 l 800 176 z "},"č":{"ha":977,"x_min":14,"x_max":800,"o":"m 149 176 l 14 176 l 14 312 l 149 312 l 149 176 m 149 339 l 14 339 l 14 475 l 149 475 l 149 339 m 312 14 l 176 14 l 176 149 l 312 149 l 312 14 m 312 502 l 176 502 l 176 637 l 312 637 l 312 502 m 312 990 l 176 990 l 176 1126 l 312 1126 l 312 990 m 475 14 l 339 14 l 339 149 l 475 149 l 475 14 m 475 502 l 339 502 l 339 637 l 475 637 l 475 502 m 475 827 l 339 827 l 339 963 l 475 963 l 475 827 m 637 14 l 502 14 l 502 149 l 637 149 l 637 14 m 637 502 l 502 502 l 502 637 l 637 637 l 637 502 m 637 990 l 502 990 l 502 1126 l 637 1126 l 637 990 m 800 14 l 665 14 l 665 149 l 800 149 l 800 14 z "},"Ģ":{"ha":977,"x_min":14,"x_max":800,"o":"m 149 502 l 14 502 l 14 637 l 149 637 l 149 502 m 149 665 l 14 665 l 14 800 l 149 800 l 149 665 m 149 827 l 14 827 l 14 963 l 149 963 l 149 827 m 312 14 l 176 14 l 176 149 l 312 149 l 312 14 m 312 339 l 176 339 l 176 475 l 312 475 l 312 339 m 312 990 l 176 990 l 176 1126 l 312 1126 l 312 990 m 475 176 l 339 176 l 339 312 l 475 312 l 475 176 m 475 339 l 339 339 l 339 475 l 475 475 l 475 339 m 475 665 l 339 665 l 339 800 l 475 800 l 475 665 m 475 990 l 339 990 l 339 1126 l 475 1126 l 475 990 m 637 339 l 502 339 l 502 475 l 637 475 l 637 339 m 637 665 l 502 665 l 502 800 l 637 800 l 637 665 m 637 990 l 502 990 l 502 1126 l 637 1126 l 637 990 m 800 502 l 665 502 l 665 637 l 800 637 l 800 502 m 800 665 l 665 665 l 665 800 l 800 800 l 800 665 z "},"ģ":{"ha":977,"x_min":14,"x_max":800,"o":"m 149 502 l 14 502 l 14 637 l 149 637 l 149 502 m 312 14 l 176 14 l 176 149 l 312 149 l 312 14 m 312 339 l 176 339 l 176 475 l 312 475 l 312 339 m 312 665 l 176 665 l 176 800 l 312 800 l 312 665 m 475 14 l 339 14 l 339 149 l 475 149 l 475 14 m 475 339 l 339 339 l 339 475 l 475 475 l 475 339 m 475 665 l 339 665 l 339 800 l 475 800 l 475 665 m 475 827 l 339 827 l 339 963 l 475 963 l 475 827 m 637 14 l 502 14 l 502 149 l 637 149 l 637 14 m 637 339 l 502 339 l 502 475 l 637 475 l 637 339 m 637 665 l 502 665 l 502 800 l 637 800 l 637 665 m 637 990 l 502 990 l 502 1126 l 637 1126 l 637 990 m 800 176 l 665 176 l 665 312 l 800 312 l 800 176 m 800 339 l 665 339 l 665 475 l 800 475 l 800 339 m 800 502 l 665 502 l 665 637 l 800 637 l 800 502 m 800 665 l 665 665 l 665 800 l 800 800 l 800 665 z "},"Ķ":{"ha":977,"x_min":14,"x_max":800,"o":"m 149 339 l 14 339 l 14 475 l 149 475 l 149 339 m 149 502 l 14 502 l 14 637 l 149 637 l 149 502 m 149 665 l 14 665 l 14 800 l 149 800 l 149 665 m 149 827 l 14 827 l 14 963 l 149 963 l 149 827 m 149 990 l 14 990 l 14 1126 l 149 1126 l 149 990 m 312 14 l 176 14 l 176 149 l 312 149 l 312 14 m 312 665 l 176 665 l 176 800 l 312 800 l 312 665 m 475 176 l 339 176 l 339 312 l 475 312 l 475 176 m 475 665 l 339 665 l 339 800 l 475 800 l 475 665 m 637 502 l 502 502 l 502 637 l 637 637 l 637 502 m 637 827 l 502 827 l 502 963 l 637 963 l 637 827 m 800 339 l 665 339 l 665 475 l 800 475 l 800 339 m 800 990 l 665 990 l 665 1126 l 800 1126 l 800 990 z "},"ķ":{"ha":977,"x_min":14,"x_max":800,"o":"m 149 339 l 14 339 l 14 475 l 149 475 l 149 339 m 149 502 l 14 502 l 14 637 l 149 637 l 149 502 m 149 665 l 14 665 l 14 800 l 149 800 l 149 665 m 149 827 l 14 827 l 14 963 l 149 963 l 149 827 m 149 990 l 14 990 l 14 1126 l 149 1126 l 149 990 m 312 14 l 176 14 l 176 149 l 312 149 l 312 14 m 312 665 l 176 665 l 176 800 l 312 800 l 312 665 m 475 176 l 339 176 l 339 312 l 475 312 l 475 176 m 475 665 l 339 665 l 339 800 l 475 800 l 475 665 m 637 502 l 502 502 l 502 637 l 637 637 l 637 502 m 637 827 l 502 827 l 502 963 l 637 963 l 637 827 m 800 339 l 665 339 l 665 475 l 800 475 l 800 339 z "},"Ļ":{"ha":977,"x_min":14,"x_max":800,"o":"m 149 339 l 14 339 l 14 475 l 149 475 l 149 339 m 149 502 l 14 502 l 14 637 l 149 637 l 149 502 m 149 665 l 14 665 l 14 800 l 149 800 l 149 665 m 149 827 l 14 827 l 14 963 l 149 963 l 149 827 m 149 990 l 14 990 l 14 1126 l 149 1126 l 149 990 m 312 14 l 176 14 l 176 149 l 312 149 l 312 14 m 312 339 l 176 339 l 176 475 l 312 475 l 312 339 m 475 176 l 339 176 l 339 312 l 475 312 l 475 176 m 475 339 l 339 339 l 339 475 l 475 475 l 475 339 m 637 339 l 502 339 l 502 475 l 637 475 l 637 339 m 800 339 l 665 339 l 665 475 l 800 475 l 800 339 z "},"ļ":{"ha":977,"x_min":176,"x_max":637,"o":"m 312 14 l 176 14 l 176 149 l 312 149 l 312 14 m 312 339 l 176 339 l 176 475 l 312 475 l 312 339 m 312 990 l 176 990 l 176 1126 l 312 1126 l 312 990 m 475 176 l 339 176 l 339 312 l 475 312 l 475 176 m 475 339 l 339 339 l 339 475 l 475 475 l 475 339 m 475 502 l 339 502 l 339 637 l 475 637 l 475 502 m 475 665 l 339 665 l 339 800 l 475 800 l 475 665 m 475 827 l 339 827 l 339 963 l 475 963 l 475 827 m 475 990 l 339 990 l 339 1126 l 475 1126 l 475 990 m 637 339 l 502 339 l 502 475 l 637 475 l 637 339 z "},"Ņ":{"ha":977,"x_min":14,"x_max":800,"o":"m 149 339 l 14 339 l 14 475 l 149 475 l 149 339 m 149 502 l 14 502 l 14 637 l 149 637 l 149 502 m 149 665 l 14 665 l 14 800 l 149 800 l 149 665 m 149 827 l 14 827 l 14 963 l 149 963 l 149 827 m 149 990 l 14 990 l 14 1126 l 149 1126 l 149 990 m 312 14 l 176 14 l 176 149 l 312 149 l 312 14 m 312 827 l 176 827 l 176 963 l 312 963 l 312 827 m 475 176 l 339 176 l 339 312 l 475 312 l 475 176 m 475 665 l 339 665 l 339 800 l 475 800 l 475 665 m 637 502 l 502 502 l 502 637 l 637 637 l 637 502 m 800 339 l 665 339 l 665 475 l 800 475 l 800 339 m 800 502 l 665 502 l 665 637 l 800 637 l 800 502 m 800 665 l 665 665 l 665 800 l 800 800 l 800 665 m 800 827 l 665 827 l 665 963 l 800 963 l 800 827 m 800 990 l 665 990 l 665 1126 l 800 1126 l 800 990 z "},"ņ":{"ha":977,"x_min":14,"x_max":800,"o":"m 149 339 l 14 339 l 14 475 l 149 475 l 149 339 m 149 502 l 14 502 l 14 637 l 149 637 l 149 502 m 149 665 l 14 665 l 14 800 l 149 800 l 149 665 m 149 827 l 14 827 l 14 963 l 149 963 l 149 827 m 149 990 l 14 990 l 14 1126 l 149 1126 l 149 990 m 312 14 l 176 14 l 176 149 l 312 149 l 312 14 m 312 827 l 176 827 l 176 963 l 312 963 l 312 827 m 475 176 l 339 176 l 339 312 l 475 312 l 475 176 m 475 990 l 339 990 l 339 1126 l 475 1126 l 475 990 m 637 990 l 502 990 l 502 1126 l 637 1126 l 637 990 m 800 339 l 665 339 l 665 475 l 800 475 l 800 339 m 800 502 l 665 502 l 665 637 l 800 637 l 800 502 m 800 665 l 665 665 l 665 800 l 800 800 l 800 665 m 800 827 l 665 827 l 665 963 l 800 963 l 800 827 z "},"Š":{"ha":977,"x_min":14,"x_max":800,"o":"m 149 14 l 14 14 l 14 149 l 149 149 l 149 14 m 149 502 l 14 502 l 14 637 l 149 637 l 149 502 m 312 14 l 176 14 l 176 149 l 312 149 l 312 14 m 312 339 l 176 339 l 176 475 l 312 475 l 312 339 m 312 665 l 176 665 l 176 800 l 312 800 l 312 665 m 312 990 l 176 990 l 176 1126 l 312 1126 l 312 990 m 475 14 l 339 14 l 339 149 l 475 149 l 475 14 m 475 339 l 339 339 l 339 475 l 475 475 l 475 339 m 475 665 l 339 665 l 339 800 l 475 800 l 475 665 m 475 827 l 339 827 l 339 963 l 475 963 l 475 827 m 637 14 l 502 14 l 502 149 l 637 149 l 637 14 m 637 339 l 502 339 l 502 475 l 637 475 l 637 339 m 637 665 l 502 665 l 502 800 l 637 800 l 637 665 m 637 990 l 502 990 l 502 1126 l 637 1126 l 637 990 m 800 176 l 665 176 l 665 312 l 800 312 l 800 176 m 800 665 l 665 665 l 665 800 l 800 800 l 800 665 z "},"š":{"ha":977,"x_min":14,"x_max":800,"o":"m 149 502 l 14 502 l 14 637 l 149 637 l 149 502 m 312 14 l 176 14 l 176 149 l 312 149 l 312 14 m 312 339 l 176 339 l 176 475 l 312 475 l 312 339 m 312 665 l 176 665 l 176 800 l 312 800 l 312 665 m 312 990 l 176 990 l 176 1126 l 312 1126 l 312 990 m 475 14 l 339 14 l 339 149 l 475 149 l 475 14 m 475 339 l 339 339 l 339 475 l 475 475 l 475 339 m 475 665 l 339 665 l 339 800 l 475 800 l 475 665 m 475 827 l 339 827 l 339 963 l 475 963 l 475 827 m 637 14 l 502 14 l 502 149 l 637 149 l 637 14 m 637 339 l 502 339 l 502 475 l 637 475 l 637 339 m 637 665 l 502 665 l 502 800 l 637 800 l 637 665 m 637 990 l 502 990 l 502 1126 l 637 1126 l 637 990 m 800 176 l 665 176 l 665 312 l 800 312 l 800 176 z "},"Ž":{"ha":977,"x_min":14,"x_max":800,"o":"m 149 14 l 14 14 l 14 149 l 149 149 l 149 14 m 149 665 l 14 665 l 14 800 l 149 800 l 149 665 m 312 14 l 176 14 l 176 149 l 312 149 l 312 14 m 312 176 l 176 176 l 176 312 l 312 312 l 312 176 m 312 665 l 176 665 l 176 800 l 312 800 l 312 665 m 312 990 l 176 990 l 176 1126 l 312 1126 l 312 990 m 475 14 l 339 14 l 339 149 l 475 149 l 475 14 m 475 339 l 339 339 l 339 475 l 475 475 l 475 339 m 475 665 l 339 665 l 339 800 l 475 800 l 475 665 m 475 827 l 339 827 l 339 963 l 475 963 l 475 827 m 637 14 l 502 14 l 502 149 l 637 149 l 637 14 m 637 502 l 502 502 l 502 637 l 637 637 l 637 502 m 637 665 l 502 665 l 502 800 l 637 800 l 637 665 m 637 990 l 502 990 l 502 1126 l 637 1126 l 637 990 m 800 14 l 665 14 l 665 149 l 800 149 l 800 14 m 800 665 l 665 665 l 665 800 l 800 800 l 800 665 z "},"ž":{"ha":977,"x_min":14,"x_max":800,"o":"m 149 14 l 14 14 l 14 149 l 149 149 l 149 14 m 149 502 l 14 502 l 14 637 l 149 637 l 149 502 m 312 14 l 176 14 l 176 149 l 312 149 l 312 14 m 312 176 l 176 176 l 176 312 l 312 312 l 312 176 m 312 502 l 176 502 l 176 637 l 312 637 l 312 502 m 312 990 l 176 990 l 176 1126 l 312 1126 l 312 990 m 475 14 l 339 14 l 339 149 l 475 149 l 475 14 m 475 339 l 339 339 l 339 475 l 475 475 l 475 339 m 475 502 l 339 502 l 339 637 l 475 637 l 475 502 m 475 827 l 339 827 l 339 963 l 475 963 l 475 827 m 637 14 l 502 14 l 502 149 l 637 149 l 637 14 m 637 502 l 502 502 l 502 637 l 637 637 l 637 502 m 637 990 l 502 990 l 502 1126 l 637 1126 l 637 990 m 800 14 l 665 14 l 665 149 l 800 149 l 800 14 z "},"Å":{"ha":977,"x_min":14,"x_max":800,"o":"m 149 14 l 14 14 l 14 149 l 149 149 l 149 14 m 149 176 l 14 176 l 14 312 l 149 312 l 149 176 m 149 339 l 14 339 l 14 475 l 149 475 l 149 339 m 149 502 l 14 502 l 14 637 l 149 637 l 149 502 m 312 339 l 176 339 l 176 475 l 312 475 l 312 339 m 312 665 l 176 665 l 176 800 l 312 800 l 312 665 m 312 827 l 176 827 l 176 963 l 312 963 l 312 827 m 475 339 l 339 339 l 339 475 l 475 475 l 475 339 m 475 665 l 339 665 l 339 800 l 475 800 l 475 665 m 475 990 l 339 990 l 339 1126 l 475 1126 l 475 990 m 637 339 l 502 339 l 502 475 l 637 475 l 637 339 m 637 665 l 502 665 l 502 800 l 637 800 l 637 665 m 637 827 l 502 827 l 502 963 l 637 963 l 637 827 m 800 14 l 665 14 l 665 149 l 800 149 l 800 14 m 800 176 l 665 176 l 665 312 l 800 312 l 800 176 m 800 339 l 665 339 l 665 475 l 800 475 l 800 339 m 800 502 l 665 502 l 665 637 l 800 637 l 800 502 z "},"å":{"ha":977,"x_min":14,"x_max":800,"o":"m 149 176 l 14 176 l 14 312 l 149 312 l 149 176 m 312 14 l 176 14 l 176 149 l 312 149 l 312 14 m 312 339 l 176 339 l 176 475 l 312 475 l 312 339 m 312 665 l 176 665 l 176 800 l 312 800 l 312 665 m 312 827 l 176 827 l 176 963 l 312 963 l 312 827 m 475 14 l 339 14 l 339 149 l 475 149 l 475 14 m 475 339 l 339 339 l 339 475 l 475 475 l 475 339 m 475 665 l 339 665 l 339 800 l 475 800 l 475 665 m 475 990 l 339 990 l 339 1126 l 475 1126 l 475 990 m 637 14 l 502 14 l 502 149 l 637 149 l 637 14 m 637 339 l 502 339 l 502 475 l 637 475 l 637 339 m 637 665 l 502 665 l 502 800 l 637 800 l 637 665 m 637 827 l 502 827 l 502 963 l 637 963 l 637 827 m 800 14 l 665 14 l 665 149 l 800 149 l 800 14 m 800 176 l 665 176 l 665 312 l 800 312 l 800 176 m 800 339 l 665 339 l 665 475 l 800 475 l 800 339 m 800 502 l 665 502 l 665 637 l 800 637 l 800 502 z "},"Ç":{"ha":977,"x_min":14,"x_max":800,"o":"m 149 14 l 14 14 l 14 149 l 149 149 l 149 14 m 149 502 l 14 502 l 14 637 l 149 637 l 149 502 m 149 665 l 14 665 l 14 800 l 149 800 l 149 665 m 149 827 l 14 827 l 14 963 l 149 963 l 149 827 m 312 14 l 176 14 l 176 149 l 312 149 l 312 14 m 312 339 l 176 339 l 176 475 l 312 475 l 312 339 m 312 990 l 176 990 l 176 1126 l 312 1126 l 312 990 m 475 176 l 339 176 l 339 312 l 475 312 l 475 176 m 475 339 l 339 339 l 339 475 l 475 475 l 475 339 m 475 990 l 339 990 l 339 1126 l 475 1126 l 475 990 m 637 339 l 502 339 l 502 475 l 637 475 l 637 339 m 637 990 l 502 990 l 502 1126 l 637 1126 l 637 990 m 800 502 l 665 502 l 665 637 l 800 637 l 800 502 z "},"ç":{"ha":977,"x_min":14,"x_max":800,"o":"m 149 14 l 14 14 l 14 149 l 149 149 l 149 14 m 149 502 l 14 502 l 14 637 l 149 637 l 149 502 m 149 665 l 14 665 l 14 800 l 149 800 l 149 665 m 312 14 l 176 14 l 176 149 l 312 149 l 312 14 m 312 339 l 176 339 l 176 475 l 312 475 l 312 339 m 312 827 l 176 827 l 176 963 l 312 963 l 312 827 m 475 176 l 339 176 l 339 312 l 475 312 l 475 176 m 475 339 l 339 339 l 339 475 l 475 475 l 475 339 m 475 827 l 339 827 l 339 963 l 475 963 l 475 827 m 637 339 l 502 339 l 502 475 l 637 475 l 637 339 m 637 827 l 502 827 l 502 963 l 637 963 l 637 827 m 800 339 l 665 339 l 665 475 l 800 475 l 800 339 z "},"Ė":{"ha":977,"x_min":14,"x_max":800,"o":"m 149 14 l 14 14 l 14 149 l 149 149 l 149 14 m 149 176 l 14 176 l 14 312 l 149 312 l 149 176 m 149 339 l 14 339 l 14 475 l 149 475 l 149 339 m 149 502 l 14 502 l 14 637 l 149 637 l 149 502 m 149 665 l 14 665 l 14 800 l 149 800 l 149 665 m 312 14 l 176 14 l 176 149 l 312 149 l 312 14 m 312 339 l 176 339 l 176 475 l 312 475 l 312 339 m 312 665 l 176 665 l 176 800 l 312 800 l 312 665 m 475 14 l 339 14 l 339 149 l 475 149 l 475 14 m 475 339 l 339 339 l 339 475 l 475 475 l 475 339 m 475 665 l 339 665 l 339 800 l 475 800 l 475 665 m 475 990 l 339 990 l 339 1126 l 475 1126 l 475 990 m 637 14 l 502 14 l 502 149 l 637 149 l 637 14 m 637 339 l 502 339 l 502 475 l 637 475 l 637 339 m 637 665 l 502 665 l 502 800 l 637 800 l 637 665 m 800 14 l 665 14 l 665 149 l 800 149 l 800 14 m 800 665 l 665 665 l 665 800 l 800 800 l 800 665 z "},"ė":{"ha":977,"x_min":14,"x_max":800,"o":"m 149 176 l 14 176 l 14 312 l 149 312 l 149 176 m 149 339 l 14 339 l 14 475 l 149 475 l 149 339 m 149 502 l 14 502 l 14 637 l 149 637 l 149 502 m 312 14 l 176 14 l 176 149 l 312 149 l 312 14 m 312 339 l 176 339 l 176 475 l 312 475 l 312 339 m 312 665 l 176 665 l 176 800 l 312 800 l 312 665 m 475 14 l 339 14 l 339 149 l 475 149 l 475 14 m 475 339 l 339 339 l 339 475 l 475 475 l 475 339 m 475 665 l 339 665 l 339 800 l 475 800 l 475 665 m 475 990 l 339 990 l 339 1126 l 475 1126 l 475 990 m 637 14 l 502 14 l 502 149 l 637 149 l 637 14 m 637 339 l 502 339 l 502 475 l 637 475 l 637 339 m 637 665 l 502 665 l 502 800 l 637 800 l 637 665 m 800 339 l 665 339 l 665 475 l 800 475 l 800 339 m 800 502 l 665 502 l 665 637 l 800 637 l 800 502 z "},"Õ":{"ha":977,"x_min":14,"x_max":800,"o":"m 149 176 l 14 176 l 14 312 l 149 312 l 149 176 m 149 339 l 14 339 l 14 475 l 149 475 l 149 339 m 149 502 l 14 502 l 14 637 l 149 637 l 149 502 m 149 827 l 14 827 l 14 963 l 149 963 l 149 827 m 312 14 l 176 14 l 176 149 l 312 149 l 312 14 m 312 665 l 176 665 l 176 800 l 312 800 l 312 665 m 312 990 l 176 990 l 176 1126 l 312 1126 l 312 990 m 475 14 l 339 14 l 339 149 l 475 149 l 475 14 m 475 665 l 339 665 l 339 800 l 475 800 l 475 665 m 475 827 l 339 827 l 339 963 l 475 963 l 475 827 m 637 14 l 502 14 l 502 149 l 637 149 l 637 14 m 637 665 l 502 665 l 502 800 l 637 800 l 637 665 m 637 827 l 502 827 l 502 963 l 637 963 l 637 827 m 800 176 l 665 176 l 665 312 l 800 312 l 800 176 m 800 339 l 665 339 l 665 475 l 800 475 l 800 339 m 800 502 l 665 502 l 665 637 l 800 637 l 800 502 m 800 990 l 665 990 l 665 1126 l 800 1126 l 800 990 z "},"õ":{"ha":977,"x_min":14,"x_max":800,"o":"m 149 176 l 14 176 l 14 312 l 149 312 l 149 176 m 149 339 l 14 339 l 14 475 l 149 475 l 149 339 m 149 827 l 14 827 l 14 963 l 149 963 l 149 827 m 312 14 l 176 14 l 176 149 l 312 149 l 312 14 m 312 502 l 176 502 l 176 637 l 312 637 l 312 502 m 312 990 l 176 990 l 176 1126 l 312 1126 l 312 990 m 475 14 l 339 14 l 339 149 l 475 149 l 475 14 m 475 502 l 339 502 l 339 637 l 475 637 l 475 502 m 475 827 l 339 827 l 339 963 l 475 963 l 475 827 m 637 14 l 502 14 l 502 149 l 637 149 l 637 14 m 637 502 l 502 502 l 502 637 l 637 637 l 637 502 m 637 827 l 502 827 l 502 963 l 637 963 l 637 827 m 800 176 l 665 176 l 665 312 l 800 312 l 800 176 m 800 339 l 665 339 l 665 475 l 800 475 l 800 339 m 800 990 l 665 990 l 665 1126 l 800 1126 l 800 990 z "},"˙":{"ha":977,"x_min":339,"x_max":475,"o":"m 475 990 l 339 990 l 339 1126 l 475 1126 l 475 990 z "},"˜":{"ha":977,"x_min":14,"x_max":800,"o":"m 149 827 l 14 827 l 14 963 l 149 963 l 149 827 m 312 990 l 176 990 l 176 1126 l 312 1126 l 312 990 m 475 827 l 339 827 l 339 963 l 475 963 l 475 827 m 637 827 l 502 827 l 502 963 l 637 963 l 637 827 m 800 990 l 665 990 l 665 1126 l 800 1126 l 800 990 z "},"˛":{"ha":977,"x_min":502,"x_max":800,"o":"m 637 14 l 502 14 l 502 149 l 637 149 l 637 14 m 637 176 l 502 176 l 502 312 l 637 312 l 637 176 m 800 14 l 665 14 l 665 149 l 800 149 l 800 14 z "},"Ą":{"ha":977,"x_min":14,"x_max":800,"o":"m 149 339 l 14 339 l 14 475 l 149 475 l 149 339 m 149 502 l 14 502 l 14 637 l 149 637 l 149 502 m 149 665 l 14 665 l 14 800 l 149 800 l 149 665 m 149 827 l 14 827 l 14 963 l 149 963 l 149 827 m 312 665 l 176 665 l 176 800 l 312 800 l 312 665 m 312 990 l 176 990 l 176 1126 l 312 1126 l 312 990 m 475 665 l 339 665 l 339 800 l 475 800 l 475 665 m 475 990 l 339 990 l 339 1126 l 475 1126 l 475 990 m 637 14 l 502 14 l 502 149 l 637 149 l 637 14 m 637 176 l 502 176 l 502 312 l 637 312 l 637 176 m 637 665 l 502 665 l 502 800 l 637 800 l 637 665 m 637 990 l 502 990 l 502 1126 l 637 1126 l 637 990 m 800 14 l 665 14 l 665 149 l 800 149 l 800 14 m 800 339 l 665 339 l 665 475 l 800 475 l 800 339 m 800 502 l 665 502 l 665 637 l 800 637 l 800 502 m 800 665 l 665 665 l 665 800 l 800 800 l 800 665 m 800 827 l 665 827 l 665 963 l 800 963 l 800 827 z "},"ą":{"ha":977,"x_min":14,"x_max":800,"o":"m 149 502 l 14 502 l 14 637 l 149 637 l 149 502 m 312 339 l 176 339 l 176 475 l 312 475 l 312 339 m 312 665 l 176 665 l 176 800 l 312 800 l 312 665 m 312 990 l 176 990 l 176 1126 l 312 1126 l 312 990 m 475 339 l 339 339 l 339 475 l 475 475 l 475 339 m 475 665 l 339 665 l 339 800 l 475 800 l 475 665 m 475 990 l 339 990 l 339 1126 l 475 1126 l 475 990 m 637 14 l 502 14 l 502 149 l 637 149 l 637 14 m 637 176 l 502 176 l 502 312 l 637 312 l 637 176 m 637 339 l 502 339 l 502 475 l 637 475 l 637 339 m 637 665 l 502 665 l 502 800 l 637 800 l 637 665 m 637 990 l 502 990 l 502 1126 l 637 1126 l 637 990 m 800 14 l 665 14 l 665 149 l 800 149 l 800 14 m 800 339 l 665 339 l 665 475 l 800 475 l 800 339 m 800 502 l 665 502 l 665 637 l 800 637 l 800 502 m 800 665 l 665 665 l 665 800 l 800 800 l 800 665 m 800 827 l 665 827 l 665 963 l 800 963 l 800 827 z "},"Ę":{"ha":977,"x_min":14,"x_max":800,"o":"m 149 339 l 14 339 l 14 475 l 149 475 l 149 339 m 149 502 l 14 502 l 14 637 l 149 637 l 149 502 m 149 665 l 14 665 l 14 800 l 149 800 l 149 665 m 149 827 l 14 827 l 14 963 l 149 963 l 149 827 m 149 990 l 14 990 l 14 1126 l 149 1126 l 149 990 m 312 339 l 176 339 l 176 475 l 312 475 l 312 339 m 312 665 l 176 665 l 176 800 l 312 800 l 312 665 m 312 990 l 176 990 l 176 1126 l 312 1126 l 312 990 m 475 339 l 339 339 l 339 475 l 475 475 l 475 339 m 475 665 l 339 665 l 339 800 l 475 800 l 475 665 m 475 990 l 339 990 l 339 1126 l 475 1126 l 475 990 m 637 14 l 502 14 l 502 149 l 637 149 l 637 14 m 637 176 l 502 176 l 502 312 l 637 312 l 637 176 m 637 339 l 502 339 l 502 475 l 637 475 l 637 339 m 637 665 l 502 665 l 502 800 l 637 800 l 637 665 m 637 990 l 502 990 l 502 1126 l 637 1126 l 637 990 m 800 14 l 665 14 l 665 149 l 800 149 l 800 14 m 800 339 l 665 339 l 665 475 l 800 475 l 800 339 m 800 990 l 665 990 l 665 1126 l 800 1126 l 800 990 z "},"ę":{"ha":977,"x_min":14,"x_max":800,"o":"m 149 502 l 14 502 l 14 637 l 149 637 l 149 502 m 149 665 l 14 665 l 14 800 l 149 800 l 149 665 m 149 827 l 14 827 l 14 963 l 149 963 l 149 827 m 312 339 l 176 339 l 176 475 l 312 475 l 312 339 m 312 665 l 176 665 l 176 800 l 312 800 l 312 665 m 312 990 l 176 990 l 176 1126 l 312 1126 l 312 990 m 475 14 l 339 14 l 339 149 l 475 149 l 475 14 m 475 176 l 339 176 l 339 312 l 475 312 l 475 176 m 475 339 l 339 339 l 339 475 l 475 475 l 475 339 m 475 665 l 339 665 l 339 800 l 475 800 l 475 665 m 475 990 l 339 990 l 339 1126 l 475 1126 l 475 990 m 637 14 l 502 14 l 502 149 l 637 149 l 637 14 m 637 339 l 502 339 l 502 475 l 637 475 l 637 339 m 637 665 l 502 665 l 502 800 l 637 800 l 637 665 m 637 990 l 502 990 l 502 1126 l 637 1126 l 637 990 m 800 665 l 665 665 l 665 800 l 800 800 l 800 665 m 800 827 l 665 827 l 665 963 l 800 963 l 800 827 z "},"Į":{"ha":977,"x_min":176,"x_max":637,"o":"m 312 14 l 176 14 l 176 149 l 312 149 l 312 14 m 312 176 l 176 176 l 176 312 l 312 312 l 312 176 m 312 339 l 176 339 l 176 475 l 312 475 l 312 339 m 312 990 l 176 990 l 176 1126 l 312 1126 l 312 990 m 475 14 l 339 14 l 339 149 l 475 149 l 475 14 m 475 339 l 339 339 l 339 475 l 475 475 l 475 339 m 475 502 l 339 502 l 339 637 l 475 637 l 475 502 m 475 665 l 339 665 l 339 800 l 475 800 l 475 665 m 475 827 l 339 827 l 339 963 l 475 963 l 475 827 m 475 990 l 339 990 l 339 1126 l 475 1126 l 475 990 m 637 339 l 502 339 l 502 475 l 637 475 l 637 339 m 637 990 l 502 990 l 502 1126 l 637 1126 l 637 990 z "},"į":{"ha":977,"x_min":176,"x_max":637,"o":"m 312 14 l 176 14 l 176 149 l 312 149 l 312 14 m 312 176 l 176 176 l 176 312 l 312 312 l 312 176 m 312 339 l 176 339 l 176 475 l 312 475 l 312 339 m 312 665 l 176 665 l 176 800 l 312 800 l 312 665 m 475 14 l 339 14 l 339 149 l 475 149 l 475 14 m 475 339 l 339 339 l 339 475 l 475 475 l 475 339 m 475 502 l 339 502 l 339 637 l 475 637 l 475 502 m 475 665 l 339 665 l 339 800 l 475 800 l 475 665 m 475 990 l 339 990 l 339 1126 l 475 1126 l 475 990 m 637 339 l 502 339 l 502 475 l 637 475 l 637 339 z "},"Ų":{"ha":977,"x_min":14,"x_max":800,"o":"m 149 502 l 14 502 l 14 637 l 149 637 l 149 502 m 149 665 l 14 665 l 14 800 l 149 800 l 149 665 m 149 827 l 14 827 l 14 963 l 149 963 l 149 827 m 149 990 l 14 990 l 14 1126 l 149 1126 l 149 990 m 312 339 l 176 339 l 176 475 l 312 475 l 312 339 m 475 14 l 339 14 l 339 149 l 475 149 l 475 14 m 475 176 l 339 176 l 339 312 l 475 312 l 475 176 m 475 339 l 339 339 l 339 475 l 475 475 l 475 339 m 637 14 l 502 14 l 502 149 l 637 149 l 637 14 m 637 339 l 502 339 l 502 475 l 637 475 l 637 339 m 800 502 l 665 502 l 665 637 l 800 637 l 800 502 m 800 665 l 665 665 l 665 800 l 800 800 l 800 665 m 800 827 l 665 827 l 665 963 l 800 963 l 800 827 m 800 990 l 665 990 l 665 1126 l 800 1126 l 800 990 z "},"ų":{"ha":977,"x_min":14,"x_max":800,"o":"m 149 502 l 14 502 l 14 637 l 149 637 l 149 502 m 149 665 l 14 665 l 14 800 l 149 800 l 149 665 m 149 827 l 14 827 l 14 963 l 149 963 l 149 827 m 149 990 l 14 990 l 14 1126 l 149 1126 l 149 990 m 312 339 l 176 339 l 176 475 l 312 475 l 312 339 m 475 14 l 339 14 l 339 149 l 475 149 l 475 14 m 475 176 l 339 176 l 339 312 l 475 312 l 475 176 m 475 339 l 339 339 l 339 475 l 475 475 l 475 339 m 637 14 l 502 14 l 502 149 l 637 149 l 637 14 m 637 502 l 502 502 l 502 637 l 637 637 l 637 502 m 800 339 l 665 339 l 665 475 l 800 475 l 800 339 m 800 502 l 665 502 l 665 637 l 800 637 l 800 502 m 800 665 l 665 665 l 665 800 l 800 800 l 800 665 m 800 827 l 665 827 l 665 963 l 800 963 l 800 827 m 800 990 l 665 990 l 665 1126 l 800 1126 l 800 990 z "},"Ǫ":{"ha":977,"x_min":14,"x_max":800,"o":"m 149 502 l 14 502 l 14 637 l 149 637 l 149 502 m 149 665 l 14 665 l 14 800 l 149 800 l 149 665 m 149 827 l 14 827 l 14 963 l 149 963 l 149 827 m 312 339 l 176 339 l 176 475 l 312 475 l 312 339 m 312 990 l 176 990 l 176 1126 l 312 1126 l 312 990 m 475 14 l 339 14 l 339 149 l 475 149 l 475 14 m 475 176 l 339 176 l 339 312 l 475 312 l 475 176 m 475 339 l 339 339 l 339 475 l 475 475 l 475 339 m 475 990 l 339 990 l 339 1126 l 475 1126 l 475 990 m 637 14 l 502 14 l 502 149 l 637 149 l 637 14 m 637 339 l 502 339 l 502 475 l 637 475 l 637 339 m 637 990 l 502 990 l 502 1126 l 637 1126 l 637 990 m 800 502 l 665 502 l 665 637 l 800 637 l 800 502 m 800 665 l 665 665 l 665 800 l 800 800 l 800 665 m 800 827 l 665 827 l 665 963 l 800 963 l 800 827 z "},"ǫ":{"ha":977,"x_min":14,"x_max":800,"o":"m 149 502 l 14 502 l 14 637 l 149 637 l 149 502 m 149 665 l 14 665 l 14 800 l 149 800 l 149 665 m 312 339 l 176 339 l 176 475 l 312 475 l 312 339 m 312 827 l 176 827 l 176 963 l 312 963 l 312 827 m 475 14 l 339 14 l 339 149 l 475 149 l 475 14 m 475 176 l 339 176 l 339 312 l 475 312 l 475 176 m 475 339 l 339 339 l 339 475 l 475 475 l 475 339 m 475 827 l 339 827 l 339 963 l 475 963 l 475 827 m 637 14 l 502 14 l 502 149 l 637 149 l 637 14 m 637 339 l 502 339 l 502 475 l 637 475 l 637 339 m 637 827 l 502 827 l 502 963 l 637 963 l 637 827 m 800 502 l 665 502 l 665 637 l 800 637 l 800 502 m 800 665 l 665 665 l 665 800 l 800 800 l 800 665 z "}}}
